<svg width="48" height="49" viewBox="0 0 48 49" fill="none" xmlns="http://www.w3.org/2000/svg">
<rect y="0.63623" width="47.6364" height="47.6364" rx="23.8182" fill="#FFF2ED"/>
<path d="M32.0076 26.5144L30.8776 24.6344C30.6276 24.2244 30.4076 23.4344 30.4076 22.9544V21.0844C30.4076 17.4544 27.4576 14.5044 23.8376 14.5044C20.2076 14.5144 17.2576 17.4544 17.2576 21.0844V22.9444C17.2576 23.4244 17.0376 24.2144 16.7976 24.6244L15.6676 26.5044C15.2376 27.2344 15.1376 28.0644 15.4076 28.7844C15.6776 29.5144 16.2876 30.0944 17.0876 30.3544C18.1676 30.7144 19.2576 30.9744 20.3676 31.1644C20.4776 31.1844 20.5876 31.1944 20.6976 31.2144C20.8376 31.2344 20.9876 31.2544 21.1376 31.2744C21.3976 31.3144 21.6576 31.3444 21.9276 31.3644C22.5576 31.4244 23.1976 31.4544 23.8376 31.4544C24.4676 31.4544 25.0976 31.4244 25.7176 31.3644C25.9476 31.3444 26.1776 31.3244 26.3976 31.2944C26.5776 31.2744 26.7576 31.2544 26.9376 31.2244C27.0476 31.2144 27.1576 31.1944 27.2676 31.1744C28.3876 30.9944 29.4976 30.7144 30.5776 30.3544C31.3476 30.0944 31.9376 29.5144 32.2176 28.7744C32.4976 28.0244 32.4176 27.2044 32.0076 26.5144ZM24.5676 22.4544C24.5676 22.8744 24.2276 23.2144 23.8076 23.2144C23.3876 23.2144 23.0476 22.8744 23.0476 22.4544V19.3544C23.0476 18.9344 23.3876 18.5944 23.8076 18.5944C24.2276 18.5944 24.5676 18.9344 24.5676 19.3544V22.4544Z" fill="#FE5724"/>
<path d="M26.648 32.4643C26.228 33.6243 25.118 34.4543 23.818 34.4543C23.028 34.4543 22.248 34.1343 21.698 33.5643C21.378 33.2643 21.138 32.8643 20.998 32.4543C21.128 32.4743 21.258 32.4843 21.398 32.5043C21.628 32.5343 21.868 32.5643 22.108 32.5843C22.678 32.6343 23.258 32.6643 23.838 32.6643C24.408 32.6643 24.978 32.6343 25.538 32.5843C25.748 32.5643 25.958 32.5543 26.158 32.5243C26.318 32.5043 26.478 32.4843 26.648 32.4643Z" fill="#FE5724"/>
</svg>
