<svg width="33" height="33" viewBox="0 0 33 33" fill="none" xmlns="http://www.w3.org/2000/svg">
<g clip-path="url(#clip0_157_2241)">
<path d="M28.2904 23.3599C27.8468 24.3847 27.3217 25.328 26.7133 26.1953C25.884 27.3777 25.2051 28.1961 24.6818 28.6506C23.8706 29.3966 23.0015 29.7786 22.0708 29.8003C21.4027 29.8003 20.597 29.6102 19.6591 29.2246C18.7181 28.8407 17.8533 28.6506 17.0626 28.6506C16.2333 28.6506 15.3439 28.8407 14.3926 29.2246C13.4399 29.6102 12.6723 29.8112 12.0855 29.8311C11.193 29.8691 10.3035 29.4762 9.41554 28.6506C8.84881 28.1563 8.13994 27.3089 7.29075 26.1084C6.37964 24.8265 5.63057 23.34 5.04374 21.6452C4.41527 19.8146 4.10022 18.042 4.10022 16.3259C4.10022 14.3601 4.525 12.6646 5.37582 11.2438C6.04449 10.1025 6.93405 9.20227 8.04742 8.54138C9.16078 7.8805 10.3638 7.54372 11.6593 7.52217C12.3682 7.52217 13.2977 7.74144 14.4529 8.17237C15.6049 8.60475 16.3445 8.82402 16.6688 8.82402C16.9112 8.82402 17.7329 8.56763 19.1258 8.05649C20.4431 7.58246 21.5548 7.38619 22.4656 7.4635C24.9335 7.66268 26.7876 8.63553 28.0206 10.3882C25.8134 11.7256 24.7216 13.5987 24.7433 16.0016C24.7633 17.8733 25.4423 19.4308 26.7767 20.6674C27.3814 21.2414 28.0568 21.685 28.8082 22.0001C28.6453 22.4727 28.4733 22.9253 28.2904 23.3599V23.3599ZM22.6303 1.08714C22.6303 2.55414 22.0944 3.92388 21.0261 5.19169C19.7369 6.69887 18.1776 7.56979 16.4866 7.43236C16.4651 7.25637 16.4526 7.07114 16.4526 6.87649C16.4526 5.46817 17.0657 3.96099 18.1544 2.72867C18.698 2.10472 19.3893 1.58592 20.2276 1.17206C21.0641 0.764372 21.8554 0.538914 22.5995 0.500305C22.6213 0.69642 22.6303 0.892548 22.6303 1.08712V1.08714Z" fill="#202020"/>
</g>
<defs>
<clipPath id="clip0_157_2241">
<rect width="32" height="32" fill="white" transform="translate(0.5 0.5)"/>
</clipPath>
</defs>
</svg>
