<svg width="48" height="48" viewBox="0 0 48 48" fill="none" xmlns="http://www.w3.org/2000/svg">
<rect width="47.6364" height="47.6364" rx="23.8182" fill="#FFF2ED"/>
<path d="M32.9074 18.7983C32.0574 17.8583 30.6374 17.3883 28.5774 17.3883H28.3374V17.3483C28.3374 15.6683 28.3374 13.5883 24.5774 13.5883H23.0574C19.2974 13.5883 19.2974 15.6783 19.2974 17.3483V17.3983H19.0574C16.9874 17.3983 15.5774 17.8683 14.7274 18.8083C13.7374 19.9083 13.7674 21.3883 13.8674 22.3983L13.8774 22.4683L13.9549 23.2815C13.9691 23.4313 14.0498 23.5666 14.1757 23.649C14.4155 23.8059 14.8168 24.0646 15.0574 24.1983C15.1974 24.2883 15.3474 24.3683 15.4974 24.4483C17.2074 25.3883 19.0874 26.0183 20.9974 26.3283C21.0874 27.2683 21.4974 28.3683 23.6874 28.3683C25.8774 28.3683 26.3074 27.2783 26.3774 26.3083C28.4174 25.9783 30.3874 25.2683 32.1674 24.2283C32.2274 24.1983 32.2674 24.1683 32.3174 24.1383C32.7141 23.914 33.1257 23.6377 33.5009 23.3671C33.6139 23.2856 33.6862 23.1595 33.7016 23.021L33.7174 22.8783L33.7674 22.4083C33.7774 22.3483 33.7774 22.2983 33.7874 22.2283C33.8674 21.2183 33.8474 19.8383 32.9074 18.7983ZM24.9074 25.6483C24.9074 26.7083 24.9074 26.8683 23.6774 26.8683C22.4474 26.8683 22.4474 26.6783 22.4474 25.6583V24.3983H24.9074V25.6483ZM20.7274 17.3883V17.3483C20.7274 15.6483 20.7274 15.0183 23.0574 15.0183H24.5774C26.9074 15.0183 26.9074 15.6583 26.9074 17.3483V17.3983H20.7274V17.3883Z" fill="#FE5724"/>
<path d="M32.6917 25.5524C33.0453 25.3841 33.4525 25.6644 33.4171 26.0544L33.0582 30.0082C32.8482 32.0082 32.0282 34.0482 27.6282 34.0482H20.0082C15.6082 34.0482 14.7882 32.0082 14.5782 30.0182L14.2375 26.2704C14.2024 25.8849 14.6004 25.605 14.953 25.7645C16.0925 26.28 18.1956 27.1946 19.4948 27.5349C19.6591 27.5779 19.792 27.6955 19.8639 27.8494C20.4709 29.1475 21.7873 29.8382 23.6882 29.8382C25.5703 29.8382 26.9034 29.1209 27.5123 27.8196C27.5844 27.6656 27.7174 27.548 27.8818 27.5048C29.2614 27.1418 31.5 26.1195 32.6917 25.5524Z" fill="#FE5724"/>
</svg>
