<svg width="32" height="19" viewBox="0 0 32 19" fill="none" xmlns="http://www.w3.org/2000/svg">
<path fill-rule="evenodd" clip-rule="evenodd" d="M15.666 16.5864C14.0243 17.9702 11.8947 18.8056 9.5676 18.8056C4.37525 18.8056 0.166016 14.6465 0.166016 9.5159C0.166016 4.38534 4.37525 0.226196 9.5676 0.226196C11.8947 0.226196 14.0243 1.0616 15.666 2.44545C17.3077 1.0616 19.4373 0.226202 21.7644 0.226202C26.9568 0.226202 31.166 4.38534 31.166 9.51591C31.166 14.6465 26.9568 18.8056 21.7644 18.8056C19.4373 18.8056 17.3077 17.9702 15.666 16.5864Z" fill="#ED0006"/>
<path fill-rule="evenodd" clip-rule="evenodd" d="M15.666 16.5864C17.6874 14.8825 18.9692 12.3471 18.9692 9.5159C18.9692 6.68472 17.6874 4.14935 15.666 2.44545C17.3077 1.0616 19.4373 0.226196 21.7644 0.226196C26.9568 0.226196 31.166 4.38534 31.166 9.5159C31.166 14.6465 26.9568 18.8056 21.7644 18.8056C19.4373 18.8056 17.3077 17.9702 15.666 16.5864Z" fill="#F9A000"/>
<path fill-rule="evenodd" clip-rule="evenodd" d="M15.6665 16.5862C17.6879 14.8823 18.9696 12.3469 18.9696 9.51577C18.9696 6.68459 17.6879 4.14922 15.6665 2.44531C13.645 4.14922 12.3633 6.68459 12.3633 9.51577C12.3633 12.3469 13.645 14.8823 15.6665 16.5862Z" fill="#FF5E00"/>
</svg>
