<svg width="48" height="49" viewBox="0 0 48 49" fill="none" xmlns="http://www.w3.org/2000/svg">
<rect y="0.63623" width="47.6364" height="47.6364" rx="23.8182" fill="#FFF2ED"/>
<path d="M20.8184 14.4543C18.1984 14.4543 16.0684 16.5843 16.0684 19.2043C16.0684 21.7743 18.0784 23.8543 20.6984 23.9443C20.7784 23.9343 20.8584 23.9343 20.9184 23.9443C20.9384 23.9443 20.9484 23.9443 20.9684 23.9443C20.9784 23.9443 20.9784 23.9443 20.9884 23.9443C23.5484 23.8543 25.5584 21.7743 25.5684 19.2043C25.5684 16.5843 23.4384 14.4543 20.8184 14.4543Z" fill="#FE5724"/>
<path d="M25.8993 26.6042C23.1093 24.7442 18.5593 24.7442 15.7493 26.6042C14.4793 27.4542 13.7793 28.6042 13.7793 29.8342C13.7793 31.0642 14.4793 32.2042 15.7393 33.0442C17.1393 33.9842 18.9793 34.4542 20.8193 34.4542C22.6593 34.4542 24.4993 33.9842 25.8993 33.0442C27.1593 32.1942 27.8593 31.0542 27.8593 29.8142C27.8493 28.5842 27.1593 27.4442 25.8993 26.6042Z" fill="#FE5724"/>
<path d="M31.8077 19.7944C31.9677 21.7344 30.5877 23.4344 28.6777 23.6644C28.6677 23.6644 28.6677 23.6644 28.6577 23.6644H28.6277C28.5677 23.6644 28.5077 23.6644 28.4577 23.6844C27.4877 23.7344 26.5977 23.4244 25.9277 22.8544C26.9577 21.9344 27.5477 20.5544 27.4277 19.0544C27.3577 18.2444 27.0777 17.5044 26.6577 16.8744C27.0377 16.6844 27.4777 16.5644 27.9277 16.5244C29.8877 16.3544 31.6377 17.8144 31.8077 19.7944Z" fill="#FE5724"/>
<path d="M33.8086 29.0443C33.7286 30.0143 33.1086 30.8543 32.0686 31.4243C31.0686 31.9743 29.8086 32.2343 28.5586 32.2043C29.2786 31.5543 29.6986 30.7443 29.7786 29.8843C29.8786 28.6443 29.2886 27.4543 28.1086 26.5043C27.4386 25.9743 26.6586 25.5543 25.8086 25.2443C28.0186 24.6043 30.7986 25.0343 32.5086 26.4143C33.4286 27.1543 33.8986 28.0843 33.8086 29.0443Z" fill="#FE5724"/>
</svg>
