<svg width="1320" height="56" viewBox="0 0 1320 56" fill="none" xmlns="http://www.w3.org/2000/svg">
<g clip-path="url(#clip0_264_14974)">
<path d="M56.7359 24.2663C57.348 23.6011 58.0958 23.0721 58.93 22.7142C59.7641 22.3564 60.6654 22.178 61.5745 22.1907C63.3388 22.1907 64.7164 22.7313 65.5857 23.7691V22.9088C65.5914 22.7899 65.6414 22.6774 65.7261 22.5928C65.8108 22.5083 65.9241 22.4578 66.0442 22.4511H68.3728C68.4916 22.4596 68.6033 22.5109 68.6866 22.5952C68.77 22.6795 68.8193 22.791 68.8253 22.9088V35.7038C68.8965 37.5092 68.3329 39.2831 67.2304 40.7231C65.9744 42.2345 64.0685 43 61.5645 43C58.0836 43 55.3364 40.8198 54.8838 37.7064C54.8724 37.594 54.9013 37.4813 54.9655 37.3879C55.0296 37.2944 55.1249 37.2263 55.2347 37.1954L57.5094 36.6666C57.5214 36.6657 57.5334 36.6657 57.5453 36.6666C57.6046 36.6577 57.6652 36.6605 57.7234 36.6748C57.7817 36.6891 57.8365 36.7148 57.8847 36.7502C57.9328 36.7856 57.9735 36.8301 58.0042 36.8811C58.0349 36.9321 58.0551 36.9886 58.0637 37.0474C58.1653 37.8908 58.5817 38.6662 59.2312 39.2214C59.8808 39.7766 60.7165 40.0716 61.5745 40.0484C64.2938 40.0484 65.5617 38.6673 65.5617 35.7808V34.6601C65.0627 35.2135 64.4469 35.6516 63.7579 35.9434C63.0689 36.2353 62.3235 36.3737 61.5745 36.349C57.7048 36.349 54.8978 33.3757 54.8978 29.2836C54.8634 27.4439 55.5181 25.6567 56.7359 24.2663ZM101.89 22.0151H102.011C106.172 22.0703 108.75 24.9371 108.75 29.5243C108.75 29.7676 108.736 30.0106 108.71 30.2524C108.697 30.3607 108.644 30.4606 108.562 30.5332C108.48 30.6059 108.374 30.6463 108.263 30.647H98.377C98.4067 31.6351 98.828 32.5719 99.5498 33.2552C100.272 33.9385 101.236 34.3135 102.235 34.299C103.017 34.3474 103.793 34.132 104.435 33.6881C105.078 33.2441 105.55 32.5978 105.773 31.8545C105.814 31.7455 105.897 31.6564 106.002 31.606C106.108 31.5556 106.23 31.5478 106.342 31.5842L108.315 32.2727C108.373 32.2908 108.425 32.3207 108.47 32.3605C108.515 32.4003 108.55 32.4491 108.574 32.5036C108.601 32.5561 108.617 32.6133 108.621 32.6719C108.625 32.7305 108.617 32.7893 108.598 32.8449C108.152 34.1535 107.293 35.2856 106.147 36.0742C105.001 36.8628 103.63 37.2662 102.235 37.225C101.305 37.2338 100.382 37.0601 99.5208 36.714C98.6591 36.3679 97.8754 35.8562 97.2147 35.2086C96.495 34.4584 95.9339 33.5735 95.5642 32.6059C95.1944 31.6383 95.0236 30.6075 95.0616 29.5737C95.0616 24.8384 98.5385 22.0032 101.898 22.0032L101.89 22.0151ZM45.9324 22.0151C50.1669 22.0151 52.7985 24.8937 52.7985 29.5263C52.7981 29.7695 52.7848 30.0125 52.7586 30.2544C52.7463 30.363 52.694 30.4634 52.6116 30.5362C52.5292 30.609 52.4225 30.6492 52.312 30.649H42.4216C42.4513 31.6391 42.8742 32.5778 43.5986 33.2614C44.323 33.945 45.2904 34.3186 46.2912 34.301C47.0738 34.3502 47.8502 34.1352 48.4933 33.6911C49.1364 33.2471 49.6084 32.6003 49.8319 31.8564C49.8721 31.7468 49.9541 31.6571 50.0603 31.6066C50.1665 31.556 50.2885 31.5487 50.4001 31.5861L52.3758 32.2747C52.4325 32.2934 52.4847 32.3236 52.529 32.3634C52.5732 32.4031 52.6087 32.4515 52.633 32.5056C52.6556 32.5597 52.6673 32.6177 52.6673 32.6762C52.6673 32.7348 52.6556 32.7928 52.633 32.8469C52.1866 34.1547 51.3277 35.2861 50.1828 36.0746C49.038 36.8631 47.6675 37.2671 46.2733 37.227C45.3421 37.2369 44.4181 37.0638 43.555 36.7177C42.6919 36.3715 41.9069 35.8593 41.2453 35.2106C40.5268 34.4611 39.9662 33.5775 39.5962 32.6114C39.2262 31.6454 39.0542 30.6161 39.0902 29.5835C39.0902 24.8483 42.5671 22.0131 45.9284 22.0131L45.9324 22.0151ZM30.9502 22.0151C32.8521 22.0151 34.3892 22.4708 35.5356 23.3725C36.3026 23.978 36.872 24.7941 37.1723 25.7184C37.1821 25.7577 37.1839 25.7985 37.1777 25.8384C37.1714 25.8784 37.1572 25.9167 37.1359 25.9512C37.1146 25.9857 37.0866 26.0157 37.0535 26.0394C37.0204 26.0631 36.9828 26.0801 36.9431 26.0893L34.5806 26.8647C34.476 26.9042 34.3603 26.9042 34.2556 26.8647C34.2111 26.8444 34.1716 26.8148 34.1396 26.7781C34.1076 26.7413 34.084 26.6982 34.0702 26.6516C33.8709 25.896 33.1851 24.6273 30.9522 24.6273C29.3972 24.6273 28.4641 25.5112 28.4641 26.3675C28.4641 26.9358 28.7592 27.6677 30.1647 27.9321L32.7564 28.4135C35.6532 28.9916 37.3119 30.5602 37.3119 32.7443V32.7068C37.3119 34.8771 35.2026 37.1954 31.2831 37.1954C26.7297 37.1954 24.9454 34.6423 24.6124 33.1488C24.6015 33.0703 24.6201 32.9907 24.6645 32.9249C24.709 32.8591 24.7763 32.8117 24.8537 32.7917L27.2859 32.0419C27.3294 32.034 27.374 32.034 27.4175 32.0419C27.4869 32.0407 27.5555 32.057 27.6168 32.0893C27.6607 32.1106 27.6995 32.141 27.7304 32.1785C27.7614 32.2159 27.7838 32.2595 27.7963 32.3063C28.1033 33.7505 29.4211 34.6108 31.317 34.6108C33.0814 34.6108 33.8848 33.6973 33.8848 32.8686C33.8848 32.0399 33.1691 31.4303 31.939 31.1856L29.2157 30.6608C26.6718 30.1853 25.0869 28.6207 25.0869 26.5846C25.0869 24.1065 27.7763 22.0151 30.9502 22.0151ZM131.142 18C131.266 18.008 131.382 18.0622 131.467 18.1516C131.551 18.2409 131.599 18.3588 131.599 18.4814V22.4274H134.155C134.278 22.4359 134.393 22.4903 134.478 22.5796C134.562 22.669 134.609 22.7866 134.609 22.9088V25.0121C134.61 25.1321 134.562 25.2474 134.477 25.3328C134.392 25.4183 134.276 25.4668 134.155 25.4678H131.599V32.4898C131.599 33.6539 132.065 34.1353 133.266 34.1353C133.539 34.1307 133.812 34.1083 134.083 34.0682C134.149 34.0571 134.216 34.0604 134.28 34.0778C134.344 34.0952 134.403 34.1262 134.454 34.1688C134.55 34.2596 134.606 34.3845 134.609 34.5161V36.4891C134.61 36.5873 134.579 36.683 134.52 36.762C134.461 36.841 134.377 36.8989 134.282 36.9271C133.699 37.089 133.094 37.1668 132.488 37.1579C129.924 37.1579 128.335 35.5262 128.335 32.8942V25.4974H126.122C126.003 25.4903 125.89 25.4396 125.806 25.3551C125.721 25.2706 125.672 25.1583 125.666 25.0397V22.9325C125.665 22.8097 125.712 22.6912 125.797 22.6017C125.882 22.5121 125.999 22.4582 126.122 22.4511H126.687C127.382 22.4511 128.555 22.2104 128.555 20.5689V18.4814C128.554 18.3586 128.601 18.2401 128.686 18.1505C128.771 18.061 128.887 18.0071 129.011 18H131.142ZM83.1337 24.3669C83.6343 23.6103 84.3253 22.9956 85.1387 22.5832C85.9521 22.1709 86.8599 21.9751 87.7728 22.0151C90.3008 22.0151 92.8546 23.777 92.8546 27.6263V36.5364C92.8485 36.6552 92.7983 36.7675 92.7137 36.852C92.6291 36.9364 92.516 36.987 92.3961 36.9942H90.0635C89.9436 36.987 89.8305 36.9364 89.7459 36.852C89.6613 36.7675 89.6112 36.6552 89.605 36.5364V27.9124C89.605 26.8213 89.2601 24.9746 86.9275 24.9746C85.221 24.9746 84.0089 26.3024 84.0089 28.2281V36.5364C84.0032 36.655 83.9534 36.7673 83.8692 36.8518C83.7849 36.9363 83.6721 36.987 83.5523 36.9942H81.1938C81.0743 36.9866 80.9617 36.9357 80.8775 36.8513C80.7933 36.7669 80.7434 36.6549 80.7373 36.5364V27.9124C80.7373 26.8213 80.3924 24.9825 78.0579 24.9825C76.2835 24.9825 75.0873 26.3004 75.0873 28.2636V36.5364C75.0812 36.6549 75.0313 36.7669 74.9471 36.8513C74.863 36.9357 74.7504 36.9866 74.6308 36.9942H72.3002C72.1814 36.986 72.0698 36.9348 71.9867 36.8504C71.9035 36.766 71.8548 36.6542 71.8497 36.5364V22.8793C71.8552 22.7616 71.9041 22.6501 71.9871 22.5657C72.0702 22.4814 72.1816 22.4301 72.3002 22.4215H74.5431C74.6627 22.4291 74.7752 22.4799 74.8594 22.5643C74.9436 22.6487 74.9935 22.7608 74.9996 22.8793V23.702C75.4985 23.1618 76.1073 22.7323 76.7859 22.4415C77.4645 22.1508 78.1976 22.0055 78.937 22.0151C79.7869 21.99 80.6275 22.196 81.3674 22.6106C82.1073 23.0253 82.7182 23.6327 83.1337 24.3669ZM118.644 22.0151C119.39 21.9835 120.133 22.1201 120.817 22.4144C121.501 22.7086 122.109 23.153 122.594 23.7138C123.498 24.8925 123.959 26.3468 123.896 27.8256V36.5364C123.89 36.6541 123.841 36.7656 123.758 36.8499C123.675 36.9343 123.564 36.9856 123.445 36.9942H121.087C120.967 36.9866 120.854 36.9359 120.769 36.8515C120.685 36.7671 120.635 36.655 120.628 36.5364V28.2932C120.628 26.1367 119.603 25.0397 117.657 25.0397C117.234 25.0262 116.813 25.1115 116.428 25.2887C116.044 25.4658 115.707 25.73 115.445 26.0597C114.919 26.8112 114.653 27.7111 114.687 28.6247V36.5364C114.681 36.6549 114.631 36.7669 114.547 36.8513C114.463 36.9357 114.35 36.9866 114.23 36.9942H111.876C111.756 36.9866 111.644 36.9357 111.56 36.8513C111.475 36.7669 111.425 36.6549 111.419 36.5364V22.8694C111.424 22.7503 111.474 22.6373 111.558 22.5523C111.642 22.4673 111.756 22.4164 111.876 22.4097H114.177C114.295 22.4177 114.407 22.4686 114.49 22.5525C114.574 22.6365 114.623 22.7478 114.629 22.8654V23.8283C115.117 23.2459 115.731 22.7802 116.427 22.4662C117.122 22.1522 117.88 21.998 118.644 22.0151ZM61.9772 25.0693C59.6825 25.0693 58.2251 26.6852 58.2251 29.2836C58.2251 31.8821 59.6646 33.496 61.9772 33.496C64.1861 33.496 65.6734 31.8012 65.6734 29.2836C65.6734 26.7661 64.1861 25.0693 61.9772 25.0693ZM45.9563 24.9391C45.1096 24.9256 44.2882 25.225 43.6526 25.7789C43.017 26.3327 42.6129 27.1012 42.5193 27.9341H49.4372C49.2677 26.0854 47.938 24.9391 45.9563 24.9391ZM101.928 24.9391C101.081 24.9256 100.26 25.225 99.624 25.7789C98.9884 26.3327 98.5843 27.1012 98.4906 27.9341H105.411C105.239 26.0854 103.911 24.9391 101.928 24.9391Z" fill="#7A7A7A"/>
<path d="M28.5429 13.2447V17.915H27.2198V13.2447H25.3906V12.1123H30.3821V13.2447H28.5429Z" fill="#7A7A7A"/>
<path d="M38.6529 17.9351H37.2776L36.0247 13.6583L34.7417 17.9351H33.3864L31.6797 12.1123H33.0852L34.1674 16.3067L35.3882 12.1123H36.7937L37.9984 16.3067L39.0465 12.1123H40.3395L38.6529 17.9351Z" fill="#7A7A7A"/>
<path d="M42.1562 17.915V12.1123H43.4593V17.915H42.1562Z" fill="#7A7A7A"/>
<path d="M45.8047 17.915V12.1123H47.1279V16.7725H49.3927V17.915H45.8047Z" fill="#7A7A7A"/>
<path d="M51.3672 17.915V12.1123H52.6703V17.915H51.3672Z" fill="#7A7A7A"/>
<path d="M57.5846 18.0252C55.9884 18.0252 54.6953 16.8727 54.6953 15.0235C54.6953 13.1743 55.9984 12.0117 57.5967 12.0117C59.1949 12.0117 60.4859 13.1642 60.4859 15.0235C60.4859 16.8828 59.1929 18.0252 57.5846 18.0252ZM57.5967 13.0739C56.5927 13.0739 56.0084 13.9011 56.0084 15.0135C56.0084 16.1258 56.6108 16.9631 57.5967 16.9631C58.5825 16.9631 59.1628 16.1158 59.1628 15.0235C59.1628 13.9312 58.5664 13.0739 57.5967 13.0739Z" fill="#7A7A7A"/>
</g>
<mask id="mask0_264_14974" style="mask-type:luminance" maskUnits="userSpaceOnUse" x="204" y="11" width="140" height="34">
<path d="M343.501 11.9844H204.311V44.0161H343.501V11.9844Z" fill="white"/>
</mask>
<g mask="url(#mask0_264_14974)">
<path d="M205.707 12.0244H205.72C206.221 12.0276 206.705 12.2978 206.956 12.7718C209.444 17.4606 210.747 22.6923 210.749 28.0062L210.75 28.0361C210.748 33.2679 209.483 38.4997 206.956 43.2703C206.836 43.4957 206.657 43.6841 206.439 43.8155C206.221 43.947 205.972 44.0166 205.718 44.0167H205.708C205.488 44.0167 205.265 43.9633 205.058 43.8534C204.895 43.7678 204.751 43.6508 204.633 43.5092C204.516 43.3675 204.427 43.2036 204.373 43.0274C204.319 42.8511 204.299 42.6658 204.317 42.4821C204.334 42.2985 204.387 42.12 204.473 41.9571C206.75 37.6679 207.941 32.8817 207.941 28.0206C207.941 23.1595 206.75 18.3732 204.473 14.0841C204.387 13.9211 204.334 13.7427 204.317 13.559C204.299 13.3753 204.319 13.1899 204.373 13.0137C204.427 12.8374 204.516 12.6737 204.633 12.532C204.751 12.3902 204.895 12.2732 205.058 12.1878C205.258 12.0816 205.481 12.0256 205.707 12.0244ZM213.097 15.4988C213.44 15.3561 213.826 15.3556 214.17 15.4974C214.513 15.6392 214.787 15.9118 214.932 16.2558C216.481 19.9812 217.277 23.9792 217.273 28.0168V28.0254C217.273 32.0806 216.485 36.0365 214.932 39.7842C214.634 40.4996 213.813 40.8392 213.097 40.5423C212.927 40.4725 212.772 40.3697 212.642 40.2397C212.512 40.1098 212.409 39.9552 212.338 39.7849C212.267 39.6146 212.231 39.4321 212.231 39.2476C212.231 39.0631 212.267 38.8805 212.337 38.7102C213.743 35.329 214.466 31.7006 214.464 28.0361V28.0211V28.0062C214.467 24.3413 213.744 20.7125 212.337 17.331C212.04 16.6156 212.38 15.7946 213.097 15.4988ZM221.002 19.3576C221.363 19.2694 221.745 19.3289 222.062 19.5231C222.38 19.7173 222.608 20.0304 222.696 20.3932C223.294 22.8843 223.592 25.4446 223.594 28.0062V28.0361C223.594 30.5964 223.294 33.1569 222.695 35.6468C222.606 36.0092 222.378 36.3217 222.061 36.5156C221.744 36.7098 221.363 36.7698 221.002 36.6825C220.823 36.6404 220.655 36.5631 220.506 36.4552C220.357 36.3473 220.23 36.2111 220.134 36.054C220.037 35.897 219.973 35.7223 219.944 35.5401C219.914 35.3579 219.921 35.1718 219.964 34.9922C220.511 32.709 220.787 30.3686 220.785 28.0201C220.785 25.6753 220.512 23.3295 219.964 21.0499C219.921 20.8703 219.914 20.6839 219.943 20.5015C219.972 20.319 220.036 20.1441 220.133 19.9869C220.229 19.8296 220.356 19.693 220.505 19.585C220.654 19.477 220.823 19.3997 221.002 19.3576ZM227.695 23.4523C227.88 23.4165 228.071 23.4186 228.255 23.4585C228.439 23.4985 228.614 23.5753 228.768 23.6846C228.922 23.7938 229.053 23.9332 229.152 24.0944C229.252 24.2555 229.317 24.4351 229.346 24.6225C229.514 25.7458 229.594 26.8754 229.585 28.0062V28.0361C229.593 29.1681 229.514 30.2991 229.346 31.4186C229.317 31.6059 229.251 31.7854 229.152 31.9465C229.053 32.1076 228.922 32.247 228.768 32.3562C228.614 32.4654 228.439 32.5423 228.255 32.5823C228.071 32.6222 227.88 32.6245 227.695 32.5888C226.951 32.449 226.462 31.724 226.573 30.9744C226.717 29.9986 226.785 29.0173 226.776 28.0361V28.0211V28.0062C226.785 27.0225 226.717 26.0396 226.573 25.0667C226.464 24.3353 226.968 23.5889 227.695 23.4523ZM232.341 28.0361C232.341 27.1531 233.057 26.4377 233.941 26.4377C234.824 26.4377 235.541 27.1531 235.541 28.0361C235.541 28.918 234.824 29.6334 233.941 29.6334C233.057 29.6334 232.341 28.918 232.341 28.0361Z" fill="#7A7A7A"/>
<path fill-rule="evenodd" clip-rule="evenodd" d="M246.881 19.7306V26.5681H254.945C255.029 26.8121 255.057 27.0275 255.057 27.2715C255.057 27.4869 255.028 27.7035 254.946 27.9464H246.881V35.6764C246.605 35.7304 246.357 35.7846 246.108 35.7846C245.86 35.7846 245.612 35.7304 245.334 35.6764V18.3257H255.968C256.022 18.5686 256.051 18.8116 256.051 19.0546C256.051 19.2711 256.022 19.514 255.968 19.7306H246.881ZM266.048 24.3525C265.358 24.1626 264.613 24.0554 263.617 24.0554C262.237 24.0554 260.994 24.4332 260.221 24.9202V35.6764C259.712 35.7833 259.184 35.7833 258.675 35.6764V24.2443C259.724 23.4071 261.574 22.623 263.756 22.623C264.888 22.623 265.689 22.7577 266.435 23.0283C266.463 23.4878 266.325 24.0013 266.048 24.3525ZM273.064 34.6492C274.666 34.6492 275.964 34.3521 276.847 34.0009V30.2171C275.853 29.7036 274.444 29.2981 272.898 29.2981C270.606 29.2981 269.252 30.2171 269.252 31.8119C269.252 33.4863 270.523 34.6503 273.063 34.6503L273.064 34.6492ZM278.339 27.4063V34.8391C276.986 35.568 274.803 36.001 273.036 36.001C269.391 36.001 267.678 34.2715 267.678 31.9201C267.678 29.3248 269.943 27.9464 272.898 27.9464C274.555 27.9464 275.881 28.3241 276.847 28.7836V27.4604C276.847 25.1091 275.3 24.0279 272.953 24.0279C271.241 24.0279 269.998 24.5956 269.058 25.2714C268.858 25.1739 268.684 25.0327 268.55 24.859C268.416 24.6854 268.326 24.4841 268.286 24.2708C268.921 23.6766 270.606 22.623 273.009 22.623C275.964 22.623 278.339 23.9737 278.339 27.4063ZM301.2 27.5951V35.6764C300.95 35.7304 300.702 35.7579 300.426 35.7579C300.166 35.759 299.906 35.7316 299.652 35.6764V28.1363C299.708 25.9198 298.713 24.0279 295.786 24.0279C294.129 24.0279 292.804 24.812 291.919 25.6227C292.141 26.2444 292.251 26.8927 292.251 27.5951V35.6764C292.03 35.7304 291.754 35.7579 291.505 35.7579C291.229 35.7579 290.952 35.7304 290.732 35.6764V28.1363C290.732 25.9198 289.792 24.0279 286.893 24.0279C285.429 24.0279 284.075 24.5956 283.248 25.1091V35.6764C282.738 35.7834 282.21 35.7834 281.7 35.6764V24.4607C282.833 23.5419 284.821 22.623 287.141 22.623C289.075 22.623 290.455 23.352 291.312 24.4873C292.445 23.4602 294.157 22.623 296.062 22.623C299.46 22.623 301.255 24.8661 301.2 27.5951ZM314.145 28.3252C314.145 25.6502 312.515 23.9737 310.113 23.9737C307.544 23.9737 305.832 25.8656 305.583 28.3252H314.145ZM315.692 29.5954H305.528C305.61 32.6225 307.433 34.6226 310.333 34.6226C312.515 34.6226 313.647 33.812 314.421 33.2168C314.807 33.4057 315.139 33.8385 315.25 34.2439C314.2 35.1087 312.653 35.9999 310.333 35.9999C306.604 35.9999 303.953 33.5679 303.953 29.3523C303.953 25.2714 306.743 22.623 310.113 22.623C313.29 22.623 315.747 24.7844 315.774 28.5416C315.774 28.947 315.747 29.1359 315.692 29.5954ZM323.99 35.6764V22.9753C324.239 22.8936 324.514 22.8669 324.763 22.8669C325.011 22.8669 325.288 22.8936 325.508 22.9753V35.6764C325.288 35.7304 325.012 35.7579 324.763 35.7579C324.503 35.7575 324.244 35.7301 323.99 35.6764ZM323.52 19.1905C323.52 18.5411 324.073 18.001 324.763 18.001C325.426 18.001 325.951 18.5421 325.951 19.1905C325.951 19.8663 325.426 20.3788 324.763 20.3788C324.436 20.3802 324.121 20.2559 323.888 20.0331C323.655 19.8103 323.523 19.5073 323.52 19.1905ZM318.731 34.3562C318.731 33.7078 319.284 33.1677 319.974 33.1677C320.637 33.1677 321.162 33.7089 321.162 34.3562C321.162 35.032 320.637 35.5457 319.974 35.5457C319.646 35.5467 319.331 35.4221 319.099 35.1992C318.866 34.9762 318.734 34.6731 318.731 34.3562ZM339.786 29.2971C339.786 26.3251 337.854 24.0279 334.788 24.0279C331.722 24.0279 329.789 26.3251 329.789 29.2971C329.789 32.3244 331.722 34.5675 334.788 34.5675C337.854 34.5675 339.786 32.3244 339.786 29.2971ZM328.215 29.2971C328.215 25.4868 331.059 22.622 334.815 22.622C338.627 22.622 341.334 25.4868 341.334 29.2971C341.334 33.1086 338.488 35.9734 334.733 35.9734C330.921 35.9734 328.215 33.1626 328.215 29.2971Z" fill="#7A7A7A"/>
</g>
<g clip-path="url(#clip1_264_14974)">
<path d="M430.048 12.25H406.002C403.789 12.25 401.994 14.0444 401.994 16.2576V40.3034C401.994 42.5167 403.789 44.3111 406.002 44.3111H430.048C432.261 44.3111 434.055 42.5167 434.055 40.3034V16.2576C434.055 14.0444 432.261 12.25 430.048 12.25ZM422.299 18.1282C422.299 17.5381 422.778 17.0592 423.368 17.0592C423.958 17.0592 424.437 17.5381 424.437 18.1282V32.4064C424.437 32.9965 423.958 33.4754 423.368 33.4754C422.778 33.4754 422.299 32.9965 422.299 32.4064V18.1282ZM416.956 17.5872C416.956 16.997 417.435 16.5181 418.025 16.5181C418.615 16.5181 419.094 16.997 419.094 17.5872V33.0837C419.094 33.6738 418.615 34.1527 418.025 34.1527C417.435 34.1527 416.956 33.6738 416.956 33.0837V17.5872ZM411.612 18.1282C411.612 17.5381 412.091 17.0592 412.681 17.0592C413.272 17.0592 413.75 17.5381 413.75 18.1282V32.4064C413.75 32.9965 413.272 33.4754 412.681 33.4754C412.091 33.4754 411.612 32.9965 411.612 32.4064V18.1282ZM406.269 20.2653C406.269 19.6751 406.747 19.1962 407.337 19.1962C407.927 19.1962 408.406 19.6751 408.406 20.2653V29.8776C408.406 30.4677 407.927 30.9466 407.337 30.9466C406.747 30.9466 406.269 30.4677 406.269 29.8776V20.2653ZM429.407 36.5663C429.243 36.7086 425.284 40.0299 418.025 40.0299C410.766 40.0299 406.808 36.7086 406.642 36.5663C406.194 36.1826 406.141 35.5083 406.526 35.0594C406.909 34.6126 407.582 34.5595 408.03 34.9422C408.092 34.9943 411.627 37.8928 418.024 37.8928C424.5 37.8928 427.981 34.9733 428.015 34.9442C428.462 34.5595 429.138 34.6116 429.521 35.0594C429.907 35.5083 429.855 36.1826 429.407 36.5663ZM429.78 29.8776C429.78 30.4677 429.301 30.9466 428.711 30.9466C428.121 30.9466 427.643 30.4677 427.643 29.8776V20.2653C427.643 19.6751 428.121 19.1962 428.711 19.1962C429.301 19.1962 429.78 19.6751 429.78 20.2653V29.8776Z" fill="#7A7A7A"/>
<path d="M446.772 32.9151C446.772 33.4501 446.364 33.8899 445.781 33.8899C445.215 33.8899 444.807 33.4491 444.807 32.9151V23.6204C444.807 23.0853 445.215 22.6455 445.798 22.6455C446.364 22.6455 446.772 23.0863 446.772 23.6204V32.9151Z" fill="#7A7A7A"/>
<path d="M459.481 23.6202V32.1134C459.481 33.2616 458.868 33.9068 457.893 33.9068H457.815C456.888 33.9068 456.447 33.3718 456.054 32.5853L454.072 28.7319L452.311 24.7534L452.358 28.6067L452.374 32.8999C452.374 33.4349 451.965 33.8747 451.383 33.8747C450.817 33.8747 450.408 33.4339 450.408 32.8999V24.4067C450.408 23.3527 451.021 22.6133 452.091 22.6133H452.17C453.16 22.6133 453.569 23.1483 453.963 23.9348L455.913 27.7571L457.58 31.4691L457.533 27.9144L457.517 23.6212C457.517 23.0862 457.926 22.6463 458.508 22.6463C459.073 22.6453 459.481 23.0852 459.481 23.6202Z" fill="#7A7A7A"/>
<path d="M467.356 32.9C467.356 33.435 466.947 33.8749 466.365 33.8749C465.799 33.8749 465.39 33.434 465.39 32.9V24.486H462.953C462.45 24.486 462.041 24.1083 462.041 23.5582C462.041 23.0232 462.45 22.6465 462.953 22.6465H469.794C470.297 22.6465 470.706 23.0242 470.706 23.5743C470.706 24.1093 470.297 24.486 469.794 24.486H467.356V32.9Z" fill="#7A7A7A"/>
<path d="M473.269 32.5858V23.8571C473.269 23.0396 473.725 22.5837 474.559 22.6148H480.22C480.723 22.6148 481.132 23.0075 481.132 23.5425C481.132 24.0776 480.723 24.4543 480.22 24.4543H475.219V27.1594H479.638C480.126 27.1594 480.519 27.5211 480.519 28.0401C480.519 28.5591 480.126 28.9208 479.638 28.9208H475.219V32.0347H480.22C480.723 32.0347 481.132 32.4275 481.132 32.9625C481.132 33.4975 480.723 33.8742 480.22 33.8742H474.511C473.694 33.8752 473.238 33.4194 473.269 32.5858Z" fill="#7A7A7A"/>
<path d="M492.303 32.6008C492.571 33.0567 492.397 33.6388 491.847 33.9223C491.312 34.1898 490.73 33.9854 490.464 33.5296L488.278 29.4879H486.202L486.218 32.9164C486.218 33.4514 485.809 33.8913 485.227 33.8913C484.661 33.8913 484.252 33.4504 484.252 32.9164V23.8571C484.252 23.0396 484.708 22.5837 485.541 22.6148H489.269C491.832 22.6148 492.901 24.2819 492.901 25.9802C492.901 27.6003 491.958 28.7955 490.338 29.1101L492.303 32.6008ZM486.201 27.7095H489.315C490.369 27.7095 490.919 27.0332 490.919 26.0734C490.919 25.1135 490.337 24.4533 489.299 24.4533H486.201V27.7095Z" fill="#7A7A7A"/>
<path d="M496.958 33.0416C495.779 31.9876 495.244 30.3364 495.244 28.2605C495.244 26.1685 495.763 24.5334 496.927 23.4954C497.651 22.8662 498.626 22.4414 500.041 22.4414C501.284 22.4414 502.243 22.7249 502.967 23.3381C503.596 23.8411 504.052 24.5494 504.319 25.5403C504.461 26.0593 504.099 26.5783 503.502 26.6885C502.936 26.7827 502.48 26.421 502.307 25.902C502.118 25.399 501.866 25.0374 501.567 24.7849C501.158 24.4232 500.655 24.2659 499.994 24.2659C499.287 24.2659 498.673 24.4703 498.217 24.9261C497.557 25.5864 497.273 26.7666 497.273 28.2605C497.273 29.7393 497.541 30.9186 498.233 31.5788C498.689 32.0347 499.287 32.2391 499.978 32.2391C500.702 32.2391 501.252 32.0507 501.708 31.6259C501.944 31.4055 502.149 31.1229 502.291 30.7923C502.495 30.3044 502.92 29.9427 503.47 30.0689C504.02 30.1952 504.367 30.7292 504.193 31.2482C503.91 32.1128 503.423 32.8051 502.762 33.277C502.039 33.796 501.142 34.0635 500.01 34.0635C498.563 34.0635 497.651 33.6387 496.958 33.0416Z" fill="#7A7A7A"/>
<path d="M506.533 28.2605C506.533 24.7378 507.98 22.4414 511.393 22.4414C514.775 22.4414 516.238 24.6747 516.238 28.2605C516.238 31.8934 514.759 34.0796 511.393 34.0796C507.965 34.0796 506.533 31.8934 506.533 28.2605ZM514.224 28.2605C514.224 25.5864 513.249 24.2819 511.377 24.2819C509.537 24.2819 508.562 25.5874 508.562 28.2605C508.562 30.9346 509.506 32.2391 511.377 32.2391C513.233 32.2391 514.224 30.9336 514.224 28.2605Z" fill="#7A7A7A"/>
<path d="M531.494 32.9C531.494 33.435 531.086 33.8749 530.504 33.8749C529.937 33.8749 529.529 33.434 529.529 32.9V28.685L529.576 24.5802L528.207 28.7481L526.824 32.8529C526.588 33.5763 526.1 33.8598 525.487 33.8598C524.842 33.8598 524.37 33.5613 524.118 32.8379L522.703 28.7491L521.397 24.6443L521.444 28.686V32.901C521.444 33.436 521.035 33.8759 520.453 33.8759C519.887 33.8759 519.479 33.435 519.479 32.901V24.487C519.479 23.3228 520.108 22.6465 521.209 22.6465C522.247 22.6465 522.829 23.1965 523.159 24.2035L524.605 28.4966L525.486 31.4222L526.383 28.4966L527.829 24.2035C528.16 23.1965 528.726 22.6465 529.764 22.6465C530.865 22.6465 531.478 23.3067 531.478 24.487L531.494 32.9Z" fill="#7A7A7A"/>
</g>
<path d="M642.606 33.2388C640.019 33.2388 637.922 31.0916 637.922 28.4425C637.922 25.794 640.019 23.6469 642.606 23.6469C645.192 23.6469 647.289 25.794 647.289 28.4425C647.289 31.0916 645.192 33.2388 642.606 33.2388ZM647.304 33.847C647.369 34.5829 647.957 35.5199 648.975 35.5199H649.571C649.802 35.5199 649.992 35.3302 649.992 35.0988V21.9742H649.989C649.977 21.7531 649.795 21.5759 649.571 21.5759H647.724C647.501 21.5759 647.319 21.7531 647.306 21.9742H647.304V23.0406C646.172 21.6442 644.388 21.0645 642.599 21.0645C638.532 21.0645 635.234 24.3677 635.234 28.4425C635.234 32.5177 638.532 35.8209 642.599 35.8209C644.388 35.8209 646.338 35.1257 647.304 33.8452L647.304 33.847ZM672.859 33.2388C670.272 33.2388 668.175 31.0916 668.175 28.4425C668.175 25.794 670.272 23.6469 672.859 23.6469C675.446 23.6469 677.542 25.794 677.542 28.4425C677.542 31.0916 675.446 33.2388 672.859 33.2388ZM677.557 33.847C677.622 34.5829 678.21 35.5199 679.228 35.5199H679.825C680.056 35.5199 680.245 35.3302 680.245 35.0988V21.9742H680.243C680.231 21.7531 680.048 21.5759 679.825 21.5759H677.978C677.754 21.5759 677.572 21.7531 677.559 21.9742H677.557V23.0406C676.425 21.6442 674.641 21.0645 672.852 21.0645C668.784 21.0645 665.487 24.3677 665.487 28.4425C665.487 32.5177 668.784 35.8209 672.852 35.8209C674.641 35.8209 676.591 35.1257 677.557 33.8452L677.557 33.847Z" fill="#7A7A7A"/>
<path d="M706.075 33.1164C703.535 33.1164 701.475 31.0116 701.475 28.4148C701.475 25.8187 703.535 23.714 706.075 23.714C708.616 23.714 710.675 25.8187 710.675 28.4148C710.675 31.0116 708.616 33.1164 706.075 33.1164ZM710.689 33.7126C710.753 34.4339 711.33 35.3524 712.331 35.3524H712.916C713.143 35.3524 713.329 35.1665 713.329 34.9396V22.0744H713.327C713.315 21.8577 713.136 21.6839 712.916 21.6839H711.102C710.883 21.6839 710.704 21.8577 710.692 22.0744H710.689V23.1197C709.578 21.7509 707.826 21.1826 706.068 21.1826C702.074 21.1826 698.836 24.4206 698.836 28.4148C698.836 32.4096 702.074 35.6475 706.068 35.6475C707.826 35.6475 709.741 34.966 710.689 33.7108L710.689 33.7126Z" fill="#7A7A7A"/>
<path d="M696.476 33.8671L696.475 27.2813C696.475 23.5689 694.115 21.0645 690.351 21.0645C688.554 21.0645 686.91 22.0866 686.561 22.981C686.449 22.2886 686.078 21.5606 684.929 21.5606H684.344C684.117 21.5606 683.932 21.7447 683.932 21.9691V33.4614V33.4631V34.675V34.6974H683.934C683.946 34.9114 684.125 35.0836 684.344 35.0836H685.569H686.152C686.18 35.0836 686.207 35.0803 686.233 35.0751C686.245 35.0729 686.257 35.0683 686.268 35.065C686.282 35.0609 686.296 35.0576 686.308 35.0524C686.324 35.0459 686.339 35.0369 686.354 35.0286C686.361 35.0243 686.369 35.021 686.376 35.0164C686.394 35.0049 686.411 34.9909 686.427 34.9768C686.429 34.9742 686.433 34.9724 686.435 34.97C686.453 34.9528 686.47 34.9339 686.484 34.914C686.529 34.8524 686.557 34.7776 686.562 34.6974H686.564V34.675V33.8673V33.6551V27.1791C686.564 25.1854 688.193 23.5689 690.202 23.5689C692.212 23.5689 693.841 25.1854 693.841 27.1791L693.843 33.4633L693.843 33.4614C693.843 33.4668 693.844 33.4725 693.844 33.4786V34.675V34.6974H693.846C693.858 34.9114 694.037 35.0836 694.256 35.0836H695.48H696.064C696.092 35.0836 696.119 35.0803 696.145 35.0751C696.156 35.0731 696.166 35.069 696.176 35.0659C696.191 35.0618 696.206 35.0581 696.221 35.0524C696.235 35.0463 696.249 35.038 696.263 35.03C696.271 35.0254 696.28 35.0219 696.288 35.0164C696.305 35.0055 696.321 34.9925 696.335 34.9792C696.339 34.9759 696.344 34.9733 696.347 34.9696C696.364 34.9533 696.38 34.9356 696.394 34.9169C696.395 34.9156 696.396 34.9145 696.397 34.9132C696.442 34.8519 696.469 34.7783 696.473 34.6985C696.473 34.6979 696.474 34.6974 696.474 34.6974H696.476V34.675L696.476 33.8671ZM653.915 31.9671C655.177 32.8232 656.555 33.2386 657.879 33.2386C659.14 33.2386 660.444 32.5987 660.444 31.4847C660.444 29.9975 657.603 29.7661 655.818 29.1723C654.032 28.5784 652.494 27.351 652.494 25.3627C652.494 22.3209 655.263 21.0645 657.848 21.0645C659.486 21.0645 661.176 21.5931 662.271 22.3501C662.649 22.6298 662.419 22.9514 662.419 22.9514L661.373 24.413C661.256 24.5776 661.05 24.7201 660.755 24.5417C660.46 24.3635 659.425 23.6468 657.848 23.6468C656.271 23.6468 655.321 24.3597 655.321 25.2432C655.321 26.3026 656.556 26.6358 658.002 26.9968C660.522 27.6617 663.271 28.4609 663.271 31.4847C663.271 34.165 660.71 35.8214 657.879 35.8214C655.734 35.8214 653.907 35.2228 652.375 34.1225C652.056 33.81 652.279 33.5197 652.279 33.5197L653.319 32.0653C653.531 31.7934 653.798 31.8883 653.915 31.9671Z" fill="#7A7A7A"/>
<path d="M624.166 22.5396C624.166 25.3922 621.853 27.7049 619.001 27.7049C616.148 27.7049 613.836 25.3922 613.836 22.5396C613.836 19.6877 616.148 17.375 619.001 17.375C621.853 17.375 624.166 19.6877 624.166 22.5396Z" fill="#7A7A7A"/>
<path d="M612.34 28.4834C609.499 28.4834 607.195 30.7863 607.195 33.6277C607.195 36.4691 609.499 38.7726 612.34 38.7726C615.181 38.7726 617.485 36.4691 617.485 33.6277C617.485 30.7863 615.181 28.4834 612.34 28.4834Z" fill="#7A7A7A"/>
<path d="M625.564 28.4834C622.785 28.4834 620.531 30.7867 620.531 33.6284C620.531 36.4695 622.785 38.7731 625.564 38.7731C628.344 38.7731 630.597 36.4695 630.597 33.6284C630.597 30.7867 628.344 28.4834 625.564 28.4834Z" fill="#7A7A7A"/>
<path fill-rule="evenodd" clip-rule="evenodd" d="M841.483 23.5407C845.168 23.5407 847.31 25.8421 847.31 29.1587L847.286 31.2008C847.284 31.2264 847.273 31.2506 847.254 31.268C847.234 31.2855 847.209 31.2953 847.183 31.2953H838.446C838.446 33.6502 839.639 35.0434 841.933 35.0434C843.316 35.0434 844.185 34.6359 845.152 33.709C845.171 33.691 845.196 33.6811 845.223 33.6811C845.249 33.6811 845.274 33.691 845.293 33.709L846.957 35.1788C846.967 35.1877 846.975 35.1984 846.981 35.2104C846.987 35.2225 846.99 35.2355 846.991 35.2488C846.991 35.2621 846.989 35.2754 846.984 35.2879C846.98 35.3004 846.973 35.3119 846.963 35.3215C846.314 36.0145 845.526 36.5653 844.65 36.9383C843.774 37.3115 842.83 37.4989 841.876 37.4885C838.367 37.4885 835.655 35.7089 835.655 30.4868V30.3231C835.662 28.956 835.839 27.7707 836.276 26.7911C837.212 24.6955 839.112 23.5407 841.483 23.5407ZM844.633 29.0212L844.629 28.8006C844.603 28.1686 844.523 27.862 844.253 27.3938C843.821 26.6201 842.854 26.0899 841.562 26.0899C840.272 26.0899 839.276 26.6201 838.844 27.3938C838.575 27.862 838.521 28.1676 838.495 28.8006V29.0212H844.633ZM868.834 23.5407C872.519 23.5407 874.661 25.8421 874.661 29.1587L874.639 31.2008C874.637 31.2266 874.625 31.2508 874.606 31.2684C874.587 31.2859 874.561 31.2955 874.535 31.2953H865.798C865.798 33.6502 866.99 35.0434 869.285 35.0434C870.668 35.0434 871.538 34.6359 872.504 33.709C872.523 33.6907 872.548 33.6806 872.575 33.6806C872.601 33.6806 872.627 33.6907 872.646 33.709L874.309 35.1788C874.319 35.1877 874.327 35.1984 874.333 35.2104C874.339 35.2225 874.342 35.2355 874.342 35.2488C874.343 35.2621 874.341 35.2754 874.336 35.2879C874.332 35.3004 874.324 35.3119 874.315 35.3215C873.666 36.0144 872.879 36.565 872.003 36.9382C871.127 37.3113 870.182 37.4988 869.229 37.4885C865.72 37.4885 863.006 35.7089 863.006 30.4868V30.3231C863.014 28.956 863.191 27.7707 863.628 26.7911C864.564 24.6955 866.463 23.5407 868.834 23.5407ZM871.982 29.0212V28.8006C871.957 28.1686 871.875 27.862 871.606 27.3938C871.175 26.6201 870.206 26.0899 868.915 26.0899C867.625 26.0899 866.629 26.6201 866.197 27.3938C865.928 27.862 865.876 28.1676 865.848 28.8006V29.0212H871.982ZM823.379 23.8032C823.378 23.7896 823.381 23.7761 823.386 23.7635C823.391 23.7509 823.398 23.7394 823.408 23.7297C823.417 23.7196 823.429 23.7117 823.442 23.7063C823.455 23.7009 823.469 23.6981 823.483 23.6981H834.402C834.439 23.6981 834.474 23.717 834.492 23.7495C834.501 23.7652 834.506 23.7829 834.505 23.8008C834.505 23.8188 834.5 23.8362 834.49 23.8514L827.695 34.8522H834.375C834.432 34.8522 834.477 34.8975 834.477 34.953V37.2271C834.477 37.2534 834.467 37.2796 834.448 37.2975C834.438 37.3072 834.427 37.3149 834.414 37.3201C834.401 37.3253 834.388 37.3281 834.374 37.3279H823.142C823.124 37.3279 823.106 37.3231 823.09 37.3139C823.074 37.3046 823.061 37.2913 823.052 37.2754C823.043 37.26 823.039 37.2426 823.039 37.2249C823.039 37.2072 823.044 37.1898 823.053 37.1746L829.879 26.1781H823.483C823.469 26.1782 823.455 26.1757 823.443 26.1707C823.43 26.1656 823.418 26.1582 823.408 26.1486C823.399 26.1393 823.392 26.1281 823.387 26.1159C823.381 26.1036 823.379 26.0904 823.379 26.0773V23.8032ZM896.648 20.1915C896.661 20.1911 896.675 20.1934 896.687 20.1982C896.7 20.2032 896.711 20.2106 896.721 20.2199C896.731 20.2294 896.738 20.2406 896.744 20.2531C896.749 20.2654 896.751 20.2789 896.751 20.2923V23.7035H899.476C899.533 23.7035 899.578 23.7475 899.578 23.8032V26.0793C899.578 26.0926 899.576 26.1058 899.57 26.1181C899.565 26.1305 899.558 26.1416 899.548 26.1509C899.539 26.1604 899.527 26.1678 899.515 26.1727C899.502 26.1778 899.489 26.1803 899.476 26.1801H896.751V32.5677C896.751 34.1425 897.435 34.8334 898.791 34.8943C898.928 34.9016 899.065 34.9016 899.202 34.8943C899.229 34.8931 899.255 34.9024 899.276 34.9205C899.297 34.9383 899.309 34.9625 899.311 34.9898V37.3164C899.311 37.3426 899.3 37.3677 899.282 37.3866C899.264 37.4054 899.239 37.4164 899.212 37.4172C899.075 37.4245 898.922 37.4245 898.675 37.4245C896.269 37.4245 894.071 36.2655 894.071 33.3069V26.179H892.238C892.225 26.1792 892.212 26.1767 892.199 26.1718C892.187 26.1667 892.175 26.1593 892.166 26.1499C892.156 26.1405 892.149 26.1294 892.144 26.117C892.138 26.1048 892.136 26.0917 892.136 26.0782V23.8021C892.136 23.7465 892.181 23.7024 892.238 23.7024H894.071V20.2912C894.071 20.2357 894.118 20.1904 894.174 20.1904H896.649L896.648 20.1915ZM910.001 30.4584C911.016 31.1577 911.488 32.1183 911.415 33.5178C911.273 36.2224 908.748 37.4907 906.077 37.4907C903.992 37.4907 901.953 36.698 900.748 35.3699C900.73 35.3499 900.722 35.324 900.723 35.2975C900.725 35.2712 900.737 35.2466 900.757 35.2292L902.401 33.7751C902.421 33.7575 902.447 33.7483 902.473 33.7493C902.5 33.7504 902.525 33.7614 902.544 33.7803C903.459 34.6948 904.591 35.1505 905.904 35.1505C907.039 35.1505 908.723 34.7304 908.756 33.3656C908.792 31.964 906.943 31.8864 905.903 31.7026C904.377 31.4338 902.824 31.1336 901.833 30.0753C901.49 29.7151 901.234 29.2831 901.083 28.8112C900.877 28.1208 900.849 27.39 901.002 26.6862C901.129 26.0817 901.414 25.5207 901.827 25.0588C902.252 24.6022 902.772 24.2428 903.351 24.0057C904.184 23.6836 905.072 23.5252 905.966 23.5396C906.641 23.5434 907.312 23.6319 907.964 23.8032C908.552 23.9712 909.112 24.221 909.627 24.5454C910.059 24.8216 910.441 25.166 910.758 25.5638C910.767 25.5735 910.773 25.5849 910.777 25.5971C910.781 25.6093 910.782 25.6222 910.781 25.635C910.78 25.6477 910.776 25.6602 910.769 25.6713C910.763 25.6826 910.755 25.6924 910.744 25.7003L909.065 27.1859C909.055 27.1954 909.044 27.2028 909.031 27.2077C909.019 27.2125 909.005 27.2149 908.992 27.2143C908.978 27.2139 908.965 27.2106 908.953 27.2049C908.941 27.1991 908.93 27.1909 908.921 27.1807C908.207 26.4205 907.204 26.1276 906.408 26.0604C905.719 26.0017 904.987 26.0247 904.288 26.3858C904.07 26.4929 903.888 26.6583 903.76 26.8631C903.632 27.068 903.565 27.3041 903.565 27.545C903.543 28.4069 903.817 28.8248 906.051 29.1996C907.736 29.4831 909.084 29.8306 910.001 30.4584ZM888.644 21.1249C887.598 21.1249 886.751 20.2944 886.751 19.2707C886.751 18.2471 887.598 17.4166 888.644 17.4166C889.69 17.4166 890.537 18.246 890.537 19.2707C890.537 20.2944 889.69 21.1249 888.644 21.1249ZM880.87 23.7035H889.877C889.934 23.7035 889.979 23.7475 889.979 23.8032V37.2334C889.979 37.2467 889.977 37.2599 889.972 37.2722C889.966 37.2846 889.959 37.2957 889.949 37.3051C889.94 37.3145 889.928 37.3219 889.916 37.3268C889.904 37.3319 889.89 37.3344 889.877 37.3342H887.404C887.377 37.3341 887.351 37.3235 887.332 37.3049C887.323 37.2956 887.315 37.2844 887.31 37.2722C887.304 37.2599 887.302 37.2467 887.302 37.2334V26.1801H880.864V37.2334C880.863 37.2602 880.852 37.2857 880.833 37.3045C880.814 37.3233 880.788 37.334 880.761 37.3342H878.286C878.26 37.3341 878.234 37.3235 878.215 37.3049C878.205 37.2956 878.197 37.2844 878.192 37.2722C878.187 37.2599 878.184 37.2467 878.184 37.2334V26.1759H876.115C876.102 26.176 876.088 26.1735 876.076 26.1686C876.064 26.1635 876.052 26.1561 876.043 26.1468C876.033 26.1373 876.026 26.1262 876.02 26.1139C876.015 26.1017 876.013 26.0885 876.013 26.0751V23.7989C876.014 23.773 876.026 23.7487 876.045 23.731C876.064 23.7132 876.089 23.7033 876.115 23.7035H878.184V21.5816C878.184 18.835 880.113 17.34 882.826 17.34H883.075C883.654 17.3424 884.232 17.3961 884.801 17.5006C884.824 17.5044 884.845 17.5159 884.86 17.5331C884.876 17.5502 884.885 17.5721 884.886 17.5951V19.8555C884.886 19.8699 884.883 19.8843 884.877 19.8973C884.871 19.9105 884.862 19.922 884.851 19.9311C884.84 19.9404 884.827 19.9471 884.813 19.9507C884.799 19.9544 884.784 19.9548 884.77 19.9522C884.193 19.881 883.612 19.8488 883.031 19.8555C881.927 19.8776 880.953 20.4183 880.872 21.8188V23.7035H880.87ZM859.192 24.7691C860.447 25.903 860.855 27.3591 860.855 28.85V37.2219C860.855 37.2352 860.852 37.2484 860.847 37.2607C860.842 37.2731 860.834 37.2842 860.825 37.2935C860.815 37.303 860.804 37.3104 860.792 37.3153C860.779 37.3204 860.766 37.3228 860.752 37.3227H858.279C858.265 37.3228 858.252 37.3204 858.24 37.3153C858.227 37.3104 858.216 37.303 858.206 37.2935C858.197 37.2842 858.189 37.2731 858.184 37.2607C858.179 37.2484 858.176 37.2352 858.176 37.2219V28.8469C858.176 27.5156 857.27 26.4825 855.965 26.2715C855.148 26.1382 853.936 26.1916 853.226 26.6253C852.643 26.9823 852.101 27.6133 852.101 28.3219V37.2271C852.102 37.2403 852.099 37.2534 852.094 37.2655C852.088 37.2777 852.08 37.2886 852.071 37.2975C852.051 37.3168 852.025 37.3278 851.998 37.3279H849.523C849.51 37.3281 849.496 37.3256 849.484 37.3205C849.471 37.3156 849.46 37.3082 849.45 37.2988C849.441 37.2894 849.433 37.2783 849.428 37.2659C849.423 37.2537 849.42 37.2404 849.42 37.2271V23.8032C849.42 23.7475 849.467 23.7035 849.523 23.7035H851.999C852.056 23.7035 852.101 23.7475 852.101 23.8032V24.7932L852.226 24.6829C852.397 24.5359 852.578 24.3995 852.768 24.2756C853.661 23.6961 854.571 23.5418 855.63 23.5418C857.148 23.5418 858.312 23.9712 859.192 24.7691ZM814.808 19.6267V22.4036L797.201 31.4044V28.6505L804.214 25.0641L797.201 23.3413V20.8193L807.54 23.3632L811.506 21.3349L797.201 17.8187V15.2969L814.808 19.6267ZM797.201 37.2135V34.4345L814.808 25.4337V28.1928L807.796 31.7782L814.808 33.502V36.0219L804.467 33.479L800.501 35.5073L814.808 39.0245V41.5444L797.201 37.2135Z" fill="#7A7A7A"/>
<path d="M987.705 25.3133C987.705 26.7663 987.11 28.0512 986.137 29.0563C985.056 30.1736 983.489 30.4544 983.489 31.4033C983.489 32.688 985.489 32.2972 987.407 34.2811C988.678 35.5944 989.46 37.3261 989.46 39.3374C989.46 43.3039 986.38 46.4613 982.517 46.4613C978.653 46.4601 975.572 43.3071 975.572 39.3385C975.572 37.3271 976.356 35.5955 977.626 34.2821C979.544 32.2994 981.544 32.6902 981.544 31.4054C981.544 30.4554 979.976 30.1758 978.895 29.0584C977.922 28.0522 977.328 26.7675 977.328 25.2592C977.328 22.3539 979.625 20.0068 982.435 20.0068C982.976 20.0068 983.462 20.0916 983.867 20.0916C984.597 20.0916 984.975 19.7559 984.975 19.2252C984.975 18.9181 984.84 18.5262 984.84 18.1078C984.84 17.1578 985.624 16.3751 986.57 16.3751C987.515 16.3751 988.272 17.1853 988.272 18.1629C988.272 19.1967 987.488 19.6722 986.894 19.8956C986.408 20.063 986.029 20.2866 986.029 20.7896C986.029 21.7364 987.705 22.659 987.705 25.3133ZM987.164 39.3395C987.164 36.5751 985.192 34.3393 982.517 34.3393C979.841 34.3393 977.869 36.5741 977.869 39.3395C977.869 42.0774 979.841 44.3409 982.517 44.3409C985.191 44.3409 987.164 42.0742 987.164 39.3395ZM985.571 25.2571C985.571 23.4979 984.193 22.0447 982.518 22.0447C980.842 22.0447 979.465 23.4979 979.465 25.2571C979.465 27.0174 980.842 28.4706 982.518 28.4706C984.193 28.4706 985.571 27.0174 985.571 25.2571ZM997.43 20.2844C998.295 20.2844 998.943 20.9548 998.943 21.7926C998.943 22.6305 998.322 23.3009 997.458 23.3009C996.566 23.3009 996.079 22.7151 995.188 22.7151C994.323 22.7151 993.647 23.357 993.647 24.4469V33.2462C993.647 33.5612 993.526 33.8631 993.311 34.0858C993.095 34.3084 992.803 34.4335 992.499 34.4335C992.194 34.4335 991.902 34.3084 991.687 34.0858C991.471 33.8631 991.35 33.5612 991.35 33.2462V21.4017C991.349 21.2458 991.376 21.091 991.432 20.9462C991.488 20.8013 991.572 20.6695 991.677 20.5578C991.783 20.4463 991.908 20.3573 992.047 20.2961C992.186 20.2348 992.335 20.2024 992.486 20.2008C993.647 20.2008 993.431 21.3456 994.593 21.3456C995.701 21.3456 996.106 20.2844 997.43 20.2844ZM999.944 27.3246C999.944 23.1059 1002.75 20.0609 1006.62 20.0609C1010.16 20.0609 1012.97 22.7427 1012.97 26.4031C1012.97 27.2684 1012.43 27.8552 1011.64 27.8552H1002.86C1002.48 27.8552 1002.35 27.995 1002.35 28.3021C1002.35 29.0012 1002.89 30.286 1003.7 31.1237C1004.51 31.9615 1005.62 32.4646 1007.19 32.4646C1008.35 32.4646 1009.37 32.0176 1010.16 31.4308C1010.4 31.236 1010.67 31.1237 1010.94 31.1237C1011.51 31.1237 1011.97 31.6543 1011.97 32.2136C1011.97 32.5483 1011.86 32.8279 1011.59 33.0788C1010.45 34.0575 1008.86 34.5882 1007.13 34.5882C1002.94 34.5882 999.944 31.4595 999.944 27.3246ZM1009.51 23.3019C1008.75 22.5192 1007.78 22.1284 1006.62 22.1284C1005.46 22.1284 1004.37 22.604 1003.59 23.4131C1002.97 24.056 1002.54 24.8938 1002.54 25.453C1002.54 25.7327 1002.7 25.845 1003.05 25.845H1010.08C1010.4 25.845 1010.56 25.7327 1010.56 25.453C1010.56 24.7826 1010.05 23.86 1009.51 23.3019ZM1015.29 27.3246C1015.29 23.1059 1018.1 20.0609 1021.97 20.0609C1025.51 20.0609 1028.32 22.7427 1028.32 26.4031C1028.32 27.2684 1027.77 27.8552 1026.99 27.8552H1018.21C1017.83 27.8552 1017.7 27.995 1017.7 28.3021C1017.7 29.0012 1018.24 30.286 1019.05 31.1237C1019.86 31.9615 1020.97 32.4646 1022.53 32.4646C1023.69 32.4646 1024.72 32.0176 1025.5 31.4308C1025.75 31.236 1026.02 31.1237 1026.29 31.1237C1026.86 31.1237 1027.32 31.6543 1027.32 32.2136C1027.32 32.5483 1027.21 32.8279 1026.94 33.0788C1025.8 34.0575 1024.21 34.5882 1022.48 34.5882C1018.29 34.5882 1015.29 31.4595 1015.29 27.3246ZM1024.86 23.3019C1024.1 22.5192 1023.13 22.1284 1021.97 22.1284C1020.8 22.1284 1019.72 22.604 1018.94 23.4131C1018.32 24.056 1017.89 24.8938 1017.89 25.453C1017.89 25.7327 1018.05 25.845 1018.4 25.845H1025.42C1025.75 25.845 1025.91 25.7327 1025.91 25.453C1025.91 24.7826 1025.4 23.86 1024.86 23.3019ZM1041.85 34.4483C1041.7 34.4496 1041.55 34.4195 1041.41 34.3596C1041.26 34.2997 1041.14 34.2112 1041.03 34.0994C1040.92 33.9878 1040.83 33.8548 1040.78 33.7085C1040.72 33.5622 1040.69 33.4055 1040.69 33.2474V25.649C1040.69 23.6652 1039.18 22.1569 1037.23 22.1569C1035.26 22.1569 1033.75 23.6927 1033.75 25.649V33.2474C1033.75 33.5622 1033.63 33.8641 1033.41 34.0869C1033.19 34.3095 1032.9 34.4346 1032.6 34.4346C1032.29 34.4346 1032 34.3095 1031.79 34.0869C1031.57 33.8641 1031.45 33.5622 1031.45 33.2474V21.3743C1031.45 20.7313 1031.96 20.2008 1032.56 20.2008C1033.69 20.2008 1033.64 21.263 1034.23 21.263C1034.83 21.263 1035.64 20.0609 1037.74 20.0609C1040.69 20.0609 1042.99 22.6028 1042.99 25.649V33.2474C1042.99 33.4032 1042.96 33.5579 1042.9 33.7026C1042.85 33.8473 1042.77 33.9793 1042.66 34.0908C1042.55 34.2023 1042.43 34.2913 1042.29 34.3527C1042.15 34.4141 1042 34.4466 1041.85 34.4483ZM1057.36 34.4483C1057.21 34.4496 1057.06 34.4195 1056.92 34.3596C1056.77 34.2997 1056.65 34.2112 1056.54 34.0994C1056.43 33.9878 1056.34 33.8548 1056.29 33.7085C1056.23 33.5622 1056.2 33.4055 1056.2 33.2474V25.6479C1056.2 23.6652 1054.69 22.1559 1052.74 22.1559C1050.77 22.1559 1049.26 23.6917 1049.26 25.6479V33.2474C1049.26 33.5622 1049.14 33.8641 1048.92 34.0869C1048.7 34.3095 1048.41 34.4346 1048.11 34.4346C1047.8 34.4346 1047.51 34.3095 1047.3 34.0869C1047.08 33.8641 1046.96 33.5622 1046.96 33.2474V14.4178C1046.96 14.1029 1047.08 13.8009 1047.3 13.5782C1047.51 13.3556 1047.8 13.2305 1048.11 13.2305C1048.41 13.2305 1048.7 13.3556 1048.92 13.5782C1049.14 13.8009 1049.26 14.1029 1049.26 14.4178V20.5926C1049.26 20.9273 1049.39 21.1221 1049.74 21.1221C1050.34 21.1221 1051.15 20.0609 1053.26 20.0609C1056.2 20.0609 1058.5 22.6028 1058.5 25.6479V33.2474C1058.5 33.4033 1058.47 33.5581 1058.41 33.7029C1058.36 33.8478 1058.28 33.9796 1058.17 34.0913C1058.06 34.2028 1057.94 34.2918 1057.8 34.353C1057.66 34.4143 1057.51 34.4467 1057.36 34.4483ZM1061.65 27.3246C1061.65 23.2744 1064.79 20.0609 1068.73 20.0609C1072.68 20.0609 1075.81 23.2744 1075.81 27.3246C1075.81 31.3759 1072.68 34.5882 1068.73 34.5882C1064.79 34.5882 1061.65 31.3759 1061.65 27.3246ZM1073.52 27.3246C1073.52 24.503 1071.49 22.1845 1068.74 22.1845C1066.01 22.1845 1063.98 24.504 1063.98 27.3246C1063.98 30.1461 1066.01 32.4646 1068.74 32.4646C1071.49 32.4646 1073.52 30.1461 1073.52 27.3246ZM1080.11 20.2008C1080.76 20.2008 1081.27 20.7303 1081.27 21.4017V29.0001C1081.27 30.9839 1082.78 32.4922 1084.73 32.4922C1086.7 32.4922 1088.22 30.9564 1088.22 29.0001V21.4017C1088.22 21.0869 1088.34 20.785 1088.55 20.5622C1088.77 20.3396 1089.06 20.2145 1089.36 20.2145C1089.67 20.2145 1089.96 20.3396 1090.18 20.5622C1090.39 20.785 1090.51 21.0869 1090.51 21.4017V33.2748C1090.51 33.9167 1090 34.4473 1089.41 34.4473C1088.27 34.4473 1088.32 33.3861 1087.73 33.3861C1087.14 33.3861 1086.32 34.5872 1084.22 34.5872C1081.27 34.5872 1078.98 32.0452 1078.98 29.0001V21.4017C1078.98 20.7313 1079.49 20.2008 1080.11 20.2008ZM1094.59 33.5544C1094.08 33.2187 1093.73 32.884 1093.73 32.2411C1093.73 31.6268 1094.19 31.1522 1094.75 31.1522C1095.43 31.1522 1095.73 31.5707 1096.29 31.8778C1097 32.2972 1097.81 32.5207 1098.81 32.5207C1100.64 32.5207 1101.56 31.6543 1101.56 30.5931C1101.56 29.0849 1100.21 28.8053 1098.38 28.3021C1096.1 27.6878 1093.92 26.9888 1093.92 24.2795C1093.92 21.8773 1095.7 20.0609 1098.86 20.0609C1100.1 20.0609 1101.27 20.3966 1102.18 20.9824C1102.51 21.1783 1102.83 21.5977 1102.83 22.0733C1102.83 22.6876 1102.35 23.2171 1101.73 23.2171C1101.32 23.2171 1101 22.9387 1100.59 22.659C1100.19 22.3804 1099.59 22.1294 1098.78 22.1294C1096.97 22.1294 1096.19 22.9387 1096.19 24.0284C1096.19 25.453 1097.51 25.7877 1099.4 26.2633C1101.62 26.8214 1103.81 27.5481 1103.81 30.3135C1103.81 32.7167 1102.08 34.5882 1098.75 34.5882C1097.13 34.5882 1095.67 34.2525 1094.59 33.5544ZM1105.97 27.3246C1105.97 23.1059 1108.78 20.0609 1112.64 20.0609C1116.18 20.0609 1118.99 22.7427 1118.99 26.4031C1118.99 27.2684 1118.45 27.8552 1117.67 27.8552H1108.89C1108.51 27.8552 1108.37 27.995 1108.37 28.3021C1108.37 29.0012 1108.91 30.286 1109.72 31.1237C1110.54 31.9615 1111.64 32.4646 1113.21 32.4646C1114.37 32.4646 1115.4 32.0176 1116.18 31.4308C1116.43 31.236 1116.69 31.1237 1116.97 31.1237C1117.53 31.1237 1117.99 31.6543 1117.99 32.2136C1117.99 32.5483 1117.88 32.8279 1117.61 33.0788C1116.48 34.0575 1114.88 34.5882 1113.16 34.5882C1108.97 34.5882 1105.97 31.4595 1105.97 27.3246ZM1115.54 23.3019C1114.78 22.5192 1113.81 22.1284 1112.65 22.1284C1111.48 22.1284 1110.4 22.604 1109.62 23.4131C1109 24.056 1108.57 24.8938 1108.57 25.453C1108.57 25.7327 1108.73 25.845 1109.08 25.845H1116.1C1116.43 25.845 1116.59 25.7327 1116.59 25.453C1116.59 24.7826 1116.08 23.86 1115.54 23.3019Z" fill="#7A7A7A"/>
<mask id="mask1_264_14974" style="mask-type:luminance" maskUnits="userSpaceOnUse" x="1190" y="8" width="100" height="38">
<path d="M1290 8H1190V46H1290V8Z" fill="white"/>
</mask>
<g mask="url(#mask1_264_14974)">
<path d="M1289.49 29.255C1289.24 29.0934 1288.94 29.0344 1288.64 29.0902C1288.35 29.1461 1288.09 29.3125 1287.92 29.555C1287.86 29.645 1286.5 31.568 1284.12 31.568C1283.19 31.568 1282.48 31.298 1282.02 30.727C1281.99 30.697 1281.96 30.637 1281.93 30.607C1281.93 30.607 1281.96 30.607 1281.96 30.577C1287.58 27.453 1287.52 24.781 1287.27 23.79C1286.93 22.589 1285.85 21.808 1284.46 21.808C1281.25 21.808 1279.12 25.291 1279.12 28.535C1279.12 28.955 1279.15 29.345 1279.21 29.735C1278.07 30.547 1276.31 31.568 1274.76 31.568C1273.87 31.568 1273.19 31.298 1272.75 30.787C1272.6 30.6059 1272.48 30.4038 1272.38 30.187C1276.68 28.985 1278.31 26.312 1278 24.18C1277.82 22.799 1276.74 21.808 1275.41 21.808C1272.41 21.808 1270.25 24.871 1269.91 27.874C1269.33 27.814 1268.83 27.664 1268.37 27.364C1268.43 26.883 1268.49 26.402 1268.49 25.952C1268.49 24.961 1268.31 24.12 1267.94 23.459C1267.44 22.589 1266.61 22.109 1265.65 22.109C1265.13 22.109 1264.66 22.379 1264.38 22.859C1263.83 23.849 1264.2 25.772 1265.22 27.303C1265.4 27.603 1265.62 27.873 1265.87 28.144C1265.31 29.886 1264.14 31.538 1262.65 31.538C1261.97 31.538 1261.48 31.328 1261.05 30.907C1260.46 30.277 1260.06 29.165 1259.94 27.754C1264.14 22.649 1266.21 17.634 1265.03 15.261C1264.63 14.451 1263.89 14 1262.99 14C1260.09 14 1258.36 17.664 1257.68 25.201C1257.64 25.7408 1257.62 26.2818 1257.62 26.823C1256.08 28.865 1253.51 31.538 1251.23 31.538C1250.58 31.538 1250.09 31.328 1249.78 30.877C1249.75 30.847 1249.71 30.787 1249.68 30.757C1249.71 30.757 1249.75 30.727 1249.78 30.697C1255.43 27.153 1255.34 24.481 1255.06 23.52C1254.75 22.469 1253.76 21.778 1252.49 21.778C1249.22 21.778 1247 25.441 1247 28.865C1247 29.165 1247.03 29.465 1247.06 29.765C1246.01 30.486 1245.17 31.147 1244.34 31.778C1244.46 30.847 1244.65 29.646 1244.87 27.874C1244.93 27.514 1244.96 27.214 1244.99 27.064C1245.17 25.772 1242.98 25.501 1242.73 26.943C1242.49 28.444 1241.84 31.538 1240.02 31.538C1238.94 31.538 1238.35 30.366 1238.47 28.655C1238.63 25.952 1240.14 23.76 1241.99 23.76C1242.64 23.76 1242.95 24.42 1242.95 24.42C1243.54 25.441 1245.36 24.57 1244.96 23.49C1244.77 23.009 1244.19 21.778 1242.06 21.778C1237.73 21.778 1236.37 26.042 1236.19 28.865C1236.16 29.315 1236.16 29.765 1236.22 30.216C1235.6 30.936 1234.89 31.538 1234.18 31.538C1233.5 31.538 1233.07 30.787 1233.32 29.075C1233.56 27.423 1233.75 26.072 1233.84 25.291C1234.37 21.718 1229.76 21.808 1229.76 21.808C1229.76 21.808 1229.7 19.706 1227.94 19.706C1227.05 19.706 1226.21 20.396 1226.21 21.688C1226.21 22.888 1227.23 23.489 1227.23 23.489C1227.02 25.351 1226.12 31.538 1224.11 31.538C1223.22 31.538 1223.15 30.607 1223.25 29.946C1223.37 29.045 1223.53 27.483 1223.59 27.093C1223.77 25.802 1221.58 25.532 1221.33 26.973C1221.09 28.475 1220.44 31.568 1218.61 31.568C1217.53 31.568 1216.95 30.246 1217.04 28.625C1217.19 25.892 1218.71 23.79 1220.56 23.79C1221.21 23.79 1221.52 24.45 1221.52 24.45C1222.01 25.471 1223.9 24.75 1223.53 23.52C1223.37 22.979 1222.75 21.808 1220.62 21.808C1216.3 21.808 1214.94 26.072 1214.75 28.895C1214.72 29.345 1214.72 29.765 1214.75 30.156C1214.14 30.967 1213.4 31.568 1212.68 31.568C1212.04 31.568 1211.54 31.238 1211.67 29.826C1211.73 29.166 1212.5 24.631 1212.47 23.82C1212.38 22.438 1211.73 21.838 1210.15 21.838C1208.49 21.838 1207.25 22.678 1206.72 23.189C1206.72 23.189 1207.5 17.483 1207.65 16.372C1207.81 15.232 1205.52 15.202 1205.4 16.372C1205.34 16.882 1204.72 21.387 1204.16 25.592C1202.86 28.354 1200.3 32.559 1196.5 32.559C1189.31 32.559 1192.61 17.303 1199.37 17.303C1200.95 17.303 1200.24 19.766 1199.19 21.237C1198.45 22.318 1200.33 23.52 1201.38 21.807C1204.29 17.033 1201.85 15.261 1199.53 15.261C1189.52 15.261 1185.82 34.661 1196.22 34.661C1199.65 34.661 1201.97 32.799 1203.45 30.757C1203.3 31.897 1203.2 32.679 1203.17 32.829C1202.99 34.03 1205.3 33.939 1205.43 32.919C1205.52 32.289 1205.86 29.616 1206.14 27.544C1206.29 26.372 1207.77 24.21 1209.44 24.21C1209.84 24.21 1210.09 24.6 1210.06 24.93C1210 25.321 1209.29 30.396 1209.32 31.147C1209.44 33.279 1211.02 33.76 1212.5 33.76C1213.67 33.76 1214.63 33.22 1215.4 32.378C1215.93 33.219 1216.73 33.76 1217.84 33.76C1220.34 33.76 1221.21 32.018 1221.21 32.018C1221.21 32.018 1221.52 33.76 1223.68 33.76C1228.07 33.76 1229.08 26.342 1229.3 23.85C1229.55 23.85 1231.09 23.94 1231.37 24.78C1231.62 25.592 1230.84 28.174 1230.78 30.847C1230.75 32.258 1231.28 33.76 1233.56 33.76C1234.95 33.76 1236.06 33.13 1236.84 32.438C1237.36 33.249 1238.16 33.76 1239.25 33.76C1240.48 33.76 1241.31 33.37 1241.84 32.979C1241.81 33.219 1241.78 33.429 1241.75 33.669V33.699C1241.75 33.669 1235.97 37.724 1235.97 41.537C1235.97 43.039 1236.68 44 1238.5 44C1242.12 44 1243.26 39.285 1243.78 35.411C1243.82 35.231 1243.85 35.051 1243.85 34.901C1244.4 34.481 1244.93 34.091 1245.45 33.7C1246.22 33.1169 1246.99 32.5462 1247.77 31.988C1247.8 32.048 1247.86 32.108 1247.89 32.168C1248.66 33.189 1249.81 33.73 1251.2 33.73C1253.82 33.73 1256.26 31.778 1257.99 29.856C1258.27 30.786 1258.67 31.688 1259.35 32.408C1260.18 33.279 1261.33 33.76 1262.62 33.76C1265.13 33.76 1266.85 31.808 1267.78 29.556C1268.46 29.856 1269.23 30.036 1270.04 30.096C1270.22 30.876 1270.53 31.598 1271.02 32.168C1271.64 32.888 1272.78 33.76 1274.79 33.76C1276.8 33.76 1278.78 32.709 1280.1 31.838L1280.29 32.108C1280.91 32.858 1282.11 33.76 1284.15 33.76C1287.76 33.76 1289.77 30.877 1289.86 30.757C1290.14 30.277 1289.99 29.586 1289.49 29.255ZM1238.78 41.868C1238.44 41.868 1238.2 41.658 1238.2 41.238C1238.2 39.315 1241.25 36.703 1241.28 36.703C1240.91 39.285 1239.83 41.868 1238.78 41.868ZM1252.43 23.85C1252.71 23.85 1252.77 24.06 1252.83 24.18C1252.96 24.6 1252.53 26.192 1249.22 28.414C1249.41 26.312 1250.73 23.85 1252.43 23.85ZM1262.93 16.252C1263.89 16.252 1263.12 19.435 1260.06 23.88C1260.77 17.964 1261.76 16.252 1262.93 16.252ZM1275.16 23.85C1275.66 23.85 1275.69 24.33 1275.72 24.51C1275.84 25.411 1274.98 27.033 1272.14 27.964C1272.45 26.012 1273.77 23.85 1275.16 23.85ZM1284.43 23.85C1284.77 23.85 1284.95 24.09 1285.05 24.39C1285.23 25.021 1284.37 26.613 1281.34 28.414C1281.4 26.312 1282.7 23.85 1284.43 23.85Z" fill="#7A7A7A"/>
</g>
<defs>
<clipPath id="clip0_264_14974">
<rect width="110.77" height="32" fill="white" transform="translate(24.6094 12)"/>
</clipPath>
<clipPath id="clip1_264_14974">
<rect width="131.25" height="36" fill="white" transform="translate(401.033 10)"/>
</clipPath>
</defs>
</svg>
