<svg width="64" height="16" viewBox="0 0 64 16" fill="none" xmlns="http://www.w3.org/2000/svg">
<mask id="mask0_438_8444" style="mask-type:luminance" maskUnits="userSpaceOnUse" x="0" y="0" width="64" height="16">
<path d="M63.8808 0.887207H0.32666V15.5128H63.8808V0.887207Z" fill="white"/>
</mask>
<g mask="url(#mask0_438_8444)">
<path d="M0.964292 0.905273H0.97011C1.1991 0.906737 1.41984 1.03008 1.53434 1.24654C2.67052 3.3874 3.26531 5.77621 3.2663 8.20251L3.26679 8.21615C3.26582 10.605 2.68849 12.9938 1.53434 15.1721C1.47964 15.275 1.39817 15.361 1.29864 15.421C1.1991 15.481 1.08522 15.5128 0.969143 15.5128H0.964776C0.864352 15.5128 0.762471 15.4885 0.667865 15.4383C0.593562 15.3992 0.527669 15.3458 0.47399 15.2811C0.42031 15.2164 0.379905 15.1416 0.355106 15.0612C0.330301 14.9806 0.321592 14.896 0.329476 14.8122C0.33736 14.7283 0.361681 14.6468 0.401038 14.5724C1.4405 12.614 1.98423 10.4286 1.98423 8.20908C1.98423 5.98952 1.4405 3.8041 0.401038 1.8457C0.361681 1.77131 0.33736 1.68983 0.329476 1.60595C0.321592 1.52207 0.330301 1.43745 0.355106 1.35697C0.379905 1.27649 0.42031 1.20174 0.47399 1.13702C0.527669 1.0723 0.593562 1.01888 0.667865 0.979868C0.75909 0.931406 0.861102 0.905819 0.964292 0.905273ZM4.33847 2.49166C4.49526 2.42651 4.67131 2.42629 4.82826 2.49103C4.98521 2.55578 5.11032 2.68026 5.1763 2.83732C5.88374 4.53831 6.24704 6.3638 6.24511 8.20735V8.21125C6.24511 10.0629 5.8856 11.8691 5.1763 13.5803C5.04048 13.9069 4.66546 14.062 4.33847 13.9265C4.26089 13.8946 4.19034 13.8476 4.13087 13.7883C4.07141 13.729 4.0242 13.6584 3.99196 13.5806C3.95972 13.5029 3.9431 13.4195 3.94304 13.3353C3.94297 13.251 3.95948 13.1677 3.99159 13.0899C4.63367 11.5461 4.96383 9.88937 4.96285 8.21615V8.20933V8.20251C4.96389 6.52911 4.63373 4.87221 3.99159 3.32825C3.85575 3.00161 4.011 2.62671 4.33847 2.49166ZM7.94797 4.25357C8.11291 4.2133 8.28702 4.2405 8.43198 4.32917C8.577 4.41784 8.68109 4.56077 8.72128 4.72644C8.99439 5.86386 9.13073 7.0329 9.13122 8.20251V8.21615C9.13122 9.3852 8.99439 10.5543 8.72078 11.6912C8.68034 11.8567 8.57632 11.9993 8.43148 12.0879C8.28665 12.1765 8.11278 12.204 7.94797 12.1641C7.86634 12.1448 7.78931 12.1095 7.72126 12.0603C7.65322 12.011 7.59553 11.9488 7.55149 11.8771C7.50745 11.8054 7.47792 11.7257 7.46465 11.6425C7.45131 11.5593 7.45448 11.4743 7.47395 11.3923C7.72374 10.3498 7.84966 9.28118 7.84898 8.20883C7.84898 7.13823 7.7243 6.06712 7.47395 5.02629C7.45435 4.94429 7.45107 4.85918 7.46434 4.77588C7.47755 4.69258 7.50701 4.61268 7.55105 4.54092C7.59516 4.46909 7.65284 4.40674 7.72095 4.35743C7.78906 4.30812 7.86622 4.27282 7.94797 4.25357ZM11.0039 6.1232C11.0885 6.10688 11.1754 6.10781 11.2597 6.12605C11.3438 6.14429 11.4235 6.17939 11.4939 6.22926C11.5643 6.27914 11.624 6.34278 11.6693 6.4164C11.7146 6.48997 11.7447 6.57197 11.7578 6.65751C11.8344 7.17042 11.8708 7.68618 11.8669 8.20251V8.21615C11.8708 8.73304 11.8343 9.24942 11.7578 9.7606C11.7447 9.84613 11.7145 9.92807 11.6692 10.0016C11.6238 10.0752 11.5642 10.1388 11.4938 10.1887C11.4234 10.2386 11.3438 10.2737 11.2596 10.2919C11.1754 10.3102 11.0885 10.3112 11.0039 10.2949C10.6643 10.2311 10.4411 9.90004 10.4916 9.55776C10.5576 9.11222 10.5886 8.66418 10.5842 8.21615V8.20933V8.20251C10.5882 7.75336 10.5573 7.30459 10.4916 6.86034C10.4421 6.52638 10.672 6.1856 11.0039 6.1232ZM13.1254 8.21615C13.1254 7.81297 13.4524 7.48633 13.856 7.48633C14.2592 7.48633 14.5862 7.81297 14.5862 8.21615C14.5862 8.61884 14.2592 8.94548 13.856 8.94548C13.4524 8.94548 13.1254 8.61884 13.1254 8.21615Z" fill="#7A7A7A"/>
<path fill-rule="evenodd" clip-rule="evenodd" d="M19.7646 4.42389V7.54589H23.4464C23.4849 7.65728 23.4975 7.75562 23.4975 7.86707C23.4975 7.96541 23.4845 8.06428 23.4469 8.1752H19.7646V11.7047C19.6383 11.7294 19.5251 11.7541 19.4113 11.7541C19.2981 11.7541 19.1848 11.7294 19.0581 11.7047V3.7824H23.9134C23.9384 3.89335 23.9514 4.0043 23.9514 4.11525C23.9514 4.2141 23.9384 4.32502 23.9134 4.42389H19.7646ZM28.5161 6.53425C28.201 6.44753 27.8607 6.3986 27.4062 6.3986C26.7759 6.3986 26.2083 6.57108 25.8555 6.79344V11.7047C25.6229 11.7535 25.3821 11.7535 25.1495 11.7047V6.48484C25.6285 6.10257 26.4733 5.74455 27.4694 5.74455C27.9865 5.74455 28.3523 5.80606 28.6929 5.92961C28.7055 6.1394 28.6424 6.37386 28.5161 6.53425ZM31.7193 11.2357C32.4509 11.2357 33.0437 11.1 33.447 10.9397V9.21199C32.993 8.97753 32.3497 8.79241 31.6437 8.79241C30.597 8.79241 29.9792 9.21199 29.9792 9.94018C29.9792 10.7047 30.5594 11.2362 31.7189 11.2362L31.7193 11.2357ZM34.128 7.92858V11.3224C33.5102 11.6552 32.5136 11.8529 31.7068 11.8529C30.0423 11.8529 29.2602 11.0632 29.2602 9.98958C29.2602 8.80457 30.2944 8.1752 31.6437 8.1752C32.4003 8.1752 33.0056 8.34768 33.447 8.55747V7.95331C33.447 6.87969 32.7405 6.38602 31.6688 6.38602C30.8871 6.38602 30.3194 6.64522 29.8905 6.95383C29.7992 6.90928 29.7198 6.84481 29.6586 6.76551C29.5974 6.68627 29.556 6.59433 29.5377 6.49694C29.8279 6.22564 30.597 5.74455 31.6943 5.74455C33.0437 5.74455 34.128 6.36129 34.128 7.92858ZM44.5662 8.01482V11.7047C44.4524 11.7294 44.3392 11.7419 44.2129 11.7419C44.0941 11.7424 43.9756 11.7299 43.8597 11.7047V8.26192C43.8852 7.24986 43.4308 6.38602 42.0944 6.38602C41.3379 6.38602 40.7326 6.74404 40.3287 7.11421C40.4299 7.39808 40.4801 7.69411 40.4801 8.01482V11.7047C40.3793 11.7294 40.2536 11.7419 40.1398 11.7419C40.0136 11.7419 39.8873 11.7294 39.7866 11.7047V8.26192C39.7866 7.24986 39.3577 6.38602 38.0339 6.38602C37.3654 6.38602 36.7472 6.64522 36.3694 6.87969V11.7047C36.1366 11.7536 35.8957 11.7536 35.6629 11.7047V6.58365C36.18 6.16413 37.0878 5.74455 38.1471 5.74455C39.0299 5.74455 39.6603 6.07742 40.0516 6.59581C40.5687 6.12683 41.3504 5.74455 42.2202 5.74455C43.772 5.74455 44.5912 6.76877 44.5662 8.01482ZM50.4768 8.34816C50.4768 7.12678 49.7328 6.36129 48.6359 6.36129C47.4629 6.36129 46.6813 7.22512 46.5675 8.34816H50.4768ZM51.1833 8.92812H46.5425C46.58 10.3103 47.4123 11.2235 48.7366 11.2235C49.7328 11.2235 50.2498 10.8534 50.6031 10.5816C50.7795 10.6679 50.9308 10.8655 50.9814 11.0506C50.5023 11.4455 49.7958 11.8524 48.7366 11.8524C47.034 11.8524 45.8235 10.742 45.8235 8.81714C45.8235 6.95383 47.0972 5.74455 48.6359 5.74455C50.0865 5.74455 51.2084 6.73146 51.2209 8.44697C51.2209 8.63209 51.2084 8.71833 51.1833 8.92812ZM54.9721 11.7047V5.90541C55.0858 5.8681 55.2116 5.85594 55.3253 5.85594C55.4385 5.85594 55.5649 5.8681 55.6655 5.90541V11.7047C55.5649 11.7294 55.439 11.7419 55.3253 11.7419C55.2065 11.7417 55.0881 11.7292 54.9721 11.7047ZM54.7576 4.17727C54.7576 3.88077 55.0101 3.63416 55.3253 3.63416C55.6279 3.63416 55.8674 3.88123 55.8674 4.17727C55.8674 4.48587 55.6279 4.71986 55.3253 4.71986C55.1758 4.72051 55.032 4.66375 54.9256 4.56203C54.8192 4.46031 54.7587 4.32193 54.7576 4.17727ZM52.5712 11.1019C52.5712 10.8058 52.8232 10.5592 53.1384 10.5592C53.4411 10.5592 53.681 10.8063 53.681 11.1019C53.681 11.4105 53.4411 11.645 53.1384 11.645C52.9888 11.6455 52.8451 11.5886 52.7388 11.4868C52.6325 11.385 52.5722 11.2466 52.5712 11.1019ZM62.1847 8.79194C62.1847 7.43491 61.3024 6.38602 59.9025 6.38602C58.5025 6.38602 57.6202 7.43491 57.6202 8.79194C57.6202 10.1742 58.5025 11.1984 59.9025 11.1984C61.3024 11.1984 62.1847 10.1742 62.1847 8.79194ZM56.9012 8.79194C56.9012 7.05217 58.1999 5.74408 59.915 5.74408C61.6554 5.74408 62.8914 7.05217 62.8914 8.79194C62.8914 10.5322 61.592 11.8403 59.8775 11.8403C58.1368 11.8403 56.9012 10.5569 56.9012 8.79194Z" fill="#7A7A7A"/>
</g>
</svg>
