<svg width="66" height="16" viewBox="0 0 66 16" fill="none" xmlns="http://www.w3.org/2000/svg">
<path d="M5.57813 5.54272C5.57813 6.20618 5.3068 6.79284 4.86248 7.25176C4.36899 7.76194 3.65334 7.89014 3.65334 8.32343C3.65334 8.91002 4.56639 8.73158 5.44247 9.63742C6.02251 10.2371 6.37987 11.0277 6.37987 11.9461C6.37987 13.7572 4.97333 15.1988 3.20945 15.1988C1.44509 15.1983 0.0385742 13.7587 0.0385742 11.9466C0.0385742 11.0282 0.396399 10.2375 0.976412 9.63788C1.85203 8.73258 2.76508 8.91102 2.76508 8.32437C2.76508 7.8906 2.04943 7.76294 1.55595 7.25276C1.11159 6.7933 0.840296 6.20672 0.840296 5.51803C0.840296 4.1915 1.88898 3.11983 3.17202 3.11983C3.41899 3.11983 3.64118 3.15854 3.82594 3.15854C4.15944 3.15854 4.33204 3.00525 4.33204 2.76295C4.33204 2.62271 4.2703 2.44377 4.2703 2.25275C4.2703 1.81896 4.62812 1.46158 5.05988 1.46158C5.49158 1.46158 5.83726 1.83154 5.83726 2.2779C5.83726 2.7499 5.47944 2.96701 5.20816 3.06905C4.98594 3.14546 4.8129 3.24756 4.8129 3.47726C4.8129 3.90955 5.57813 4.33078 5.57813 5.54272ZM5.33115 11.9471C5.33115 10.6849 4.43073 9.66398 3.20945 9.66398C1.98768 9.66398 1.08727 10.6844 1.08727 11.9471C1.08727 13.1972 1.98768 14.2307 3.20945 14.2307C4.43027 14.2307 5.33115 13.1957 5.33115 11.9471ZM4.60383 5.51709C4.60383 4.71382 3.97468 4.05029 3.20991 4.05029C2.44467 4.05029 1.81602 4.71382 1.81602 5.51709C1.81602 6.32083 2.44467 6.98436 3.20991 6.98436C3.97468 6.98436 4.60383 6.32083 4.60383 5.51709ZM10.0189 3.24656C10.4137 3.24656 10.7098 3.55266 10.7098 3.93518C10.7098 4.31776 10.4258 4.62387 10.0316 4.62387C9.62418 4.62387 9.40196 4.3564 8.99502 4.3564C8.60022 4.3564 8.29151 4.64949 8.29151 5.14713V9.16488C8.29151 9.30869 8.23626 9.44656 8.13796 9.54826C8.0396 9.64989 7.90626 9.70702 7.76719 9.70702C7.62812 9.70702 7.49478 9.64989 7.39642 9.54826C7.29805 9.44656 7.24287 9.30869 7.24287 9.16488V3.75673C7.242 3.68553 7.25468 3.61486 7.2803 3.54873C7.30586 3.48259 7.34383 3.4224 7.39195 3.37142C7.44013 3.3205 7.49752 3.27986 7.56085 3.2519C7.62418 3.22394 7.69225 3.20912 7.76112 3.20839C8.29151 3.20839 8.19281 3.73111 8.72328 3.73111C9.22939 3.73111 9.4141 3.24656 10.0189 3.24656ZM11.1668 6.46111C11.1668 4.53485 12.4498 3.14452 14.2142 3.14452C15.8303 3.14452 17.1133 4.36901 17.1133 6.04035C17.1133 6.43541 16.8668 6.70335 16.5089 6.70335H12.4994C12.3263 6.70335 12.2646 6.76721 12.2646 6.90742C12.2646 7.2266 12.5115 7.81326 12.882 8.19577C13.2515 8.57829 13.7576 8.80799 14.4733 8.80799C15.0038 8.80799 15.4724 8.60392 15.8303 8.33598C15.9411 8.24703 16.0646 8.19577 16.1881 8.19577C16.4472 8.19577 16.6567 8.43802 16.6567 8.69341C16.6567 8.84622 16.6076 8.97389 16.4842 9.08847C15.9659 9.53531 15.2381 9.77762 14.4485 9.77762C12.5364 9.77762 11.1668 8.34906 11.1668 6.46111ZM15.5342 4.62434C15.1885 4.26698 14.7446 4.08853 14.2142 4.08853C13.6838 4.08853 13.1898 4.30568 12.8325 4.67512C12.5485 4.96868 12.3511 5.3512 12.3511 5.60652C12.3511 5.73425 12.425 5.7855 12.5855 5.7855H15.7933C15.9411 5.7855 16.0155 5.73425 16.0155 5.60652C16.0155 5.30041 15.7811 4.87919 15.5342 4.62434ZM18.1746 6.46111C18.1746 4.53485 19.4571 3.14452 21.2215 3.14452C22.8381 3.14452 24.1211 4.36901 24.1211 6.04035C24.1211 6.43541 23.8741 6.70335 23.5163 6.70335H19.5067C19.3337 6.70335 19.2724 6.76721 19.2724 6.90742C19.2724 7.2266 19.5189 7.81326 19.8894 8.19577C20.2593 8.57829 20.765 8.80799 21.4806 8.80799C22.0111 8.80799 22.4802 8.60392 22.8376 8.33598C22.9489 8.24703 23.0724 8.19577 23.1954 8.19577C23.4545 8.19577 23.6646 8.43802 23.6646 8.69341C23.6646 8.84622 23.615 8.97389 23.4915 9.08847C22.9737 9.53531 22.2459 9.77762 21.4559 9.77762C19.5437 9.77762 18.1746 8.34906 18.1746 6.46111ZM22.5415 4.62434C22.1963 4.26698 21.752 4.08853 21.2215 4.08853C20.6911 4.08853 20.1976 4.30568 19.8398 4.67512C19.5563 4.96868 19.3584 5.3512 19.3584 5.60652C19.3584 5.73425 19.4329 5.7855 19.5933 5.7855H22.8006C22.9489 5.7855 23.0228 5.73425 23.0228 5.60652C23.0228 5.30041 22.7885 4.87919 22.5415 4.62434ZM30.3019 9.71376C30.2321 9.71436 30.1629 9.70061 30.0982 9.67325C30.0336 9.64589 29.9749 9.60552 29.9254 9.55447C29.876 9.50348 29.8369 9.44275 29.8104 9.37595C29.7839 9.30915 29.7705 9.23762 29.7711 9.16541V5.69601C29.7711 4.79023 29.0802 4.10155 28.1919 4.10155C27.2915 4.10155 26.6006 4.80278 26.6006 5.69601V9.16541C26.6006 9.30915 26.5454 9.44703 26.4471 9.54873C26.3487 9.65036 26.2154 9.70749 26.0763 9.70749C25.9372 9.70749 25.8038 9.65036 25.7055 9.54873C25.6072 9.44703 25.5519 9.30915 25.5519 9.16541V3.74419C25.5519 3.45063 25.7863 3.20839 26.0575 3.20839C26.5759 3.20839 26.551 3.6934 26.8228 3.6934C27.0941 3.6934 27.4641 3.14452 28.4263 3.14452C29.7711 3.14452 30.8197 4.30515 30.8197 5.69601V9.16541C30.8206 9.23655 30.8079 9.30722 30.7823 9.37329C30.7568 9.43935 30.7189 9.49961 30.6708 9.55053C30.6226 9.60145 30.5653 9.64209 30.5021 9.67011C30.4388 9.69814 30.3708 9.71296 30.3019 9.71376ZM37.3837 9.71376C37.3138 9.71436 37.2445 9.70061 37.1799 9.67325C37.1153 9.64589 37.0565 9.60552 37.0072 9.55447C36.9578 9.50348 36.9187 9.44275 36.8922 9.37595C36.8656 9.30915 36.8523 9.23762 36.8527 9.16541V5.69554C36.8527 4.79023 36.1619 4.10108 35.2736 4.10108C34.3732 4.10108 33.6824 4.80231 33.6824 5.69554V9.16541C33.6824 9.30915 33.6271 9.44703 33.5288 9.54873C33.4305 9.65036 33.2971 9.70749 33.158 9.70749C33.0189 9.70749 32.8856 9.65036 32.7872 9.54873C32.6889 9.44703 32.6337 9.30915 32.6337 9.16541V0.567879C32.6337 0.424095 32.6889 0.286211 32.7872 0.184543C32.8856 0.0828742 33.0189 0.0257568 33.158 0.0257568C33.2971 0.0257568 33.4305 0.0828742 33.5288 0.184543C33.6271 0.286211 33.6824 0.424095 33.6824 0.567879V3.3873C33.6824 3.54012 33.7436 3.62907 33.9041 3.62907C34.1753 3.62907 34.5458 3.14452 35.5085 3.14452C36.8527 3.14452 37.9015 4.30515 37.9015 5.69554V9.16541C37.9023 9.23662 37.8896 9.30729 37.864 9.37342C37.8384 9.43955 37.8004 9.49974 37.7523 9.55073C37.7042 9.60165 37.6468 9.64229 37.5835 9.67025C37.5201 9.69821 37.4525 9.71303 37.3837 9.71376ZM39.3435 6.46111C39.3435 4.61179 40.7748 3.14452 42.5757 3.14452C44.3774 3.14452 45.8083 4.61179 45.8083 6.46111C45.8083 8.31089 44.3769 9.77762 42.5761 9.77762C40.7757 9.77762 39.3435 8.31089 39.3435 6.46111ZM44.761 6.46111C44.761 5.17275 43.8358 4.11416 42.5771 4.11416C41.331 4.11416 40.4058 5.17322 40.4058 6.46111C40.4058 7.74939 41.331 8.80799 42.5771 8.80799C43.8353 8.80799 44.761 7.74939 44.761 6.46111ZM47.77 3.20839C48.0661 3.20839 48.3005 3.45016 48.3005 3.75673V7.22614C48.3005 8.13191 48.9913 8.8206 49.88 8.8206C50.7805 8.8206 51.4713 8.11936 51.4713 7.22614V3.75673C51.4713 3.61299 51.5266 3.47512 51.6249 3.37342C51.7232 3.27178 51.8566 3.21466 51.9957 3.21466C52.1347 3.21466 52.2681 3.27178 52.3664 3.37342C52.4648 3.47512 52.52 3.61299 52.52 3.75673V9.17796C52.52 9.47105 52.2856 9.71329 52.0144 9.71329C51.4961 9.71329 51.5209 9.22874 51.2491 9.22874C50.9779 9.22874 50.6078 9.77716 49.6452 9.77716C48.3005 9.77716 47.2522 8.61653 47.2522 7.22614V3.75673C47.2531 3.45063 47.4866 3.20839 47.77 3.20839ZM54.3826 9.30562C54.1482 9.15233 53.9878 8.99951 53.9878 8.70595C53.9878 8.42547 54.1974 8.20879 54.4565 8.20879C54.7652 8.20879 54.9009 8.39985 55.16 8.54005C55.4804 8.73158 55.8508 8.83361 56.3073 8.83361C57.146 8.83361 57.5656 8.43802 57.5656 7.95347C57.5656 7.26484 56.9486 7.13718 56.11 6.90742C55.0734 6.62694 54.0743 6.30775 54.0743 5.07072C54.0743 3.97389 54.8882 3.14452 56.3317 3.14452C56.8995 3.14452 57.43 3.29781 57.8495 3.56528C57.9974 3.6547 58.1456 3.84622 58.1456 4.06337C58.1456 4.34385 57.9234 4.58563 57.6395 4.58563C57.4543 4.58563 57.3065 4.4585 57.1213 4.33078C56.9365 4.20358 56.6647 4.089 56.2947 4.089C55.4682 4.089 55.1104 4.4585 55.1104 4.95607C55.1104 5.60652 55.7152 5.75934 56.5787 5.97649C57.5904 6.23134 58.5895 6.56314 58.5895 7.8258C58.5895 8.9231 57.8 9.77762 56.2826 9.77762C55.5421 9.77762 54.876 9.62434 54.3826 9.30562ZM59.5769 6.46111C59.5769 4.53485 60.86 3.14452 62.6243 3.14452C64.2404 3.14452 65.5238 4.36901 65.5238 6.04035C65.5238 6.43541 65.2768 6.70335 64.9191 6.70335H60.9095C60.7365 6.70335 60.6752 6.76721 60.6752 6.90742C60.6752 7.2266 60.9217 7.81326 61.2917 8.19577C61.6622 8.57829 62.1678 8.80799 62.8834 8.80799C63.4139 8.80799 63.8826 8.60392 64.2404 8.33598C64.3517 8.24703 64.4747 8.19577 64.5982 8.19577C64.8571 8.19577 65.0666 8.43802 65.0666 8.69341C65.0666 8.84622 65.0179 8.97389 64.8945 9.08847C64.376 9.53531 63.6482 9.77762 62.8587 9.77762C60.9474 9.77762 59.5769 8.34906 59.5769 6.46111ZM63.9457 4.62434C63.6 4.26698 63.1561 4.08853 62.6257 4.08853C62.0948 4.08853 61.6014 4.30568 61.2435 4.67512C60.96 4.96868 60.7627 5.3512 60.7627 5.60652C60.7627 5.73425 60.8366 5.7855 60.997 5.7855H64.2048C64.3526 5.7855 64.4265 5.73425 64.4265 5.60652C64.4265 5.30041 64.1922 4.87919 63.9457 4.62434Z" fill="#7A7A7A"/>
</svg>
