<svg width="51" height="16" viewBox="0 0 51 16" fill="none" xmlns="http://www.w3.org/2000/svg">
<g clip-path="url(#clip0_438_8434)">
<path d="M14.9057 6.49483C15.1852 6.1911 15.5266 5.94955 15.9075 5.78617C16.2883 5.6228 16.6999 5.54132 17.115 5.54711C17.9206 5.54711 18.5496 5.79395 18.9465 6.26781V5.87503C18.9491 5.82074 18.9719 5.76934 19.0106 5.73074C19.0493 5.69214 19.101 5.66909 19.1558 5.66603H20.219C20.2733 5.66992 20.3243 5.69331 20.3624 5.73181C20.4004 5.7703 20.4229 5.82124 20.4257 5.87503V11.7172C20.4582 12.5415 20.2008 13.3515 19.6975 14.009C19.124 14.6991 18.2537 15.0486 17.1104 15.0486C15.521 15.0486 14.2667 14.0531 14.06 12.6316C14.0548 12.5802 14.068 12.5288 14.0973 12.4861C14.1266 12.4434 14.1701 12.4123 14.2202 12.3982L15.2589 12.1568C15.2643 12.1564 15.2698 12.1564 15.2753 12.1568C15.3024 12.1527 15.33 12.154 15.3566 12.1605C15.3832 12.1671 15.4082 12.1788 15.4302 12.1949C15.4522 12.2111 15.4708 12.2314 15.4848 12.2547C15.4988 12.278 15.508 12.3038 15.5119 12.3307C15.5583 12.7158 15.7485 13.0698 16.0451 13.3233C16.3416 13.5768 16.7232 13.7115 17.115 13.7009C18.3566 13.7009 18.9355 13.0703 18.9355 11.7523V11.2406C18.7077 11.4933 18.4265 11.6933 18.1119 11.8266C17.7973 11.9598 17.457 12.023 17.115 12.0118C15.3481 12.0118 14.0664 10.6541 14.0664 8.78574C14.0507 7.94573 14.3497 7.12969 14.9057 6.49483ZM35.5228 5.46694H35.5784C37.4781 5.49216 38.6551 6.80113 38.6551 8.89565C38.655 9.00669 38.6489 9.11766 38.6369 9.22807C38.6309 9.27752 38.6069 9.32312 38.5694 9.35629C38.5318 9.38947 38.4833 9.40794 38.433 9.40824H33.9189C33.9325 9.8594 34.1248 10.2872 34.4544 10.5992C34.7839 10.9112 35.2243 11.0823 35.6803 11.0758C36.0375 11.0978 36.3916 10.9995 36.6851 10.7968C36.9785 10.5941 37.1939 10.299 37.2961 9.95958C37.3148 9.9098 37.3523 9.86914 37.4006 9.84612C37.449 9.82311 37.5045 9.81954 37.5555 9.83616L38.4567 10.1506C38.4828 10.1588 38.5069 10.1724 38.5273 10.1906C38.5478 10.2088 38.564 10.2311 38.575 10.256C38.5871 10.2799 38.5943 10.3061 38.5962 10.3328C38.5981 10.3596 38.5946 10.3864 38.5859 10.4118C38.3821 11.0093 37.9897 11.5262 37.4666 11.8863C36.9435 12.2464 36.3172 12.4306 35.6803 12.4117C35.2557 12.4158 34.8346 12.3365 34.4411 12.1784C34.0477 12.0204 33.6898 11.7868 33.3882 11.4911C33.0596 11.1485 32.8034 10.7445 32.6346 10.3027C32.4657 9.86089 32.3877 9.39019 32.4051 8.91817C32.4051 6.75608 33.9926 5.46153 35.5265 5.46153L35.5228 5.46694ZM9.97284 5.46694C11.9063 5.46694 13.1079 6.78131 13.1079 8.89655C13.1077 9.0076 13.1016 9.11856 13.0897 9.22897C13.0841 9.27858 13.0602 9.3244 13.0225 9.35765C12.9849 9.39089 12.9362 9.40923 12.8858 9.40914H8.36982C8.3834 9.86125 8.5765 10.2898 8.90724 10.602C9.23799 10.9141 9.67973 11.0847 10.1367 11.0767C10.494 11.0991 10.8485 11.0009 11.1421 10.7982C11.4358 10.5955 11.6513 10.3001 11.7534 9.96048C11.7717 9.91041 11.8091 9.86946 11.8576 9.84639C11.9061 9.82331 11.9618 9.81997 12.0128 9.83706L12.9149 10.1515C12.9408 10.16 12.9646 10.1738 12.9848 10.1919C13.005 10.2101 13.0212 10.2322 13.0323 10.2569C13.0427 10.2816 13.048 10.308 13.048 10.3348C13.048 10.3615 13.0427 10.388 13.0323 10.4127C12.8285 11.0098 12.4363 11.5264 11.9136 11.8865C11.3908 12.2465 10.7651 12.4309 10.1285 12.4126C9.7033 12.4172 9.28143 12.3381 8.88734 12.1801C8.49326 12.0221 8.1348 11.7881 7.83275 11.492C7.50467 11.1497 7.24871 10.7463 7.07977 10.3052C6.91082 9.8641 6.83228 9.39412 6.84872 8.92267C6.84872 6.76059 8.43627 5.46604 9.97101 5.46604L9.97284 5.46694ZM3.13202 5.46694C4.00043 5.46694 4.70226 5.67504 5.22568 6.08674C5.5759 6.3632 5.83587 6.73581 5.97303 7.15787C5.97749 7.1758 5.97832 7.19442 5.97547 7.21267C5.97262 7.23092 5.96613 7.24842 5.9564 7.26417C5.94666 7.27992 5.93387 7.29361 5.91875 7.30443C5.90364 7.31526 5.8865 7.32301 5.86834 7.32723L4.78965 7.68128C4.74187 7.69929 4.68906 7.69929 4.64127 7.68128C4.62096 7.67199 4.60289 7.6585 4.58828 7.64172C4.57368 7.62493 4.56288 7.60524 4.55662 7.58398C4.46559 7.23895 4.15245 6.65969 3.13293 6.65969C2.4229 6.65969 1.99688 7.06328 1.99688 7.45426C1.99688 7.71371 2.13161 8.04793 2.77336 8.16865L3.95674 8.38846C5.27939 8.65241 6.03675 9.3686 6.03675 10.3659V10.3488C6.03675 11.3397 5.07366 12.3982 3.28403 12.3982C1.20493 12.3982 0.390225 11.2325 0.238207 10.5505C0.233234 10.5147 0.241697 10.4784 0.261995 10.4483C0.282293 10.4183 0.313017 10.3966 0.348352 10.3875L1.4589 10.0452C1.47877 10.0416 1.49912 10.0416 1.51898 10.0452C1.55069 10.0446 1.58202 10.052 1.61001 10.0668C1.63005 10.0765 1.64774 10.0904 1.66187 10.1075C1.67601 10.1246 1.68626 10.1445 1.69194 10.1659C1.83212 10.8253 2.43382 11.2181 3.29951 11.2181C4.10511 11.2181 4.47196 10.801 4.47196 10.4226C4.47196 10.0443 4.14517 9.76589 3.58352 9.65418L2.34006 9.41455C1.17854 9.19744 0.454856 8.48305 0.454856 7.55335C0.454856 6.42186 1.68284 5.46694 3.13202 5.46694ZM48.8795 3.63367C48.9359 3.63732 48.9888 3.66206 49.0275 3.70287C49.0662 3.74368 49.0878 3.79751 49.0879 3.85348V5.65522H50.2549C50.3112 5.65909 50.3639 5.68392 50.4024 5.72471C50.4409 5.7655 50.4624 5.81921 50.4625 5.87503V6.83536C50.4627 6.89016 50.441 6.94282 50.4021 6.98182C50.3632 7.02082 50.3103 7.04298 50.2549 7.04346H49.0879V10.2497C49.0879 10.7812 49.3009 11.001 49.8489 11.001C49.9739 10.9989 50.0986 10.9887 50.2222 10.9704C50.2521 10.9653 50.2827 10.9668 50.312 10.9747C50.3412 10.9827 50.3684 10.9969 50.3915 11.0163C50.4354 11.0578 50.4609 11.1148 50.4625 11.1748V12.0757C50.4628 12.1206 50.4484 12.1643 50.4215 12.2003C50.3946 12.2364 50.3566 12.2628 50.3132 12.2757C50.0466 12.3497 49.7707 12.3852 49.4939 12.3811C48.3233 12.3811 47.5978 11.6361 47.5978 10.4343V7.05697H46.5874C46.5327 7.0537 46.4812 7.03055 46.4427 6.99198C46.4042 6.9534 46.3815 6.90211 46.3789 6.84797V5.88584C46.3786 5.82975 46.4 5.77567 46.4388 5.73477C46.4776 5.69387 46.5308 5.66926 46.5874 5.66603H46.845C47.1627 5.66603 47.6979 5.55612 47.6979 4.8066V3.85348C47.6976 3.79739 47.719 3.74331 47.7578 3.70241C47.7966 3.6615 47.8498 3.6369 47.9064 3.63367H48.8795ZM26.9588 6.54077C27.1874 6.1953 27.5029 5.91464 27.8743 5.72636C28.2457 5.53809 28.6602 5.44869 29.0771 5.46694C30.2313 5.46694 31.3974 6.27141 31.3974 8.02901V12.0973C31.3946 12.1516 31.3717 12.2029 31.333 12.2414C31.2944 12.28 31.2428 12.3031 31.188 12.3063H30.123C30.0682 12.3031 30.0166 12.28 29.978 12.2414C29.9393 12.2029 29.9164 12.1516 29.9136 12.0973V8.15964C29.9136 7.66146 29.7561 6.81824 28.6911 6.81824C27.9119 6.81824 27.3584 7.42453 27.3584 8.30378V12.0973C27.3558 12.1515 27.3331 12.2028 27.2947 12.2413C27.2562 12.2799 27.2047 12.3031 27.15 12.3063H26.0731C26.0185 12.3029 25.9671 12.2797 25.9287 12.2411C25.8902 12.2026 25.8674 12.1514 25.8647 12.0973V8.15964C25.8647 7.66146 25.7072 6.82185 24.6412 6.82185C23.8311 6.82185 23.2849 7.42363 23.2849 8.31999V12.0973C23.2821 12.1514 23.2593 12.2026 23.2209 12.2411C23.1825 12.2797 23.131 12.3029 23.0764 12.3063H22.0123C21.9581 12.3026 21.9071 12.2793 21.8691 12.2407C21.8312 12.2022 21.8089 12.1511 21.8066 12.0973V5.86152C21.8091 5.80781 21.8314 5.75688 21.8694 5.71837C21.9073 5.67985 21.9581 5.65642 22.0123 5.65252H23.0364C23.091 5.65598 23.1424 5.67919 23.1808 5.71773C23.2193 5.75627 23.2421 5.80744 23.2448 5.86152V6.23718C23.4727 5.99055 23.7506 5.79441 24.0605 5.66166C24.3703 5.52891 24.7051 5.46255 25.0427 5.46694C25.4307 5.4555 25.8145 5.54955 26.1524 5.73887C26.4902 5.9282 26.7691 6.20555 26.9588 6.54077ZM43.1729 5.46694C43.5132 5.45253 43.8524 5.51488 44.1648 5.64925C44.4772 5.78362 44.7546 5.98651 44.9762 6.24259C45.3892 6.78076 45.5995 7.44477 45.5706 8.12V12.0973C45.5681 12.151 45.5457 12.202 45.5078 12.2405C45.4699 12.279 45.419 12.3024 45.3649 12.3063H44.288C44.2333 12.3029 44.1818 12.2797 44.1432 12.2412C44.1046 12.2027 44.0816 12.1515 44.0786 12.0973V8.33351C44.0786 7.34885 43.6107 6.84797 42.7223 6.84797C42.5288 6.8418 42.3365 6.88074 42.161 6.96164C41.9855 7.04255 41.8316 7.16315 41.7119 7.31372C41.4717 7.65685 41.3504 8.06774 41.366 8.48485V12.0973C41.3632 12.1514 41.3404 12.2026 41.302 12.2411C41.2635 12.2797 41.2121 12.3029 41.1575 12.3063H40.0825C40.0279 12.3029 39.9764 12.2797 39.938 12.2411C39.8996 12.2026 39.8768 12.1514 39.874 12.0973V5.85701C39.8762 5.80265 39.8987 5.75103 39.9373 5.71222C39.9758 5.67342 40.0276 5.6502 40.0825 5.64711H41.1329C41.1871 5.65079 41.2381 5.67399 41.2762 5.71234C41.3142 5.75069 41.3368 5.80152 41.3396 5.85521V6.29484C41.5622 6.02891 41.8428 5.81629 42.1603 5.67292C42.4778 5.52954 42.824 5.45912 43.1729 5.46694ZM17.2988 6.86148C16.2511 6.86148 15.5857 7.5993 15.5857 8.78574C15.5857 9.97219 16.2429 10.7091 17.2988 10.7091C18.3074 10.7091 18.9865 9.93525 18.9865 8.78574C18.9865 7.63623 18.3074 6.86148 17.2988 6.86148ZM9.98376 6.80203C9.59714 6.79587 9.22209 6.93259 8.93189 7.18547C8.64169 7.43835 8.45718 7.78923 8.41442 8.16955H11.5731C11.4957 7.32543 10.8886 6.80203 9.98376 6.80203ZM35.5401 6.80203C35.1535 6.79587 34.7785 6.93259 34.4883 7.18547C34.198 7.43835 34.0135 7.78923 33.9708 8.16955H37.1304C37.0521 7.32543 36.4459 6.80203 35.5401 6.80203Z" fill="#7A7A7A"/>
<path d="M2.0326 1.46128V3.5937H1.42845V1.46128H0.593262V0.944214H2.87237V1.46128H2.0326Z" fill="#7A7A7A"/>
<path d="M6.64881 3.60287H6.02082L5.44875 1.65013L4.86293 3.60287H4.2441L3.46484 0.944214H4.10659L4.60073 2.85936L5.15813 0.944214H5.79988L6.34994 2.85936L6.8285 0.944214H7.4189L6.64881 3.60287Z" fill="#7A7A7A"/>
<path d="M8.24854 3.5937V0.944214H8.84352V3.5937H8.24854Z" fill="#7A7A7A"/>
<path d="M9.91455 3.5937V0.944214H10.5187V3.07205H11.5528V3.5937H9.91455Z" fill="#7A7A7A"/>
<path d="M12.4541 3.5937V0.944214H13.0491V3.5937H12.4541Z" fill="#7A7A7A"/>
<path d="M15.2929 3.64455C14.564 3.64455 13.9736 3.11832 13.9736 2.27397C13.9736 1.42962 14.5686 0.898804 15.2984 0.898804C16.0281 0.898804 16.6176 1.42503 16.6176 2.27397C16.6176 3.12291 16.0272 3.64455 15.2929 3.64455ZM15.2984 1.38378C14.84 1.38378 14.5732 1.76149 14.5732 2.26939C14.5732 2.77728 14.8482 3.15958 15.2984 3.15958C15.7485 3.15958 16.0135 2.7727 16.0135 2.27397C16.0135 1.77524 15.7412 1.38378 15.2984 1.38378Z" fill="#7A7A7A"/>
</g>
<defs>
<clipPath id="clip0_438_8434">
<rect width="50.5772" height="14.6111" fill="white" transform="translate(0.236816 0.892578)"/>
</clipPath>
</defs>
</svg>
