<svg width="53" height="13" viewBox="0 0 53 13" fill="none" xmlns="http://www.w3.org/2000/svg">
<path fill-rule="evenodd" clip-rule="evenodd" d="M20.7741 4.73199C22.4566 4.73199 23.4349 5.7828 23.4349 7.29717L23.4238 8.22957C23.423 8.24128 23.4176 8.2523 23.4089 8.26026C23.4002 8.26827 23.3888 8.27272 23.3769 8.27272H19.3872C19.3872 9.34795 19.9319 9.98409 20.9794 9.98409C21.611 9.98409 22.008 9.79805 22.4493 9.37481C22.4581 9.36661 22.4696 9.3621 22.4817 9.3621C22.4937 9.3621 22.5052 9.36661 22.514 9.37481L23.2736 10.0459C23.2782 10.05 23.2819 10.0549 23.2845 10.0604C23.2871 10.0659 23.2886 10.0718 23.2889 10.0779C23.2892 10.084 23.2882 10.09 23.2861 10.0957C23.2839 10.1014 23.2807 10.1067 23.2765 10.1111C22.9801 10.4275 22.6204 10.679 22.2204 10.8493C21.8204 11.0197 21.389 11.1053 20.9538 11.1005C19.3515 11.1005 18.1129 10.288 18.1129 7.90358V7.82881C18.1162 7.20462 18.1969 6.66341 18.3968 6.21612C18.8242 5.2593 19.6914 4.73199 20.7741 4.73199ZM22.2122 7.23437L22.2108 7.13368C22.1987 6.84507 22.162 6.70511 22.0388 6.49133C21.8418 6.13803 21.4 5.89595 20.8104 5.89595C20.2212 5.89595 19.7663 6.13803 19.5693 6.49133C19.4461 6.70511 19.4215 6.84463 19.4099 7.13368V7.23437H22.2122ZM33.2623 4.73199C34.9453 4.73199 35.9231 5.7828 35.9231 7.29717L35.913 8.22957C35.9121 8.24134 35.9067 8.25243 35.898 8.26044C35.8891 8.26846 35.8776 8.27284 35.8657 8.27272H31.8765C31.8765 9.34795 32.4207 9.98409 33.4685 9.98409C34.0997 9.98409 34.4971 9.79805 34.938 9.37481C34.9468 9.36648 34.9585 9.36185 34.9706 9.36185C34.9827 9.36185 34.9944 9.36648 35.0032 9.37481L35.7623 10.0459C35.7669 10.05 35.7706 10.0549 35.7732 10.0604C35.7759 10.0659 35.7774 10.0718 35.7776 10.0779C35.7779 10.084 35.7769 10.09 35.7748 10.0957C35.7727 10.1014 35.7694 10.1067 35.7652 10.1111C35.4688 10.4274 35.1092 10.6789 34.7093 10.8492C34.3095 11.0196 33.8781 11.1052 33.443 11.1005C31.8407 11.1005 30.6016 10.288 30.6016 7.90358V7.82881C30.605 7.20462 30.6861 6.66341 30.8855 6.21612C31.3129 5.2593 32.1797 4.73199 33.2623 4.73199ZM34.6999 7.23437V7.13368C34.6884 6.84507 34.6512 6.70511 34.5281 6.49133C34.3315 6.13803 33.8892 5.89595 33.2995 5.89595C32.7104 5.89595 32.2555 6.13803 32.0585 6.49133C31.9358 6.70511 31.9117 6.84463 31.8991 7.13368V7.23437H34.6999ZM12.5078 4.85184C12.5076 4.84564 12.5086 4.8395 12.5109 4.83374C12.5132 4.82798 12.5165 4.82272 12.5209 4.81828C12.5254 4.8137 12.5307 4.81007 12.5366 4.80763C12.5425 4.80513 12.5488 4.80387 12.5552 4.80387H17.5411C17.558 4.80387 17.574 4.81251 17.5822 4.82736C17.5862 4.83449 17.5883 4.84257 17.5881 4.85078C17.5879 4.85898 17.5855 4.86693 17.5812 4.87388L14.4786 9.8968H17.5286C17.5546 9.8968 17.5754 9.91747 17.5754 9.94283V10.9812C17.5754 10.9932 17.5706 11.0052 17.5619 11.0133C17.5574 11.0177 17.5522 11.0213 17.5464 11.0236C17.5406 11.026 17.5344 11.0273 17.5281 11.0272H12.3997C12.3913 11.0272 12.3831 11.025 12.3759 11.0208C12.3686 11.0166 12.3627 11.0105 12.3587 11.0032C12.3546 10.9962 12.3525 10.9883 12.3526 10.9802C12.3527 10.9721 12.3549 10.9641 12.3591 10.9572L15.4758 5.93621H12.5552C12.5489 5.93628 12.5427 5.93515 12.5369 5.93283C12.5311 5.93051 12.5259 5.92713 12.5214 5.92275C12.517 5.91849 12.5137 5.91342 12.5113 5.90785C12.509 5.90221 12.5078 5.8962 12.5078 5.89019V4.85184ZM45.9621 3.20277C45.9683 3.20258 45.9744 3.20364 45.9803 3.20584C45.986 3.20809 45.9912 3.21147 45.9957 3.21573C46.0001 3.22005 46.0036 3.22519 46.0059 3.23088C46.0083 3.23652 46.0095 3.24266 46.0094 3.24879V4.80632H47.2534C47.2795 4.80632 47.3002 4.82642 47.3002 4.85184V5.89113C47.3002 5.8972 47.299 5.90321 47.2966 5.90885C47.2943 5.91448 47.2908 5.91956 47.2865 5.92381C47.2821 5.92814 47.277 5.93152 47.2713 5.93377C47.2656 5.93609 47.2595 5.93722 47.2534 5.93715H46.0094V8.8537C46.0094 9.57275 46.3219 9.88822 46.941 9.91603C47.0033 9.91935 47.066 9.91935 47.1283 9.91603C47.1407 9.91546 47.1529 9.91972 47.1621 9.92799C47.1718 9.93613 47.1771 9.94715 47.178 9.95961V11.0219C47.178 11.0339 47.1734 11.0454 47.165 11.054C47.1566 11.0626 47.1452 11.0676 47.1331 11.068C47.0704 11.0713 47.0008 11.0713 46.8879 11.0713C45.7892 11.0713 44.7858 10.5421 44.7858 9.19121V5.93665H43.9489C43.9428 5.93671 43.9367 5.93559 43.931 5.93333C43.9254 5.93102 43.9202 5.92763 43.9158 5.92338C43.9115 5.91906 43.908 5.91398 43.9056 5.90835C43.9033 5.90277 43.9021 5.89676 43.9021 5.89063V4.85134C43.9021 4.82598 43.9229 4.80581 43.9489 4.80581H44.7858V3.24829C44.7858 3.22293 44.807 3.20227 44.8326 3.20227H45.9626L45.9621 3.20277ZM52.0592 7.89062C52.5228 8.20991 52.7382 8.64849 52.7049 9.28752C52.6401 10.5224 51.487 11.1015 50.2677 11.1015C49.3153 11.1015 48.3843 10.7396 47.8343 10.1332C47.8263 10.124 47.8223 10.1122 47.8231 10.1001C47.8239 10.0881 47.8295 10.0769 47.8387 10.0689L48.5891 9.40499C48.5982 9.39698 48.61 9.39278 48.6222 9.39322C48.6343 9.39372 48.6458 9.39873 48.6543 9.40737C49.072 9.82492 49.5892 10.033 50.1884 10.033C50.7066 10.033 51.4758 9.8412 51.4908 9.21801C51.5073 8.57805 50.6632 8.5426 50.188 8.4587C49.4911 8.33596 48.7823 8.19889 48.3298 7.71566C48.1734 7.55122 48.0564 7.35397 47.9874 7.1385C47.8932 6.82327 47.8803 6.48958 47.9502 6.16822C48.0085 5.89219 48.1383 5.63608 48.3268 5.42518C48.5209 5.21666 48.7584 5.0526 49.0227 4.94433C49.4031 4.79724 49.8087 4.72491 50.2169 4.73149C50.5249 4.73324 50.8314 4.77363 51.1291 4.85184C51.3976 4.92855 51.6536 5.04264 51.8882 5.19073C52.0857 5.31685 52.2601 5.47409 52.405 5.65574C52.4088 5.66019 52.4117 5.66539 52.4135 5.67096C52.4153 5.67653 52.4159 5.68242 52.4153 5.68824C52.4147 5.69407 52.4129 5.69976 52.4101 5.70484C52.4072 5.70997 52.4033 5.71448 52.3987 5.71805L51.6318 6.3964C51.6275 6.40072 51.6222 6.4041 51.6165 6.40636C51.6108 6.40855 51.6046 6.40961 51.5984 6.40936C51.5923 6.40917 51.5862 6.40767 51.5807 6.40504C51.5751 6.40241 51.5702 6.39865 51.5661 6.39402C51.2402 6.04692 50.782 5.91317 50.4188 5.88249C50.1039 5.85569 49.7698 5.86621 49.4505 6.03108C49.3514 6.07999 49.2679 6.1555 49.2096 6.24899C49.1514 6.34255 49.1205 6.45038 49.1207 6.56034C49.1106 6.9539 49.2357 7.1447 50.2556 7.31584C51.0249 7.44527 51.6405 7.60395 52.0592 7.89062ZM42.3075 3.62895C41.8299 3.62895 41.4431 3.24973 41.4431 2.78235C41.4431 2.31496 41.8299 1.93577 42.3075 1.93577C42.7851 1.93577 43.1719 2.31448 43.1719 2.78235C43.1719 3.24973 42.7851 3.62895 42.3075 3.62895ZM38.7582 4.80632H42.8706C42.8967 4.80632 42.9174 4.82642 42.9174 4.85184V10.9841C42.9174 10.9901 42.9163 10.9961 42.9139 11.0018C42.9115 11.0074 42.9081 11.0125 42.9037 11.0168C42.8993 11.0211 42.8941 11.0244 42.8885 11.0267C42.8828 11.029 42.8767 11.0301 42.8706 11.0301H41.7416C41.7293 11.03 41.7175 11.0252 41.7088 11.0167C41.7043 11.0124 41.7008 11.0074 41.6984 11.0018C41.696 10.9961 41.6947 10.9901 41.6947 10.9841V5.93715H38.7553V10.9841C38.7551 10.9963 38.7501 11.0079 38.7413 11.0165C38.7326 11.0251 38.7208 11.03 38.7085 11.0301H37.5785C37.5662 11.03 37.5544 11.0252 37.5457 11.0167C37.5413 11.0124 37.5378 11.0074 37.5353 11.0018C37.533 10.9961 37.5317 10.9901 37.5316 10.9841V5.93521H36.5871C36.581 5.93527 36.5749 5.93415 36.5692 5.93189C36.5636 5.92958 36.5584 5.92619 36.554 5.92194C36.5497 5.91762 36.5462 5.91254 36.5438 5.90691C36.5415 5.90133 36.5403 5.89532 36.5403 5.88919V4.8499C36.541 4.83806 36.5463 4.82698 36.555 4.8189C36.5637 4.81076 36.5752 4.80625 36.5871 4.80632H37.5316V3.83747C37.5316 2.58341 38.4125 1.90077 39.6511 1.90077H39.7651C40.0295 1.90186 40.2932 1.92641 40.5532 1.97411C40.5636 1.97585 40.5731 1.98108 40.5801 1.98893C40.5872 1.99678 40.5913 2.00678 40.5918 2.01726V3.04935C40.592 3.05593 40.5906 3.0625 40.5879 3.06845C40.5851 3.07446 40.581 3.07972 40.5759 3.08385C40.5708 3.08811 40.5648 3.09118 40.5583 3.09281C40.5519 3.0945 40.5452 3.09469 40.5387 3.0935C40.2754 3.061 40.0101 3.04628 39.7448 3.04935C39.2406 3.05943 38.7959 3.30634 38.7592 3.94581V4.80632H38.7582ZM28.8598 5.29287C29.433 5.8106 29.6194 6.47549 29.6194 7.15622V10.9788C29.6194 10.9849 29.6182 10.9909 29.6158 10.9965C29.6135 11.0022 29.61 11.0072 29.6056 11.0115C29.6013 11.0158 29.5961 11.0192 29.5904 11.0214C29.5847 11.0238 29.5787 11.0249 29.5725 11.0248H28.4431C28.4369 11.0249 28.4308 11.0238 28.4251 11.0214C28.4194 11.0192 28.4143 11.0158 28.4099 11.0115C28.4056 11.0072 28.4021 11.0022 28.3998 10.9965C28.3974 10.9909 28.3962 10.9849 28.3962 10.9788V7.15478C28.3962 6.54694 27.9824 6.07523 27.3864 5.97886C27.0137 5.91799 26.4602 5.94241 26.1357 6.14041C25.8697 6.30341 25.6224 6.59152 25.6224 6.91507V10.9812C25.6225 10.9872 25.6213 10.9932 25.6189 10.9987C25.6164 11.0043 25.6129 11.0092 25.6084 11.0133C25.5996 11.0221 25.5876 11.0271 25.5751 11.0272H24.4451C24.439 11.0273 24.4329 11.0261 24.4272 11.0238C24.4215 11.0216 24.4164 11.0182 24.412 11.0139C24.4076 11.0096 24.4042 11.0045 24.4019 10.9989C24.3995 10.9933 24.3983 10.9873 24.3983 10.9812V4.85184C24.3983 4.82642 24.4195 4.80632 24.4451 4.80632H25.5756C25.6017 4.80632 25.6224 4.82642 25.6224 4.85184V5.30389L25.6794 5.25354C25.7576 5.18641 25.8402 5.12411 25.9266 5.06756C26.3347 4.80293 26.75 4.73249 27.2334 4.73249C27.9268 4.73249 28.458 4.92855 28.8598 5.29287ZM8.59446 2.94486V4.21281L0.555176 8.32256V7.06511L3.75726 5.42756L0.555176 4.64094V3.48944L5.27596 4.65096L7.08684 3.72482L0.555176 2.11937V0.967896L8.59446 2.94486ZM0.555176 10.975V9.70607L8.59446 5.59632V6.85615L5.39281 8.4932L8.59446 9.28032V10.4309L3.87267 9.2698L2.06179 10.1959L8.59446 11.8019V12.9524L0.555176 10.975Z" fill="#7A7A7A"/>
</svg>
