<svg width="60" height="15" viewBox="0 0 60 15" fill="none" xmlns="http://www.w3.org/2000/svg">
<path d="M13.438 0.00756836H2.45878C1.44823 0.00756836 0.628906 0.826894 0.628906 1.83744V12.8167C0.628906 13.8272 1.44823 14.6466 2.45878 14.6466H13.438C14.4486 14.6466 15.2679 13.8272 15.2679 12.8167V1.83744C15.2679 0.826894 14.4486 0.00756836 13.438 0.00756836ZM9.89996 2.69154C9.89996 2.42209 10.1186 2.20342 10.3881 2.20342C10.6575 2.20342 10.8762 2.42209 10.8762 2.69154V9.21092C10.8762 9.48036 10.6575 9.69904 10.3881 9.69904C10.1186 9.69904 9.89996 9.48036 9.89996 9.21092V2.69154ZM7.46028 2.4445C7.46028 2.17505 7.67895 1.95638 7.9484 1.95638C8.21785 1.95638 8.43652 2.17505 8.43652 2.4445V9.52016C8.43652 9.78961 8.21785 10.0083 7.9484 10.0083C7.67895 10.0083 7.46028 9.78961 7.46028 9.52016V2.4445ZM5.0206 2.69154C5.0206 2.42209 5.23927 2.20342 5.50872 2.20342C5.77817 2.20342 5.99638 2.42209 5.99638 2.69154V9.21092C5.99638 9.48036 5.77817 9.69904 5.50872 9.69904C5.23927 9.69904 5.0206 9.48036 5.0206 9.21092V2.69154ZM2.58092 3.66732C2.58092 3.39787 2.79914 3.1792 3.06858 3.1792C3.33803 3.1792 3.5567 3.39787 3.5567 3.66732V8.05627C3.5567 8.32572 3.33803 8.54438 3.06858 8.54438C2.79914 8.54438 2.58092 8.32572 2.58092 8.05627V3.66732ZM13.1457 11.1103C13.0707 11.1753 11.2628 12.6918 7.9484 12.6918C4.63404 12.6918 2.82704 11.1753 2.7511 11.1103C2.54661 10.9351 2.52237 10.6272 2.69804 10.4223C2.87279 10.2183 3.18021 10.194 3.3847 10.3688C3.41306 10.3926 5.02746 11.716 7.94794 11.716C10.905 11.716 12.4943 10.383 12.5098 10.3697C12.7138 10.194 13.0226 10.2178 13.1974 10.4223C13.374 10.6272 13.3502 10.9351 13.1457 11.1103ZM13.3159 8.05627C13.3159 8.32572 13.0972 8.54438 12.8278 8.54438C12.5583 8.54438 12.3401 8.32572 12.3401 8.05627V3.66732C12.3401 3.39787 12.5583 3.1792 12.8278 3.1792C13.0972 3.1792 13.3159 3.39787 13.3159 3.66732V8.05627Z" fill="#7A7A7A"/>
<path d="M21.0748 9.44406C21.0748 9.68834 20.8882 9.88917 20.6224 9.88917C20.3639 9.88917 20.1772 9.68789 20.1772 9.44406V5.20012C20.1772 4.95583 20.3639 4.755 20.6297 4.755C20.8882 4.755 21.0748 4.95629 21.0748 5.20012V9.44406Z" fill="#7A7A7A"/>
<path d="M26.8777 5.19987V9.07783C26.8777 9.60209 26.5977 9.8967 26.1526 9.8967H26.1169C25.6933 9.8967 25.492 9.65241 25.3127 9.29329L24.4078 7.53387L23.6036 5.71726L23.6251 7.47669L23.6324 9.43694C23.6324 9.68123 23.4458 9.88206 23.18 9.88206C22.9215 9.88206 22.7349 9.68077 22.7349 9.43694V5.55898C22.7349 5.07772 23.0148 4.74011 23.5034 4.74011H23.5391C23.9915 4.74011 24.1782 4.9844 24.358 5.34351L25.2482 7.08875L26.0094 8.78368L25.9879 7.16058L25.9806 5.20033C25.9806 4.95604 26.1672 4.75521 26.433 4.75521C26.691 4.75475 26.8777 4.95558 26.8777 5.19987Z" fill="#7A7A7A"/>
<path d="M30.4733 9.43674C30.4733 9.68102 30.2866 9.88185 30.0208 9.88185C29.7624 9.88185 29.5757 9.68057 29.5757 9.43674V5.59492H28.4627C28.233 5.59492 28.0464 5.42245 28.0464 5.1713C28.0464 4.92701 28.233 4.755 28.4627 4.755H31.5863C31.8159 4.755 32.0026 4.92747 32.0026 5.17862C32.0026 5.42291 31.8159 5.59492 31.5863 5.59492H30.4733V9.43674Z" fill="#7A7A7A"/>
<path d="M33.173 9.29352V5.30805C33.173 4.93476 33.3812 4.72661 33.7618 4.74079H36.347C36.5766 4.74079 36.7633 4.92012 36.7633 5.16441C36.7633 5.4087 36.5766 5.5807 36.347 5.5807H34.0633V6.81587H36.0812C36.304 6.81587 36.4833 6.98101 36.4833 7.21798C36.4833 7.45495 36.304 7.6201 36.0812 7.6201H34.0633V9.04191H36.347C36.5766 9.04191 36.7633 9.22124 36.7633 9.46553C36.7633 9.70981 36.5766 9.88182 36.347 9.88182H33.7403C33.367 9.88228 33.1589 9.67413 33.173 9.29352Z" fill="#7A7A7A"/>
<path d="M41.8642 9.30038C41.9863 9.50853 41.9072 9.77432 41.6561 9.90378C41.4118 10.0259 41.146 9.9326 41.0243 9.72445L40.0261 7.87903H39.0782L39.0855 9.44448C39.0855 9.68877 38.8989 9.8896 38.6331 9.8896C38.3746 9.8896 38.188 9.68831 38.188 9.44448V5.30805C38.188 4.93476 38.3961 4.72661 38.7767 4.74079H40.4785C41.6492 4.74079 42.1373 5.50202 42.1373 6.27743C42.1373 7.01715 41.7064 7.56291 40.9667 7.70656L41.8642 9.30038ZM39.0778 7.06702H40.4996C40.9808 7.06702 41.232 6.75823 41.232 6.31997C41.232 5.88172 40.9662 5.58025 40.4923 5.58025H39.0778V7.06702Z" fill="#7A7A7A"/>
<path d="M43.9893 9.50017C43.4508 9.01891 43.2065 8.26501 43.2065 7.31713C43.2065 6.36194 43.4435 5.61535 43.9751 5.14141C44.3054 4.85412 44.7505 4.66016 45.3969 4.66016C45.9642 4.66016 46.4024 4.78962 46.7327 5.06959C47.02 5.29924 47.2281 5.62267 47.3503 6.07511C47.4148 6.31207 47.2496 6.54904 46.977 6.59936C46.7185 6.64237 46.5104 6.47722 46.4312 6.24025C46.3452 6.0106 46.23 5.84546 46.0936 5.73017C45.907 5.56503 45.6773 5.49321 45.3754 5.49321C45.0524 5.49321 44.772 5.58653 44.5639 5.79468C44.2624 6.09615 44.1329 6.63505 44.1329 7.31713C44.1329 7.99236 44.2551 8.5308 44.5712 8.83227C44.7793 9.04042 45.0524 9.13374 45.3681 9.13374C45.6984 9.13374 45.9495 9.04773 46.1581 8.85377C46.2656 8.75313 46.3594 8.62412 46.4239 8.47315C46.5172 8.25037 46.7112 8.08522 46.9624 8.14286C47.2135 8.2005 47.3718 8.44433 47.2927 8.6813C47.1632 9.0761 46.9409 9.39221 46.6394 9.60768C46.3091 9.84464 45.8997 9.96679 45.3827 9.96679C44.7221 9.96679 44.3054 9.77282 43.9893 9.50017Z" fill="#7A7A7A"/>
<path d="M48.3613 7.31713C48.3613 5.70867 49.0219 4.66016 50.5805 4.66016C52.1245 4.66016 52.7924 5.67985 52.7924 7.31713C52.7924 8.97591 52.1171 9.97411 50.5805 9.97411C49.0151 9.97411 48.3613 8.97591 48.3613 7.31713ZM51.8729 7.31713C51.8729 6.09615 51.4277 5.50053 50.5732 5.50053C49.7328 5.50053 49.2877 6.09661 49.2877 7.31713C49.2877 8.53812 49.7186 9.13374 50.5732 9.13374C51.4204 9.13374 51.8729 8.53766 51.8729 7.31713Z" fill="#7A7A7A"/>
<path d="M59.7584 9.43674C59.7584 9.68102 59.5717 9.88185 59.306 9.88185C59.0475 9.88185 58.8608 9.68057 58.8608 9.43674V7.51217L58.8823 5.63792L58.2574 7.54099L57.6257 9.41524C57.5182 9.74553 57.2954 9.87499 57.0154 9.87499C56.7208 9.87499 56.5053 9.73867 56.3905 9.40837L55.7441 7.54144L55.148 5.6672L55.1695 7.51262V9.43719C55.1695 9.68148 54.9829 9.88231 54.7171 9.88231C54.4586 9.88231 54.272 9.68102 54.272 9.43719V5.59537C54.272 5.0638 54.5593 4.755 55.062 4.755C55.536 4.755 55.8017 5.00616 55.9523 5.46591L56.6128 7.42616L57.015 8.76197L57.4244 7.42616L58.085 5.46591C58.2359 5.00616 58.4944 4.755 58.9683 4.755C59.4711 4.755 59.7511 5.05648 59.7511 5.59537L59.7584 9.43674Z" fill="#7A7A7A"/>
</svg>
