<svg width="21" height="16" viewBox="0 0 21 16" fill="none" xmlns="http://www.w3.org/2000/svg">
<path d="M9.24293 3.41108C8.56715 3.89711 7.89486 4.38929 7.22141 4.87941C6.80859 5.18147 6.41111 5.50328 5.9736 5.76919C5.85346 5.84181 5.70775 5.8815 5.61509 5.99274L5.61714 5.99157C5.49203 6.06974 5.35742 6.1384 5.24093 6.2293C4.79693 6.56951 4.31037 6.89463 3.90293 7.24656C3.88683 7.26118 3.85318 7.26408 3.82889 7.28337C3.71079 7.37383 3.30175 7.70632 3.02751 7.90623C2.39591 8.36976 1.77265 8.84076 1.22171 9.40762C1.13521 9.49634 -0.167031 10.6168 0.0643094 10.9151C0.304271 11.2263 1.69222 10.3299 1.85145 10.1901C2.24163 9.85076 2.59922 9.46617 3.04901 9.21226C3.70732 8.84074 4.27166 8.34499 4.88159 7.91011C5.42948 7.51877 5.95457 7.09699 6.50319 6.70932C7.01932 6.3456 7.57519 6.03253 8.07598 5.64906C8.50886 5.31791 8.8843 4.91227 9.29833 4.55522C9.39566 4.47118 9.56155 4.43355 9.66912 4.34367C9.75853 4.26957 9.91205 4.15076 9.98496 4.05486C10.017 4.01349 10.0467 3.96802 10.0933 3.94962C10.3099 3.86537 11.6982 2.69587 11.4119 2.33923C11.1335 1.99165 9.83033 2.98905 9.24293 3.41108Z" fill="#F8FCED"/>
<path d="M11.8155 5.40391C11.5223 5.76806 11.2334 6.13515 10.9462 6.50267C10.7689 6.72737 10.6131 6.96831 10.4012 7.16797C10.3429 7.22292 10.2521 7.25168 10.2308 7.33577L10.2313 7.33416C10.1721 7.39233 10.1026 7.44421 10.053 7.5119C9.86941 7.76599 9.64882 8.00996 9.4974 8.27285C9.4911 8.28323 9.46799 8.28555 9.45716 8.29988C9.40914 8.36801 9.24793 8.61612 9.13096 8.76567C8.8616 9.11214 8.60101 9.46447 8.43837 9.88853C8.41346 9.95434 7.93021 10.7921 8.234 11.0152C8.55096 11.2471 9.19762 10.5768 9.25576 10.4717C9.39927 10.2187 9.49863 9.93123 9.72372 9.74035C10.0539 9.46237 10.2602 9.09348 10.5259 8.76675C10.765 8.47423 10.9721 8.15917 11.214 7.86913C11.4409 7.59577 11.7191 7.36236 11.9273 7.07524C12.1054 6.82831 12.2092 6.52473 12.3619 6.25702C12.3981 6.19429 12.5059 6.16672 12.5471 6.09844C12.5815 6.04215 12.6437 5.9537 12.6562 5.88277C12.6613 5.85133 12.6637 5.81739 12.6915 5.80425C12.8175 5.74188 13.3436 4.8674 12.9703 4.60109C12.607 4.34269 12.0692 5.08946 11.8155 5.40391Z" fill="#F8FCED"/>
<path d="M13.9938 7.87585C13.8301 8.16476 13.6696 8.45456 13.5107 8.74479C13.4133 8.9239 13.3376 9.11239 13.2026 9.27085C13.1648 9.31412 13.0907 9.33879 13.0953 9.40403L13.0957 9.40242C13.0571 9.44891 13.0092 9.49115 12.9846 9.5432C12.8884 9.74338 12.7559 9.93709 12.6927 10.1428C12.6905 10.1509 12.669 10.1537 12.6643 10.1645C12.6393 10.2181 12.5618 10.4131 12.4981 10.5322C12.3488 10.8061 12.212 11.0851 12.1821 11.4158C12.1765 11.4678 11.9723 12.126 12.3105 12.2929C12.6628 12.4653 13.0624 11.9331 13.0865 11.8515C13.1463 11.6518 13.1557 11.4278 13.3079 11.2758C13.5296 11.0529 13.6141 10.7631 13.7642 10.505C13.8999 10.2741 13.9992 10.0247 14.1382 9.79468C14.2679 9.57946 14.4557 9.39222 14.5643 9.16602C14.6576 8.97023 14.6668 8.73416 14.7313 8.52358C14.7465 8.47415 14.8361 8.45022 14.8559 8.39685C14.8714 8.35268 14.9041 8.28382 14.8952 8.22779C14.8912 8.20424 14.8845 8.1782 14.905 8.16651C15.002 8.11523 15.2352 7.42691 14.8224 7.22932C14.4184 7.03759 14.1365 7.62612 13.9938 7.87585Z" fill="#F8FCED"/>
<path d="M18.0059 8.25881C17.9201 8.46528 17.839 8.67307 17.7596 8.88131C17.7107 9.0097 17.6843 9.14424 17.5944 9.25798C17.5702 9.28941 17.5047 9.3078 17.5247 9.35476C17.5001 9.3878 17.4642 9.41776 17.4537 9.45637C17.4109 9.60027 17.333 9.73975 17.3225 9.88557C17.3228 9.89084 17.3029 9.89404 17.3007 9.90209C17.2901 9.94069 17.264 10.0805 17.2322 10.1652C17.1579 10.361 17.0944 10.5615 17.1459 10.7968C17.1532 10.8334 17.1178 11.3044 17.4778 11.4167C17.8519 11.5345 18.1018 11.1516 18.1055 11.0938C18.1131 10.9524 18.0689 10.7916 18.1764 10.6827C18.3329 10.5215 18.3427 10.315 18.4224 10.131C18.4936 9.96549 18.5303 9.78707 18.6047 9.62242C18.6748 9.46699 18.8085 9.33237 18.8561 9.17077C18.8976 9.0317 18.8487 8.86273 18.8601 8.71369C18.8629 8.67815 18.9422 8.66007 18.947 8.62336C18.9522 8.59191 18.9642 8.5416 18.9436 8.50312C18.9343 8.48673 18.9205 8.46742 18.9385 8.45851C19.0178 8.42141 19.0727 7.92984 18.6359 7.79484C18.2032 7.65749 18.0794 8.07837 18.0059 8.25881Z" fill="#F8FCED"/>
</svg>
