<svg width="21" height="16" viewBox="0 0 21 16" fill="none" xmlns="http://www.w3.org/2000/svg">
<path d="M10.8425 12.1929C11.5183 11.7068 12.1906 11.2147 12.864 10.7245C13.2769 10.4225 13.6743 10.1007 14.1119 9.83475C14.232 9.76213 14.3777 9.72245 14.4704 9.6112L14.4683 9.61237C14.5934 9.5342 14.728 9.46555 14.8445 9.37465C15.2885 9.03443 15.7751 8.70932 16.1825 8.35738C16.1986 8.34276 16.2323 8.33986 16.2566 8.32057C16.3747 8.23011 16.7837 7.89762 17.0579 7.69772C17.6895 7.23418 18.3128 6.76318 18.8637 6.19633C18.9502 6.1076 20.2525 4.98719 20.0211 4.6888C19.7812 4.37767 18.3932 5.27409 18.234 5.41381C17.8438 5.75318 17.4862 6.13777 17.0364 6.39168C16.3781 6.7632 15.8138 7.25896 15.2039 7.69384C14.656 8.08517 14.1309 8.50695 13.5823 8.89463C13.0661 9.25834 12.5103 9.57142 12.0095 9.95488C11.5766 10.286 11.2011 10.6917 10.7871 11.0487C10.6898 11.1328 10.5239 11.1704 10.4163 11.2603C10.3269 11.3344 10.1734 11.4532 10.1005 11.5491C10.0684 11.5905 10.0387 11.6359 9.99218 11.6543C9.77551 11.7386 8.38723 12.9081 8.67353 13.2647C8.95193 13.6123 10.2551 12.6149 10.8425 12.1929Z" fill="#F8FCED"/>
<path d="M8.26998 10.2001C8.5632 9.83594 8.85203 9.46885 9.13925 9.10133C9.31653 8.87664 9.47232 8.6357 9.68425 8.43604C9.7425 8.38108 9.83335 8.35232 9.85462 8.26824L9.85418 8.26985C9.91331 8.21167 9.98282 8.15979 10.0325 8.0921C10.216 7.83801 10.4366 7.59404 10.588 7.33116C10.5943 7.32077 10.6175 7.31845 10.6283 7.30412C10.6763 7.23599 10.8375 6.98789 10.9545 6.83834C11.2238 6.49186 11.4844 6.13953 11.6471 5.71547C11.672 5.64967 12.1552 4.81188 11.8514 4.58876C11.5345 4.35686 10.8878 5.02721 10.8297 5.13234C10.6862 5.38528 10.5868 5.67278 10.3617 5.86365C10.0316 6.14163 9.82523 6.51052 9.55953 6.83725C9.32048 7.12977 9.1133 7.44484 8.87148 7.73487C8.64458 8.00824 8.36637 8.24164 8.15818 8.52877C7.98001 8.77569 7.87625 9.07927 7.72351 9.34699C7.68734 9.40971 7.57952 9.43728 7.53838 9.50556C7.50397 9.56185 7.44174 9.6503 7.42926 9.72123C7.42412 9.75268 7.42176 9.78661 7.39396 9.79976C7.26798 9.86213 6.74186 10.7366 7.1151 11.0029C7.4784 11.2613 8.01629 10.5145 8.26998 10.2001Z" fill="#F8FCED"/>
<path d="M6.09163 7.72815C6.25535 7.43924 6.41585 7.14945 6.57475 6.85921C6.67214 6.6801 6.74788 6.49161 6.88285 6.33315C6.92061 6.28988 6.99479 6.26521 6.99015 6.19997L6.98971 6.20158C7.02836 6.15509 7.07621 6.11286 7.10082 6.0608C7.19705 5.86063 7.32956 5.66691 7.39274 5.46116C7.39494 5.45311 7.41644 5.45035 7.42113 5.43953C7.44618 5.38586 7.52368 5.19094 7.58739 5.07178C7.73662 4.79792 7.87342 4.51893 7.90333 4.18824C7.90893 4.13618 8.11312 3.47796 7.77491 3.31114C7.42267 3.13875 7.02301 3.67089 6.99896 3.75249C6.93915 3.95225 6.92979 4.17618 6.77757 4.32819C6.55582 4.5511 6.47138 4.84095 6.32128 5.09901C6.18553 5.32987 6.0862 5.57934 5.94724 5.80932C5.8175 6.02454 5.62971 6.21178 5.52118 6.43799C5.42787 6.63378 5.41865 6.86984 5.35415 7.08043C5.3389 7.12985 5.24937 7.15378 5.22959 7.20716C5.21406 7.25132 5.18139 7.32019 5.19027 7.37621C5.19421 7.39977 5.20092 7.42581 5.18043 7.43749C5.08342 7.48877 4.85025 8.17709 5.26303 8.37468C5.66704 8.56642 5.949 7.97788 6.09163 7.72815Z" fill="#F8FCED"/>
<path d="M2.07955 7.34513C2.1654 7.13866 2.24642 6.93087 2.32584 6.72264C2.37478 6.59425 2.4012 6.4597 2.49108 6.34596C2.51524 6.31453 2.58078 6.29615 2.56077 6.24918C2.58536 6.21614 2.62122 6.18618 2.63178 6.14757C2.67458 6.00368 2.75249 5.86419 2.76298 5.71837C2.76269 5.7131 2.78258 5.7099 2.78478 5.70186C2.79534 5.66325 2.82147 5.52343 2.85326 5.43877C2.92755 5.24296 2.99102 5.04247 2.93955 4.80709C2.93226 4.77052 2.96768 4.29957 2.60765 4.18728C2.23357 4.06943 1.98364 4.45234 1.97994 4.51011C1.97239 4.65155 2.0166 4.81233 1.90902 4.92122C1.75255 5.08245 1.74276 5.28898 1.66307 5.47293C1.59187 5.63845 1.55518 5.81687 1.48077 5.98152C1.4106 6.13695 1.27697 6.27158 1.22932 6.43317C1.18783 6.57224 1.23672 6.74121 1.22536 6.89025C1.22256 6.92579 1.14326 6.94388 1.13841 6.98059C1.13327 7.01203 1.12125 7.06234 1.14185 7.10082C1.1512 7.11721 1.16493 7.13652 1.14693 7.14543C1.06763 7.18253 1.01275 7.6741 1.44956 7.80911C1.88227 7.94645 2.006 7.52558 2.07955 7.34513Z" fill="#F8FCED"/>
</svg>
