<svg width="48" height="49" viewBox="0 0 48 49" fill="none" xmlns="http://www.w3.org/2000/svg">
<rect y="0.5" width="48" height="48" rx="24" fill="white" fill-opacity="0.08"/>
<g clip-path="url(#clip0_264_15280)">
<path d="M36 24.5C36 17.8726 30.6274 12.5 24 12.5C17.3726 12.5 12 17.8726 12 24.5C12 30.4895 16.3882 35.454 22.125 36.3542V27.9688H19.0781V24.5H22.125V21.8563C22.125 18.8488 23.9166 17.1875 26.6576 17.1875C27.9701 17.1875 29.3438 17.4219 29.3438 17.4219V20.375H27.8306C26.34 20.375 25.875 21.3001 25.875 22.25V24.5H29.2031L28.6711 27.9688H25.875V36.3542C31.6118 35.454 36 30.4895 36 24.5Z" fill="white"/>
</g>
<defs>
<clipPath id="clip0_264_15280">
<rect width="24" height="24" fill="white" transform="translate(12 12.5)"/>
</clipPath>
</defs>
</svg>
