<svg width="25" height="25" viewBox="0 0 25 25" fill="none" xmlns="http://www.w3.org/2000/svg">
<g clip-path="url(#clip0_157_2244)">
<path d="M24.1666 12.5C24.1666 5.87258 18.794 0.5 12.1666 0.5C5.5392 0.5 0.166626 5.87258 0.166626 12.5C0.166626 18.4895 4.55483 23.454 10.2916 24.3542V15.9688H7.24475V12.5H10.2916V9.85625C10.2916 6.84875 12.0832 5.1875 14.8242 5.1875C16.1367 5.1875 17.5104 5.42188 17.5104 5.42188V8.375H15.9973C14.5066 8.375 14.0416 9.30008 14.0416 10.25V12.5H17.3698L16.8377 15.9688H14.0416V24.3542C19.7784 23.454 24.1666 18.4895 24.1666 12.5Z" fill="#1877F2"/>
<path d="M16.8377 15.9688L17.3698 12.5H14.0416V10.25C14.0416 9.30102 14.5066 8.375 15.9973 8.375H17.5104V5.42188C17.5104 5.42188 16.1372 5.1875 14.8242 5.1875C12.0832 5.1875 10.2916 6.84875 10.2916 9.85625V12.5H7.24475V15.9688H10.2916V24.3542C11.5341 24.5486 12.7992 24.5486 14.0416 24.3542V15.9688H16.8377Z" fill="white"/>
</g>
<defs>
<clipPath id="clip0_157_2244">
<rect width="24" height="24" fill="white" transform="translate(0.166626 0.5)"/>
</clipPath>
</defs>
</svg>
