<svg width="62" height="62" viewBox="0 0 62 62" fill="none" xmlns="http://www.w3.org/2000/svg">
<rect width="62" height="62" rx="12" fill="white"/>
<path d="M23.8639 29.5984C24.5367 27.0415 27.1171 24.4133 29.6275 23.728L45.2785 19.4561C47.7889 18.7709 49.2786 20.2881 48.6058 22.845L44.4115 38.7859C43.7388 41.3428 41.1583 43.971 38.6479 44.6562L22.9969 48.9282C20.4865 49.6134 18.9968 48.0961 19.6696 45.5392L23.8639 29.5984Z" fill="#9E77ED"/>
<path d="M17.5905 23.2078C18.2632 20.6509 20.8437 18.0226 23.3541 17.3374L39.0051 13.0654C41.5155 12.3802 43.0052 13.8975 42.3324 16.4544L38.1381 32.3952C37.4653 34.9521 34.8849 37.5804 32.3745 38.2656L16.7235 42.5376C14.2131 43.2228 12.7234 41.7055 13.3962 39.1486L17.5905 23.2078Z" fill="#6941C6"/>
</svg>
