<svg width="32" height="31" viewBox="0 0 32 31" fill="none" xmlns="http://www.w3.org/2000/svg">
<path d="M31.3725 12.488H30.1348V12.4249H16.2944V18.5762H24.9901C24.3325 20.4436 23.0923 22.0502 21.4523 23.1592C19.8124 24.2682 17.8594 24.8209 15.8815 24.7357C13.9036 24.6505 12.0054 23.9319 10.4668 22.686C8.92832 21.44 7.83089 19.7327 7.3364 17.8156C6.84191 15.8986 6.97654 13.8735 7.72042 12.0388C8.46431 10.2041 9.77808 8.65703 11.468 7.6257C13.1579 6.59437 15.1345 6.1334 17.1063 6.31074C19.0781 6.48809 20.9407 7.29438 22.4195 8.6107L26.7649 4.26166C24.085 1.77551 20.6055 0.327922 16.953 0.179578C13.3005 0.031234 9.71501 1.19189 6.84231 3.45252C3.96961 5.71314 1.99846 8.92518 1.28385 12.5102C0.569229 16.0952 1.15811 19.8175 2.94443 23.0068C4.73076 26.1962 7.59714 28.6429 11.0274 29.9064C14.4576 31.1699 18.2262 31.1671 21.6546 29.8986C25.0829 28.63 27.9457 26.1791 29.7273 22.9871C31.509 19.7952 32.0924 16.072 31.3725 12.488Z" fill="#FFC107"/>
<path d="M2.68262 8.34151L7.73803 12.0485C8.28887 10.6768 9.1619 9.45781 10.2833 8.49474C11.4047 7.53166 12.7416 6.85276 14.1808 6.51545C15.62 6.17814 17.1193 6.19233 18.5518 6.55683C19.9844 6.92132 21.3081 7.6254 22.4111 8.60953L26.7602 4.26049C25.0341 2.64563 22.9583 1.4513 20.6947 0.770613C18.4311 0.0899285 16.0409 -0.0587067 13.7104 0.336298C11.3799 0.731303 9.17217 1.65927 7.25931 3.04784C5.34645 4.43642 3.78017 6.24806 2.68262 8.34151Z" fill="#FF3D00"/>
<path d="M16.2945 30.8795C20.1086 30.8806 23.7859 29.4585 26.6067 26.8913L21.8419 22.8639C20.6898 23.7372 19.3481 24.3268 17.9256 24.5848C16.5032 24.8428 15.0399 24.762 13.6545 24.349C12.2691 23.936 11.0004 23.2024 9.95143 22.2076C8.90243 21.2128 8.10257 19.9849 7.61668 18.6233L2.61011 22.4839C3.89539 25.0089 5.85373 27.1293 8.26871 28.6109C10.6837 30.0926 13.4613 30.8776 16.2945 30.8795Z" fill="#4CAF50"/>
<path d="M31.3725 12.4874H30.1349V12.4243H16.2944V18.5756H24.9901C24.3832 20.2815 23.29 21.7723 21.8454 22.8639L26.6102 26.8913C28.2273 25.4722 29.5177 23.7194 30.3925 21.7537C31.2673 19.788 31.7057 17.6561 31.6775 15.5047C31.6757 14.4914 31.5736 13.4807 31.3725 12.4874Z" fill="#1976D2"/>
</svg>
