<svg width="48" height="49" viewBox="0 0 48 49" fill="none" xmlns="http://www.w3.org/2000/svg">
<rect y="0.5" width="48" height="48" rx="24" fill="white" fill-opacity="0.08"/>
<g clip-path="url(#clip0_264_15284)">
<path d="M24 14.6609C27.2063 14.6609 27.5859 14.675 28.8469 14.7312C30.0188 14.7828 30.6516 14.9797 31.0734 15.1438C31.6313 15.3594 32.0344 15.6219 32.4516 16.0391C32.8734 16.4609 33.1313 16.8594 33.3469 17.4172C33.5109 17.8391 33.7078 18.4766 33.7594 19.6437C33.8156 20.9094 33.8297 21.2891 33.8297 24.4906C33.8297 27.6969 33.8156 28.0766 33.7594 29.3375C33.7078 30.5094 33.5109 31.1422 33.3469 31.5641C33.1313 32.1219 32.8687 32.525 32.4516 32.9422C32.0297 33.3641 31.6313 33.6219 31.0734 33.8375C30.6516 34.0016 30.0141 34.1984 28.8469 34.25C27.5813 34.3062 27.2016 34.3203 24 34.3203C20.7938 34.3203 20.4141 34.3062 19.1531 34.25C17.9813 34.1984 17.3484 34.0016 16.9266 33.8375C16.3688 33.6219 15.9656 33.3594 15.5484 32.9422C15.1266 32.5203 14.8688 32.1219 14.6531 31.5641C14.4891 31.1422 14.2922 30.5047 14.2406 29.3375C14.1844 28.0719 14.1703 27.6922 14.1703 24.4906C14.1703 21.2844 14.1844 20.9047 14.2406 19.6437C14.2922 18.4719 14.4891 17.8391 14.6531 17.4172C14.8688 16.8594 15.1313 16.4562 15.5484 16.0391C15.9703 15.6172 16.3688 15.3594 16.9266 15.1438C17.3484 14.9797 17.9859 14.7828 19.1531 14.7312C20.4141 14.675 20.7938 14.6609 24 14.6609ZM24 12.5C20.7422 12.5 20.3344 12.5141 19.0547 12.5703C17.7797 12.6266 16.9031 12.8328 16.1438 13.1281C15.3516 13.4375 14.6813 13.8453 14.0156 14.5156C13.3453 15.1813 12.9375 15.8516 12.6281 16.6391C12.3328 17.4031 12.1266 18.275 12.0703 19.55C12.0141 20.8344 12 21.2422 12 24.5C12 27.7578 12.0141 28.1656 12.0703 29.4453C12.1266 30.7203 12.3328 31.5969 12.6281 32.3563C12.9375 33.1484 13.3453 33.8188 14.0156 34.4844C14.6813 35.15 15.3516 35.5625 16.1391 35.8672C16.9031 36.1625 17.775 36.3687 19.05 36.425C20.3297 36.4812 20.7375 36.4953 23.9953 36.4953C27.2531 36.4953 27.6609 36.4812 28.9406 36.425C30.2156 36.3687 31.0922 36.1625 31.8516 35.8672C32.6391 35.5625 33.3094 35.15 33.975 34.4844C34.6406 33.8188 35.0531 33.1484 35.3578 32.3609C35.6531 31.5969 35.8594 30.725 35.9156 29.45C35.9719 28.1703 35.9859 27.7625 35.9859 24.5047C35.9859 21.2469 35.9719 20.8391 35.9156 19.5594C35.8594 18.2844 35.6531 17.4078 35.3578 16.6484C35.0625 15.8516 34.6547 15.1813 33.9844 14.5156C33.3188 13.85 32.6484 13.4375 31.8609 13.1328C31.0969 12.8375 30.225 12.6313 28.95 12.575C27.6656 12.5141 27.2578 12.5 24 12.5Z" fill="white"/>
<path d="M24 18.3359C20.5969 18.3359 17.8359 21.0969 17.8359 24.5C17.8359 27.9031 20.5969 30.6641 24 30.6641C27.4031 30.6641 30.1641 27.9031 30.1641 24.5C30.1641 21.0969 27.4031 18.3359 24 18.3359ZM24 28.4984C21.7922 28.4984 20.0016 26.7078 20.0016 24.5C20.0016 22.2922 21.7922 20.5016 24 20.5016C26.2078 20.5016 27.9984 22.2922 27.9984 24.5C27.9984 26.7078 26.2078 28.4984 24 28.4984Z" fill="white"/>
<path d="M31.8469 18.0924C31.8469 18.8893 31.2 19.5314 30.4078 19.5314C29.6109 19.5314 28.9688 18.8846 28.9688 18.0924C28.9688 17.2955 29.6156 16.6533 30.4078 16.6533C31.2 16.6533 31.8469 17.3002 31.8469 18.0924Z" fill="white"/>
</g>
<defs>
<clipPath id="clip0_264_15284">
<rect width="24" height="24" fill="white" transform="translate(12 12.5)"/>
</clipPath>
</defs>
</svg>
