<svg width="34" height="34" viewBox="0 0 34 34" fill="none" xmlns="http://www.w3.org/2000/svg">
<rect x="2" y="2" width="30" height="30" rx="4" fill="#006BFF"/>
<path d="M11.6458 26.1941H7.64659V12.9792H11.8197V26.1941H11.6458ZM9.73314 11.2404C8.3421 11.2404 7.29883 10.0233 7.29883 8.80614C7.29883 7.4151 8.3421 6.37183 9.73314 6.37183C11.1242 6.37183 12.1674 7.4151 12.1674 8.80614C11.9936 10.0233 10.9503 11.2404 9.73314 11.2404ZM27.1211 26.1941H22.948V19.7605C22.948 18.1956 22.948 16.2829 20.8614 16.2829C18.7749 16.2829 18.4271 18.0217 18.4271 19.7605V26.3679H14.254V12.9792H18.2532V14.718C18.7749 13.6748 20.1659 12.6315 22.0786 12.6315C26.2517 12.6315 26.9472 15.4135 26.9472 18.8911V26.1941H27.1211Z" fill="white"/>
</svg>
