<svg width="48" height="49" viewBox="0 0 48 49" fill="none" xmlns="http://www.w3.org/2000/svg">
<rect y="0.5" width="48" height="48" rx="24" fill="white" fill-opacity="0.08"/>
<g clip-path="url(#clip0_264_15286)">
<path d="M34.2234 12.5H13.7719C12.7922 12.5 12 13.2734 12 14.2297V34.7656C12 35.7219 12.7922 36.5 13.7719 36.5H34.2234C35.2031 36.5 36 35.7219 36 34.7703V14.2297C36 13.2734 35.2031 12.5 34.2234 12.5ZM19.1203 32.9516H15.5578V21.4953H19.1203V32.9516ZM17.3391 19.9344C16.1953 19.9344 15.2719 19.0109 15.2719 17.8719C15.2719 16.7328 16.1953 15.8094 17.3391 15.8094C18.4781 15.8094 19.4016 16.7328 19.4016 17.8719C19.4016 19.0062 18.4781 19.9344 17.3391 19.9344ZM32.4516 32.9516H28.8937V27.3828C28.8937 26.0562 28.8703 24.3453 27.0422 24.3453C25.1906 24.3453 24.9094 25.7937 24.9094 27.2891V32.9516H21.3563V21.4953H24.7687V23.0609H24.8156C25.2891 22.1609 26.4516 21.2094 28.1813 21.2094C31.7859 21.2094 32.4516 23.5813 32.4516 26.6656V32.9516Z" fill="white"/>
</g>
<defs>
<clipPath id="clip0_264_15286">
<rect width="24" height="24" fill="white" transform="translate(12 12.5)"/>
</clipPath>
</defs>
</svg>
