<svg width="209" height="184" viewBox="0 0 209 184" fill="none" xmlns="http://www.w3.org/2000/svg">
<circle cx="105.097" cy="89.7824" r="73.1126" fill="#A5D621"/>
<path d="M105.33 62.2344C89.9937 62.2344 77.5469 74.6812 77.5469 90.0174C77.5469 105.354 89.9937 117.8 105.33 117.8C120.666 117.8 133.113 105.354 133.113 90.0174" stroke="white" stroke-width="6" stroke-miterlimit="10" stroke-linecap="round" stroke-linejoin="round"/>
<path d="M108.109 87.2391L130.891 64.457" stroke="white" stroke-width="6" stroke-linecap="round" stroke-linejoin="round"/>
<path d="M133.115 75.6536V62.2344H119.695" stroke="white" stroke-width="6" stroke-linecap="round" stroke-linejoin="round"/>
<circle cx="28.3343" cy="12.1858" r="9.74835" fill="#A5D621"/>
<circle cx="187.967" cy="31.6822" r="9.74835" fill="#A5D621"/>
<ellipse cx="6.40522" cy="149.881" rx="6.09272" ry="6.09272" fill="#A5D621"/>
<circle cx="130.695" cy="3.65563" r="3.65563" fill="#A5D621"/>
<circle cx="205.023" cy="93.8278" r="3.65563" fill="#A5D621"/>
<circle cx="184.312" cy="166.94" r="3.65563" fill="#A5D621"/>
<circle cx="49.0541" cy="166.94" r="3.65563" fill="#A5D621"/>
<circle cx="7.01532" cy="68.8473" r="1.82782" fill="#A5D621"/>
<circle cx="128.867" cy="182.172" r="1.82782" fill="#A5D621"/>
</svg>
