<svg width="24" height="25" viewBox="0 0 24 25" fill="none" xmlns="http://www.w3.org/2000/svg">
<path d="M19.7899 15.43C17.7299 17.48 14.7799 18.11 12.1899 17.3L7.4799 22C7.1399 22.35 6.4699 22.56 5.9899 22.49L3.8099 22.19C3.0899 22.09 2.4199 21.41 2.3099 20.69L2.0099 18.51C1.9399 18.03 2.1699 17.36 2.4999 17.02L7.1999 12.32C6.3999 9.72001 7.0199 6.77001 9.0799 4.72001C12.0299 1.77001 16.8199 1.77001 19.7799 4.72001C22.7399 7.67001 22.7399 12.48 19.7899 15.43Z" stroke="#202020" stroke-width="1.5" stroke-miterlimit="10" stroke-linecap="round" stroke-linejoin="round"/>
<path d="M6.88989 17.99L9.18989 20.29" stroke="#202020" stroke-width="1.5" stroke-miterlimit="10" stroke-linecap="round" stroke-linejoin="round"/>
<path d="M14.5 11.5C15.3284 11.5 16 10.8284 16 10C16 9.17157 15.3284 8.5 14.5 8.5C13.6716 8.5 13 9.17157 13 10C13 10.8284 13.6716 11.5 14.5 11.5Z" stroke="#202020" stroke-width="1.5" stroke-linecap="round" stroke-linejoin="round"/>
</svg>
