<svg width="43" height="43" viewBox="0 0 43 43" fill="none" xmlns="http://www.w3.org/2000/svg">
<path d="M37.625 25.5312C37.625 25.8876 37.4834 26.2294 37.2314 26.4814C36.9794 26.7334 36.6376 26.875 36.2812 26.875H32.25V29.5625H34.9375C35.2939 29.5625 35.6357 29.7041 35.8877 29.9561C36.1397 30.2081 36.2812 30.5499 36.2812 30.9062C36.2812 31.2626 36.1397 31.6044 35.8877 31.8564C35.6357 32.1084 35.2939 32.25 34.9375 32.25H32.25V34.9375C32.25 35.2939 32.1084 35.6357 31.8564 35.8877C31.6044 36.1397 31.2626 36.2812 30.9062 36.2812C30.5499 36.2812 30.2081 36.1397 29.9561 35.8877C29.7041 35.6357 29.5625 35.2939 29.5625 34.9375V25.5312C29.5625 25.1749 29.7041 24.8331 29.9561 24.5811C30.2081 24.3291 30.5499 24.1875 30.9062 24.1875H36.2812C36.6376 24.1875 36.9794 24.3291 37.2314 24.5811C37.4834 24.8331 37.625 25.1749 37.625 25.5312ZM15.4531 28.8906C15.4531 30.138 14.9576 31.3342 14.0756 32.2162C13.1936 33.0982 11.9973 33.5938 10.75 33.5938H9.40625V34.9375C9.40625 35.2939 9.26468 35.6357 9.01267 35.8877C8.76067 36.1397 8.41888 36.2812 8.0625 36.2812C7.70612 36.2812 7.36433 36.1397 7.11233 35.8877C6.86032 35.6357 6.71875 35.2939 6.71875 34.9375V25.5312C6.71875 25.1749 6.86032 24.8331 7.11233 24.5811C7.36433 24.3291 7.70612 24.1875 8.0625 24.1875H10.75C11.9973 24.1875 13.1936 24.683 14.0756 25.565C14.9576 26.447 15.4531 27.6433 15.4531 28.8906ZM12.7656 28.8906C12.7656 28.356 12.5533 27.8434 12.1753 27.4654C11.7973 27.0874 11.2846 26.875 10.75 26.875H9.40625V30.9062H10.75C11.2846 30.9062 11.7973 30.6939 12.1753 30.3159C12.5533 29.9379 12.7656 29.4252 12.7656 28.8906ZM27.5469 30.2344C27.5469 31.8381 26.9098 33.3762 25.7758 34.5102C24.6418 35.6442 23.1037 36.2812 21.5 36.2812H18.8125C18.4561 36.2812 18.1143 36.1397 17.8623 35.8877C17.6103 35.6357 17.4688 35.2939 17.4688 34.9375V25.5312C17.4688 25.1749 17.6103 24.8331 17.8623 24.5811C18.1143 24.3291 18.4561 24.1875 18.8125 24.1875H21.5C23.1037 24.1875 24.6418 24.8246 25.7758 25.9586C26.9098 27.0926 27.5469 28.6306 27.5469 30.2344ZM24.8594 30.2344C24.8594 29.3434 24.5054 28.4889 23.8754 27.8589C23.2454 27.2289 22.391 26.875 21.5 26.875H20.1562V33.5938H21.5C22.391 33.5938 23.2454 33.2398 23.8754 32.6098C24.5054 31.9798 24.8594 31.1253 24.8594 30.2344ZM6.71875 18.8125V6.71875C6.71875 6.00598 7.0019 5.3224 7.5059 4.8184C8.0099 4.3144 8.69348 4.03125 9.40625 4.03125H25.5312C25.7078 4.03111 25.8826 4.06575 26.0457 4.13319C26.2088 4.20063 26.3571 4.29955 26.482 4.4243L35.8882 13.8305C36.0129 13.9554 36.1119 14.1037 36.1793 14.2668C36.2467 14.4299 36.2814 14.6047 36.2812 14.7812V18.8125C36.2812 19.1689 36.1397 19.5107 35.8877 19.7627C35.6357 20.0147 35.2939 20.1562 34.9375 20.1562C34.5811 20.1562 34.2393 20.0147 33.9873 19.7627C33.7353 19.5107 33.5938 19.1689 33.5938 18.8125V16.125H25.5312C25.1749 16.125 24.8331 15.9834 24.5811 15.7314C24.3291 15.4794 24.1875 15.1376 24.1875 14.7812V6.71875H9.40625V18.8125C9.40625 19.1689 9.26468 19.5107 9.01267 19.7627C8.76067 20.0147 8.41888 20.1562 8.0625 20.1562C7.70612 20.1562 7.36433 20.0147 7.11233 19.7627C6.86032 19.5107 6.71875 19.1689 6.71875 18.8125ZM26.875 13.4375H31.694L26.875 8.61848V13.4375Z" fill="#A5D621"/>
</svg>
