<svg width="70" height="71" viewBox="0 0 70 71" fill="none" xmlns="http://www.w3.org/2000/svg">
<rect width="70" height="71" rx="4" fill="white"/>
<path d="M51.625 39.6203C51.5953 39.9658 51.4359 40.2873 51.1788 40.5201C50.9217 40.7529 50.586 40.8797 50.2393 40.875H48.2656V48.8921C48.2703 49.2389 48.1435 49.5746 47.9107 49.8317C47.6779 50.0888 47.3564 50.2482 47.0109 50.2779C46.8271 50.2901 46.6427 50.2644 46.4693 50.2023C46.2958 50.1403 46.137 50.0432 46.0026 49.9172C45.8683 49.7912 45.7613 49.6389 45.6882 49.4698C45.6152 49.3007 45.5777 49.1184 45.5781 48.9341V40.875H43.6079C43.2611 40.8797 42.9254 40.7529 42.6683 40.5201C42.4112 40.2873 42.2518 39.9658 42.2221 39.6203C42.2099 39.4365 42.2356 39.2521 42.2977 39.0787C42.3597 38.9052 42.4568 38.7464 42.5828 38.612C42.7088 38.4776 42.8611 38.3706 43.0302 38.2976C43.1993 38.2246 43.3817 38.1871 43.5659 38.1875H50.2846C50.4685 38.1876 50.6505 38.2254 50.8192 38.2986C50.9879 38.3718 51.1398 38.4789 51.2655 38.6132C51.3911 38.7476 51.4879 38.9062 51.5497 39.0795C51.6116 39.2527 51.6372 39.4367 51.625 39.6203ZM29.4531 43.0334C29.3759 45.5916 27.2091 47.5938 24.6492 47.5938H23.4063V48.8921C23.4118 49.2395 23.2854 49.576 23.0525 49.8338C22.8196 50.0916 22.4977 50.2515 22.1515 50.2812C21.9677 50.2935 21.7834 50.2677 21.6099 50.2057C21.4365 50.1437 21.2776 50.0466 21.1433 49.9206C21.0089 49.7946 20.9019 49.6423 20.8289 49.4732C20.7558 49.304 20.7183 49.1217 20.7188 48.9375V39.5312C20.7188 39.1749 20.8603 38.8331 21.1123 38.5811C21.3643 38.3291 21.7061 38.1875 22.0625 38.1875H24.75C25.3798 38.1872 26.0033 38.3134 26.5834 38.5587C27.1635 38.8039 27.6885 39.1631 28.1271 39.6151C28.5658 40.0671 28.9092 40.6025 29.137 41.1897C29.3647 41.7769 29.4722 42.4039 29.4531 43.0334ZM26.7656 42.6975C26.7074 42.1905 26.4628 41.7234 26.0795 41.3866C25.6962 41.0498 25.2014 40.8675 24.6912 40.875H23.4063V44.9062H24.75C25.0319 44.9076 25.311 44.8497 25.5692 44.7365C25.8273 44.6232 26.0589 44.4571 26.2488 44.2488C26.4388 44.0404 26.5829 43.7946 26.672 43.5271C26.761 43.2596 26.7929 42.9764 26.7656 42.6958V42.6975ZM40.875 43.0334C40.7977 45.5916 38.6309 47.5938 36.0711 47.5938H34.8281V48.8921C34.8328 49.2389 34.706 49.5746 34.4732 49.8317C34.2404 50.0888 33.9189 50.2482 33.5734 50.2779C33.3896 50.2901 33.2052 50.2644 33.0318 50.2023C32.8583 50.1403 32.6995 50.0432 32.5651 49.9172C32.4308 49.7912 32.3238 49.6389 32.2507 49.4698C32.1777 49.3007 32.1402 49.1184 32.1406 48.9341V39.5312C32.1406 39.1749 32.2822 38.8331 32.5342 38.5811C32.7862 38.3291 33.128 38.1875 33.4844 38.1875H36.1719C36.8017 38.1872 37.4252 38.3134 38.0053 38.5587C38.5854 38.8039 39.1104 39.1631 39.549 39.6151C39.9876 40.0671 40.331 40.6025 40.5588 41.1897C40.7866 41.7769 40.8941 42.4039 40.875 43.0334ZM38.1875 42.6975C38.1292 42.1905 37.8847 41.7234 37.5014 41.3866C37.1181 41.0498 36.6233 40.8675 36.1131 40.875H34.8281V44.9062H36.1719C36.4538 44.9076 36.7329 44.8497 36.991 44.7365C37.2492 44.6232 37.4808 44.4571 37.6707 44.2488C37.8607 44.0404 38.0048 43.7946 38.0938 43.5271C38.1828 43.2596 38.2148 42.9764 38.1875 42.6958V42.6975ZM20.7188 33.4844V20.7188C20.7188 20.006 21.0019 19.3224 21.5059 18.8184C22.0099 18.3144 22.6935 18.0313 23.4063 18.0313H39.5313C39.7078 18.0311 39.8826 18.0658 40.0457 18.1332C40.2088 18.2006 40.3571 18.2996 40.482 18.4243L49.8882 27.8305C50.013 27.9554 50.1119 28.1037 50.1793 28.2668C50.2468 28.4299 50.2814 28.6047 50.2813 28.7812V33.4844C50.2813 33.6626 50.2105 33.8335 50.0845 33.9595C49.9585 34.0855 49.7876 34.1562 49.6094 34.1562H21.3906C21.2124 34.1562 21.0415 34.0855 20.9155 33.9595C20.7895 33.8335 20.7188 33.6626 20.7188 33.4844ZM39.5313 28.7812H46.9219L39.5313 21.3906V28.7812Z" fill="#A5D621"/>
</svg>
