<svg width="48" height="48" viewBox="0 0 48 48" fill="none" xmlns="http://www.w3.org/2000/svg">
<rect width="47.6364" height="47.6364" rx="23.8182" fill="#FFF2ED"/>
<path d="M31.2674 18.7583V21.2683C31.2674 21.9783 30.5474 22.4383 29.8774 22.1883C29.0374 21.8783 28.1074 21.7583 27.1274 21.8583C24.7474 22.1183 22.3074 24.4083 21.9074 26.7783C21.5774 28.7483 22.2074 30.5883 23.4174 31.8883C23.9674 32.4883 23.5974 33.4583 22.7874 33.5483C22.0974 33.6283 21.4174 33.6083 21.0374 33.3283L15.5374 29.2183C14.8874 28.7283 14.3574 27.6683 14.3574 26.8483V18.7583C14.3574 17.6283 15.2174 16.3883 16.2674 15.9883L21.7674 13.9283C22.3374 13.7183 23.2774 13.7183 23.8474 13.9283L29.3474 15.9883C30.4074 16.3883 31.2674 17.6283 31.2674 18.7583Z" fill="#FE5724"/>
<path d="M27.8184 23.3282C25.3384 23.3282 23.3184 25.3482 23.3184 27.8282C23.3184 30.3082 25.3384 32.3282 27.8184 32.3282C30.2984 32.3282 32.3184 30.3082 32.3184 27.8282C32.3184 25.3382 30.2984 23.3282 27.8184 23.3282Z" fill="#FE5724"/>
<path d="M32.8184 33.8183C32.5484 33.8183 32.2984 33.7083 32.1084 33.5283C32.0684 33.4783 32.0184 33.4283 31.9884 33.3683C31.9484 33.3183 31.9184 33.2583 31.8984 33.1983C31.8684 33.1383 31.8484 33.0783 31.8384 33.0183C31.8284 32.9483 31.8184 32.8883 31.8184 32.8183C31.8184 32.6883 31.8484 32.5583 31.8984 32.4383C31.9484 32.3083 32.0184 32.2083 32.1084 32.1083C32.3384 31.8783 32.6884 31.7683 33.0084 31.8383C33.0784 31.8483 33.1384 31.8683 33.1984 31.8983C33.2584 31.9183 33.3184 31.9483 33.3684 31.9883C33.4284 32.0183 33.4784 32.0683 33.5284 32.1083C33.6184 32.2083 33.6884 32.3083 33.7384 32.4383C33.7884 32.5583 33.8184 32.6883 33.8184 32.8183C33.8184 33.0783 33.7084 33.3383 33.5284 33.5283C33.4784 33.5683 33.4284 33.6083 33.3684 33.6483C33.3184 33.6883 33.2584 33.7183 33.1984 33.7383C33.1384 33.7683 33.0784 33.7883 33.0084 33.7983C32.9484 33.8083 32.8784 33.8183 32.8184 33.8183Z" fill="#FE5724"/>
</svg>
