<svg width="24" height="24" viewBox="0 0 24 24" fill="none" xmlns="http://www.w3.org/2000/svg">
<path d="M16.135 12.5C16.015 12.5 15.89 12.48 15.77 12.44C15.5446 12.3683 15.3481 12.2261 15.2095 12.0344C15.0709 11.8427 14.9974 11.6116 15 11.375V9.97C13.87 9.79 13 8.805 13 7.625V4.375C13 3.065 14.065 2 15.375 2H21.125C22.435 2 23.5 3.065 23.5 4.375V7.625C23.5 8.935 22.435 10 21.125 10H18.565L17.025 12.05C16.805 12.34 16.48 12.5 16.135 12.5ZM15.375 3.25C14.755 3.25 14.25 3.755 14.25 4.375V7.625C14.25 8.245 14.755 8.75 15.375 8.75H16.25V11L17.94 8.75H21.13C21.75 8.75 22.255 8.245 22.255 7.625V4.375C22.255 3.755 21.75 3.25 21.13 3.25H15.375ZM8 13.75C5.93 13.75 4.25 12.07 4.25 10C4.25 7.93 5.93 6.25 8 6.25C10.07 6.25 11.75 7.93 11.75 10C11.75 12.07 10.07 13.75 8 13.75ZM8 7.5C6.62 7.5 5.5 8.62 5.5 10C5.5 11.38 6.62 12.5 8 12.5C9.38 12.5 10.5 11.38 10.5 10C10.5 8.62 9.38 7.5 8 7.5ZM1.5 17.395C1.5 17.44 1.575 22 8 22C14.425 22 14.5 17.44 14.5 17.395V16.875C14.5 15.84 13.66 15 12.625 15H3.375C2.34 15 1.5 15.84 1.5 16.875V17.395ZM2.75 16.875C2.75 16.53 3.03 16.25 3.375 16.25H12.625C12.97 16.25 13.25 16.53 13.25 16.875V17.39C13.25 17.525 13.14 20.75 8 20.75C2.86 20.75 2.75 17.525 2.75 17.395V16.875Z" fill="#202020" stroke="#202020" stroke-width="0.1"/>
</svg>
