<svg width="24" height="24" viewBox="0 0 24 24" fill="none" xmlns="http://www.w3.org/2000/svg">
<path d="M20.5811 19.37L17.5911 11.01C17.3811 10.46 16.9111 10.12 16.3711 10.12C15.8311 10.12 15.3711 10.46 15.1411 11.03L12.1611 19.37C12.1243 19.4633 12.1067 19.563 12.1091 19.6633C12.1116 19.7635 12.1341 19.8623 12.1754 19.9536C12.2166 20.045 12.2758 20.1272 12.3494 20.1953C12.423 20.2635 12.5095 20.3161 12.6038 20.3502C12.6981 20.3843 12.7983 20.3992 12.8984 20.3939C12.9985 20.3886 13.0966 20.3633 13.1868 20.3195C13.277 20.2756 13.3574 20.2142 13.4235 20.1387C13.4895 20.0632 13.5397 19.9752 13.5711 19.88L14.1911 18.15H18.5411L19.1611 19.88C19.2711 20.19 19.5611 20.38 19.8711 20.38C19.9511 20.38 20.0411 20.37 20.1211 20.34C20.308 20.2723 20.4604 20.1332 20.5448 19.9532C20.6292 19.7731 20.6386 19.567 20.5711 19.38L20.5811 19.37ZM14.7411 16.64L16.3811 12.05L18.0211 16.64H14.7411ZM12.1911 7.85C9.93109 11.42 7.89109 13.58 5.41109 15.02C5.32639 15.0693 5.23282 15.1014 5.13572 15.1144C5.03861 15.1275 4.93988 15.1214 4.84517 15.0963C4.75045 15.0712 4.66159 15.0277 4.58368 14.9683C4.50577 14.9089 4.44033 14.8347 4.39109 14.75C4.34103 14.6655 4.30829 14.5719 4.29478 14.4746C4.28126 14.3774 4.28724 14.2784 4.31237 14.1834C4.3375 14.0885 4.38128 13.9995 4.44115 13.9217C4.50102 13.8438 4.57579 13.7787 4.66109 13.73C6.76109 12.51 8.48109 10.76 10.4111 7.86H4.12109C3.71109 7.86 3.37109 7.52 3.37109 7.11C3.37109 6.7 3.71109 6.36 4.12109 6.36H7.87109V4.38C7.87109 3.97 8.21109 3.63 8.62109 3.63C9.03109 3.63 9.37109 3.97 9.37109 4.38V6.36H13.1211C13.5311 6.36 13.8711 6.7 13.8711 7.11C13.8711 7.52 13.5311 7.86 13.1211 7.86H12.1811L12.1911 7.85ZM12.2311 15.12C12.1011 15.12 11.9711 15.09 11.8511 15.02C11.2011 14.64 10.5711 14.22 9.98109 13.78C9.82196 13.6607 9.71676 13.483 9.68863 13.2861C9.6605 13.0892 9.71175 12.8891 9.83109 12.73C9.95044 12.5709 10.1281 12.4657 10.325 12.4375C10.5219 12.4094 10.722 12.4607 10.8811 12.58C11.4211 12.99 12.0111 13.37 12.6111 13.72C12.7531 13.8037 12.8638 13.9317 12.926 14.0843C12.9882 14.237 12.9984 14.4059 12.9553 14.565C12.9121 14.7241 12.8178 14.8646 12.687 14.9649C12.5561 15.0652 12.3959 15.1197 12.2311 15.12Z" fill="#202020"/>
</svg>
