<svg width="34" height="34" viewBox="0 0 34 34" fill="none" xmlns="http://www.w3.org/2000/svg">
<path d="M23.471 12.8293C25.4002 14.2133 27.7635 15.0276 30.3161 15.0276V10.0983C29.833 10.0984 29.3512 10.0478 28.8786 9.94733V13.8274C26.3262 13.8274 23.9632 13.0131 22.0335 11.6293V21.6886C22.0335 26.7208 17.9686 30.7999 12.9546 30.7999C11.0837 30.7999 9.34487 30.2323 7.90039 29.2588C9.54903 30.9505 11.8482 32 14.3918 32C19.4061 32 23.4712 27.9209 23.4712 22.8885V12.8293H23.471ZM25.2443 7.85624C24.2584 6.77528 23.6111 5.37834 23.471 3.83397V3.19995H22.1088C22.4517 5.16285 23.6212 6.83984 25.2443 7.85624ZM11.0718 25.3973C10.5209 24.6724 10.2232 23.7857 10.2246 22.8741C10.2246 20.5725 12.0838 18.7064 14.3776 18.7064C14.8051 18.7063 15.2301 18.772 15.6375 18.9017V13.8622C15.1614 13.7967 14.6809 13.7689 14.2006 13.7791V17.7016C13.7929 17.5719 13.3677 17.506 12.9401 17.5064C10.6463 17.5064 8.78716 19.3723 8.78716 21.6742C8.78716 23.3017 9.71648 24.7108 11.0718 25.3973Z" fill="#FF004F"/>
<path d="M22.0332 11.6292C23.9629 13.013 26.3259 13.8273 28.8783 13.8273V9.94722C27.4536 9.64267 26.1923 8.8955 25.244 7.85624C23.6208 6.83973 22.4514 5.16275 22.1085 3.19995H18.5302V22.8883C18.5221 25.1835 16.666 27.042 14.3771 27.042C13.0283 27.042 11.8301 26.3968 11.0712 25.3973C9.71598 24.7108 8.78666 23.3016 8.78666 21.6743C8.78666 19.3726 10.6458 17.5065 12.9396 17.5065C13.3791 17.5065 13.8027 17.5752 14.2001 17.7017V13.7792C9.27414 13.8814 5.3125 17.9206 5.3125 22.8884C5.3125 25.3682 6.29904 27.6163 7.9002 29.2589C9.34468 30.2323 11.0836 30.8 12.9544 30.8C17.9685 30.8 22.0333 26.7207 22.0333 21.6886V11.6292H22.0332Z" fill="black"/>
<path d="M28.8782 9.94725V8.89811C27.5934 8.90006 26.3339 8.53899 25.2439 7.85617C26.2088 8.91633 27.4794 9.64733 28.8782 9.94725ZM22.1084 3.19998C22.0757 3.01239 22.0505 2.82356 22.0331 2.63402V2H17.0925V21.6885C17.0846 23.9835 15.2287 25.842 12.9395 25.842C12.2675 25.842 11.633 25.6819 11.0711 25.3974C11.83 26.3968 13.0282 27.0419 14.3771 27.0419C16.6658 27.0419 18.5221 25.1836 18.5301 22.8884V3.19998H22.1084ZM14.2002 13.7793V12.6624C13.7873 12.6057 13.3711 12.5773 12.9544 12.5775C7.93989 12.5774 3.875 16.6567 3.875 21.6885C3.875 24.8432 5.47258 27.6233 7.90021 29.2587C6.29905 27.6162 5.31251 25.368 5.31251 22.8883C5.31251 17.9207 9.27404 13.8814 14.2002 13.7793Z" fill="#00F2EA"/>
</svg>
