<svg width="48" height="49" viewBox="0 0 48 49" fill="none" xmlns="http://www.w3.org/2000/svg">
<rect y="0.5" width="48" height="48" rx="24" fill="white" fill-opacity="0.08"/>
<g clip-path="url(#clip0_264_15290)">
<path d="M29.0725 12.5H25.0278V28.8478C25.0278 30.7957 23.4722 32.3957 21.5363 32.3957C19.6003 32.3957 18.0447 30.7957 18.0447 28.8478C18.0447 26.9348 19.5658 25.3695 21.4326 25.3V21.1957C17.3187 21.2652 14 24.6391 14 28.8478C14 33.0913 17.3879 36.5 21.5708 36.5C25.7538 36.5 29.1416 33.0565 29.1416 28.8478V20.4652C30.6627 21.5783 32.5295 22.2391 34.5 22.2739V18.1696C31.4579 18.0652 29.0725 15.5609 29.0725 12.5Z" fill="white"/>
</g>
<defs>
<clipPath id="clip0_264_15290">
<rect width="24" height="24" fill="white" transform="translate(12 12.5)"/>
</clipPath>
</defs>
</svg>
