<svg width="20" height="20" viewBox="0 0 20 20" fill="none" xmlns="http://www.w3.org/2000/svg">
<path d="M17.5 4.98289C14.725 4.70789 11.9333 4.56622 9.15 4.56622C7.5 4.56622 5.85 4.64956 4.2 4.81622L2.5 4.98289" stroke="white" stroke-width="1.2" stroke-linecap="round" stroke-linejoin="round"/>
<path d="M7.08594 4.14083L7.26927 3.04917C7.4026 2.2575 7.5026 1.66583 8.91094 1.66583H11.0943C12.5026 1.66583 12.6109 2.29083 12.7359 3.0575L12.9193 4.14083" stroke="white" stroke-width="1.2" stroke-linecap="round" stroke-linejoin="round"/>
<path d="M15.7096 7.61798L15.168 16.0096C15.0763 17.318 15.0013 18.3346 12.6763 18.3346H7.3263C5.0013 18.3346 4.9263 17.318 4.83464 16.0096L4.29297 7.61798" stroke="white" stroke-width="1.2" stroke-linecap="round" stroke-linejoin="round"/>
<path d="M8.60938 13.7492H11.3844" stroke="white" stroke-width="1.2" stroke-linecap="round" stroke-linejoin="round"/>
<path d="M7.91797 10.4158H12.0846" stroke="white" stroke-width="1.2" stroke-linecap="round" stroke-linejoin="round"/>
</svg>
