<svg width="20" height="21" viewBox="0 0 20 21" fill="none" xmlns="http://www.w3.org/2000/svg">
<path d="M17.5584 4.85835C16.2167 4.72502 14.875 4.62502 13.525 4.55002V4.54169L13.3417 3.45835C13.2167 2.69169 13.0334 1.54169 11.0834 1.54169H8.90005C6.95838 1.54169 6.77505 2.64169 6.64172 3.45002L6.46672 4.51669C5.69172 4.56669 4.91672 4.61669 4.14172 4.69169L2.44172 4.85835C2.09172 4.89169 1.84172 5.20002 1.87505 5.54169C1.90838 5.88335 2.20838 6.13335 2.55838 6.10002L4.25838 5.93335C8.62505 5.50002 13.0251 5.66669 17.4417 6.10835C17.4667 6.10835 17.4834 6.10835 17.5084 6.10835C17.8251 6.10835 18.1001 5.86669 18.1334 5.54169C18.1584 5.20002 17.9084 4.89169 17.5584 4.85835Z" fill="#FF3B30"/>
<path d="M16.0254 7.28331C15.8254 7.07498 15.5504 6.95831 15.2671 6.95831H4.73378C4.45044 6.95831 4.16711 7.07498 3.97544 7.28331C3.78378 7.49165 3.67544 7.77498 3.69211 8.06665L4.20878 16.6166C4.30044 17.8833 4.41711 19.4666 7.32544 19.4666H12.6754C15.5838 19.4666 15.7004 17.8916 15.7921 16.6166L16.3088 8.07498C16.3254 7.77498 16.2171 7.49165 16.0254 7.28331ZM11.3838 15.2916H8.60878C8.26711 15.2916 7.98378 15.0083 7.98378 14.6666C7.98378 14.325 8.26711 14.0416 8.60878 14.0416H11.3838C11.7254 14.0416 12.0088 14.325 12.0088 14.6666C12.0088 15.0083 11.7254 15.2916 11.3838 15.2916ZM12.0838 11.9583H7.91711C7.57544 11.9583 7.29211 11.675 7.29211 11.3333C7.29211 10.9916 7.57544 10.7083 7.91711 10.7083H12.0838C12.4254 10.7083 12.7088 10.9916 12.7088 11.3333C12.7088 11.675 12.4254 11.9583 12.0838 11.9583Z" fill="#FF3B30"/>
</svg>
