<svg width="48" height="49" viewBox="0 0 48 49" fill="none" xmlns="http://www.w3.org/2000/svg">
<rect y="0.5" width="48" height="48" rx="24" fill="white" fill-opacity="0.08"/>
<path d="M19.5502 34.2502C28.6045 34.2502 33.5583 26.7469 33.5583 20.2421C33.5583 20.0312 33.5536 19.8155 33.5442 19.6046C34.5079 18.9077 35.3395 18.0445 36 17.0555C35.1025 17.4548 34.1496 17.7156 33.1739 17.829C34.2013 17.2132 34.9705 16.2457 35.3391 15.106C34.3726 15.6788 33.3156 16.0829 32.2134 16.3009C31.4708 15.5118 30.489 14.9894 29.4197 14.8143C28.3504 14.6392 27.2532 14.8213 26.2977 15.3323C25.3423 15.8434 24.5818 16.6549 24.1338 17.6416C23.6859 18.6282 23.5754 19.7349 23.8195 20.7905C21.8625 20.6923 19.9479 20.1839 18.2 19.2983C16.452 18.4127 14.9097 17.1697 13.673 15.6498C13.0444 16.7335 12.8521 18.0159 13.135 19.2363C13.418 20.4568 14.1551 21.5237 15.1964 22.2202C14.4146 22.1954 13.65 21.9849 12.9656 21.6062V21.6671C12.9649 22.8044 13.3581 23.9068 14.0783 24.787C14.7985 25.6672 15.8013 26.2708 16.9162 26.4952C16.1921 26.6934 15.432 26.7222 14.6948 26.5796C15.0095 27.5577 15.6216 28.4131 16.4458 29.0266C17.27 29.64 18.2651 29.9808 19.2923 30.0015C17.5484 31.3714 15.3942 32.1144 13.1766 32.1109C12.7833 32.1103 12.3904 32.0861 12 32.0387C14.2529 33.484 16.8735 34.2516 19.5502 34.2502Z" fill="white"/>
</svg>
