<svg width="33" height="32" viewBox="0 0 33 32" fill="none" xmlns="http://www.w3.org/2000/svg">
<path fill-rule="evenodd" clip-rule="evenodd" d="M16.9448 29.3334C24.3335 29.3334 30.3232 23.3638 30.3232 16C30.3232 8.63622 24.3335 2.66669 16.9448 2.66669C9.55611 2.66669 3.56641 8.63622 3.56641 16C3.56641 18.8432 4.45933 21.4786 5.98094 23.6427L4.78262 28.1212L9.35552 26.9819C11.5119 28.4649 14.1266 29.3334 16.9448 29.3334ZM11.6564 8.10016C12.1863 8.09558 12.6989 8.09116 13.042 8.778C13.3389 9.37229 13.7039 10.3926 14.1348 11.6114C14.1367 11.6166 14.1386 11.6219 14.1404 11.6272C14.2411 11.9115 14.3982 12.3553 14.1917 12.6495C13.9813 12.9492 13.5123 13.5523 13.1726 13.9429C13.0856 14.043 12.9112 14.272 13.1489 14.6451C13.2079 14.7379 13.2589 14.833 13.3151 14.9377C13.5414 15.3596 13.852 15.9386 15.115 17.1588C16.3898 18.3904 17.9891 19.0994 18.5789 19.3353C18.7392 19.4259 19.1244 19.5472 19.3828 19.3075C19.5016 19.1973 19.7254 18.9124 19.9695 18.6016C20.2561 18.2367 20.5708 17.8361 20.7763 17.6409C20.7825 17.6353 20.7889 17.6294 20.7955 17.6234C20.9329 17.4978 21.1509 17.2987 21.5515 17.4586C21.9023 17.5985 23.2482 18.2441 24.2648 18.7316C24.4648 18.8275 24.652 18.9173 24.8163 18.9959C24.978 19.047 25.2126 19.235 25.2126 19.6118C25.2126 20.462 24.6087 22.9793 21.6735 23.0314C18.7382 23.0835 15.2026 21.5536 12.5117 18.596C9.7235 15.5315 8.89605 13.4829 8.89605 11.6114C8.89605 9.32788 10.4987 8.1009 11.5265 8.1009C11.5699 8.1009 11.6132 8.10053 11.6564 8.10016Z" fill="#31D25C"/>
</svg>
