<svg width="48" height="49" viewBox="0 0 48 49" fill="none" xmlns="http://www.w3.org/2000/svg">
<rect y="0.5" width="48" height="48" rx="24" fill="white" fill-opacity="0.08"/>
<path d="M35.7609 19.6998C35.7609 19.6998 35.5266 18.0451 34.8047 17.3186C33.8906 16.3623 32.8688 16.3576 32.4 16.3014C29.0438 16.0576 24.0047 16.0576 24.0047 16.0576H23.9953C23.9953 16.0576 18.9563 16.0576 15.6 16.3014C15.1313 16.3576 14.1094 16.3623 13.1953 17.3186C12.4734 18.0451 12.2437 19.6998 12.2437 19.6998C12.2437 19.6998 12 21.6451 12 23.5857V25.4045C12 27.3451 12.2391 29.2904 12.2391 29.2904C12.2391 29.2904 12.4734 30.9451 13.1906 31.6717C14.1047 32.6279 15.3047 32.5951 15.8391 32.6982C17.7609 32.8811 24 32.9373 24 32.9373C24 32.9373 29.0438 32.9279 32.4 32.6889C32.8688 32.6326 33.8906 32.6279 34.8047 31.6717C35.5266 30.9451 35.7609 29.2904 35.7609 29.2904C35.7609 29.2904 36 27.3498 36 25.4045V23.5857C36 21.6451 35.7609 19.6998 35.7609 19.6998ZM21.5203 27.6123V20.867L28.0031 24.2514L21.5203 27.6123Z" fill="white"/>
</svg>
