<svg width="70" height="71" viewBox="0 0 70 71" fill="none" xmlns="http://www.w3.org/2000/svg">
<rect width="70" height="71" rx="4" fill="white"/>
<path fill-rule="evenodd" clip-rule="evenodd" d="M35 46.2C40.6333 46.2 45.2 41.6333 45.2 36C45.2 30.3667 40.6333 25.8 35 25.8C29.3667 25.8 24.8 30.3667 24.8 36C24.8 41.6333 29.3667 46.2 35 46.2ZM35 54C44.9411 54 53 45.9411 53 36C53 26.0589 44.9411 18 35 18C25.0589 18 17 26.0589 17 36C17 45.9411 25.0589 54 35 54Z" fill="#6938EF"/>
<path d="M35.2055 36.3941C37.08 34.5196 40.1192 34.5196 41.9937 36.3941L51.3275 45.7279C53.202 47.6024 53.202 50.6416 51.3275 52.5161C49.453 54.3907 46.4138 54.3907 44.5393 52.5161L35.2055 43.1823C33.331 41.3078 33.331 38.2686 35.2055 36.3941Z" fill="#F670C7"/>
<path d="M37.8271 45.8033L43.7552 51.7313C46.5985 50.1455 48.9674 47.8112 50.5953 44.9949L44.7158 39.1155C43.6831 42.3386 41.0909 44.8638 37.8271 45.8033Z" fill="#6519BA"/>
</svg>
