<svg width="452" height="75" viewBox="0 0 452 75" fill="none" xmlns="http://www.w3.org/2000/svg">
<path d="M152.164 74.8313C146.002 74.7105 124.213 73.4616 110.228 73.6631C77.8851 74.1263 45.5241 73.8645 13.3107 66.3917C8.27386 65.2235 -0.305301 65.0623 0.0083478 42.2613C0.321996 18.5338 6.13369 4.77664 14.9343 5.72333C36.2069 8.01954 57.5719 13.6392 78.7707 9.67119C109.785 3.85008 140.707 7.31457 171.647 6.28731C199.451 5.38091 227.237 6.79088 255.041 5.66291C281.147 4.61552 307.272 -0.379793 333.36 0.0230526C355.887 0.365472 378.359 6.40818 400.887 8.68425C406.182 9.20795 412.602 5.03848 418.414 5.44132C423.229 5.78374 431.237 6.0053 435.997 8.01953C438.045 8.88564 440.185 9.99348 442.196 9.16765C451.476 5.36077 453.875 13.6191 450.627 39.6227C449.908 45.3431 450.664 52.836 448.395 56.7436C448.303 56.9047 448.118 57.227 448.026 57.4284C441.163 73.1595 434.244 65.8076 427.214 66.1097C392.806 67.6607 358.378 67.6406 323.969 68.2045C302.844 68.547 281.719 67.3988 260.631 70.3396C254.856 71.1453 249.063 74.4889 243.214 72.4747L243.306 72.4948C237.2 73.2602 231.074 74.7306 224.967 74.6299C201.85 74.2674 177.699 76.1003 155.522 73.8847C154.637 73.8041 153.456 74.8515 152.164 74.8313Z" fill="#A5D621"/>
</svg>
